<?xml version="1.0" encoding="UTF-8"?>
<svg width="263px" height="316px" viewBox="0 0 263 316" version="1.1" xmlns="http://www.w3.org/2000/svg" xmlns:xlink="http://www.w3.org/1999/xlink">
    <title>bag, data, file@2x</title>
    <defs>
        <linearGradient x1="20.9681369%" y1="58.7860948%" x2="28.9549013%" y2="34.9473475%" id="linearGradient-1">
            <stop stop-color="#A5FECB" offset="0%"></stop>
            <stop stop-color="#20BDFF" offset="100%"></stop>
        </linearGradient>
        <linearGradient x1="39.1797956%" y1="69.2471138%" x2="16.6223143%" y2="0%" id="linearGradient-2">
            <stop stop-color="#ADC3F4" offset="0%"></stop>
            <stop stop-color="#F1E4FF" offset="100%"></stop>
        </linearGradient>
        <linearGradient x1="16.7763061%" y1="63.8321712%" x2="34.4715321%" y2="30.1639761%" id="linearGradient-3">
            <stop stop-color="#A5FECB" offset="0%"></stop>
            <stop stop-color="#20BDFF" offset="100%"></stop>
        </linearGradient>
        <linearGradient x1="20.9681369%" y1="66.6887333%" x2="28.9549013%" y2="21.408264%" id="linearGradient-4">
            <stop stop-color="#A5FECB" offset="0%"></stop>
            <stop stop-color="#20BDFF" offset="100%"></stop>
        </linearGradient>
        <linearGradient x1="53.2574701%" y1="50%" x2="39.5557292%" y2="12.1986336%" id="linearGradient-5">
            <stop stop-color="#C9DAFF" offset="0%"></stop>
            <stop stop-color="#F1E4FF" offset="100%"></stop>
        </linearGradient>
        <linearGradient x1="16.7763061%" y1="76.2734949%" x2="34.4715321%" y2="12.3224971%" id="linearGradient-6">
            <stop stop-color="#A5FECB" offset="0%"></stop>
            <stop stop-color="#20BDFF" offset="100%"></stop>
        </linearGradient>
        <linearGradient x1="21.0206843%" y1="83.5407671%" x2="28.9929927%" y2="-7.46324428%" id="linearGradient-7">
            <stop stop-color="#A5FECB" offset="0%"></stop>
            <stop stop-color="#20BDFF" offset="100%"></stop>
        </linearGradient>
        <linearGradient x1="69.0230281%" y1="0%" x2="50%" y2="100%" id="linearGradient-8">
            <stop stop-color="#038BF9" offset="0%"></stop>
            <stop stop-color="#04C9E1" offset="100%"></stop>
        </linearGradient>
        <linearGradient x1="50%" y1="-108.036091%" x2="50%" y2="127.882425%" id="linearGradient-9">
            <stop stop-color="#FFF2F2" stop-opacity="0.139407835" offset="0%"></stop>
            <stop stop-color="#FEFAF9" offset="100%"></stop>
        </linearGradient>
        <linearGradient x1="28.9929927%" y1="-7.46324428%" x2="21.0206843%" y2="83.5407671%" id="linearGradient-10">
            <stop stop-color="#A5FECB" offset="0%"></stop>
            <stop stop-color="#20BDFF" offset="100%"></stop>
        </linearGradient>
        <linearGradient x1="28.9929927%" y1="-7.46324428%" x2="21.0206843%" y2="83.5407671%" id="linearGradient-11">
            <stop stop-color="#A5FECB" offset="0%"></stop>
            <stop stop-color="#20BDFF" offset="100%"></stop>
        </linearGradient>
        <linearGradient x1="50%" y1="0%" x2="50%" y2="100%" id="linearGradient-12">
            <stop stop-color="#FB65BC" offset="0%"></stop>
            <stop stop-color="#FCAFA9" offset="100%"></stop>
        </linearGradient>
        <linearGradient x1="50%" y1="0%" x2="50%" y2="100%" id="linearGradient-13">
            <stop stop-color="#966AFF" offset="0%"></stop>
            <stop stop-color="#E885E0" offset="100%"></stop>
        </linearGradient>
        <linearGradient x1="50%" y1="0%" x2="50%" y2="100%" id="linearGradient-14">
            <stop stop-color="#FB65BC" offset="0%"></stop>
            <stop stop-color="#FCAFA9" offset="100%"></stop>
        </linearGradient>
        <linearGradient x1="50%" y1="0%" x2="50%" y2="100%" id="linearGradient-15">
            <stop stop-color="#FB65BC" offset="0%"></stop>
            <stop stop-color="#FCAFA9" offset="100%"></stop>
        </linearGradient>
        <linearGradient x1="50%" y1="-42.9786065%" x2="50%" y2="100%" id="linearGradient-16">
            <stop stop-color="#5174D0" offset="0%"></stop>
            <stop stop-color="#1F2480" offset="100%"></stop>
        </linearGradient>
    </defs>
    <g id="Page-1" stroke="none" stroke-width="1" fill="none" fill-rule="evenodd">
        <g id="Business---Icon-Illustration" transform="translate(-583.000000, -102.000000)">
            <g id="bag,-data,-file" transform="translate(583.000000, 102.000000)">
                <path d="M77.7997339,57.6899186 L141.129517,74.6898285 L119.3557,87.2609478 C109.214458,93.1159967 96.2426004,89.6339004 90.3822456,79.483468 L77.7997339,57.6899186 Z" id="Shape" fill="url(#linearGradient-1)" fill-rule="nonzero"></path>
                <path d="M25.3205081,63.5 L89.6232259,26.3748085 L152.915465,44.6212483 L214.691465,151.620419 C220.214312,161.186272 216.936809,173.41808 207.370957,178.940927 L120.820508,228.910852 C111.254656,234.4337 99.0228475,231.156197 93.5,221.590344 L18,90.8205081 C12.4771525,81.2546556 15.7546556,69.0228475 25.3205081,63.5 Z" id="Shape" fill="url(#linearGradient-2)"></path>
                <path d="M116.265372,153.021125 L142.181019,138.058719 C143.137604,137.506434 144.360785,137.834184 144.91307,138.790769 L145.565848,139.921414 C146.118133,140.877999 145.790382,142.10118 144.833797,142.653465 L118.91815,157.615871 C117.961564,158.168155 116.738384,157.840405 116.186099,156.88382 L115.533321,155.753175 C114.981036,154.79659 115.308787,153.573409 116.265372,153.021125 Z" id="Shape" fill="#FFE988" fill-rule="nonzero"></path>
                <path d="M109.408965,173.14548 L162.868127,142.280819 C163.824713,141.728534 165.047894,142.056284 165.600178,143.012869 L166.252956,144.143514 C166.805241,145.100099 166.477491,146.32328 165.520905,146.875565 L112.061743,177.740226 C111.105158,178.292511 109.881977,177.964761 109.329692,177.008175 L108.676915,175.877531 C108.12463,174.920946 108.45238,173.697765 109.408965,173.14548 Z" id="Shape" fill="#FFFFFF" fill-rule="nonzero"></path>
                <path d="M123.935245,176.305734 L159.032064,156.042576 C159.988649,155.490292 161.21183,155.818042 161.764115,156.774627 L162.416892,157.905272 C162.969177,158.861857 162.641427,160.085038 161.684842,160.637322 L126.588023,180.90048 C125.631437,181.452765 124.408257,181.125015 123.855972,180.168429 L123.203194,179.037785 C122.650909,178.0812 122.97866,176.858019 123.935245,176.305734 Z" id="Shape" fill="#FFFFFF" fill-rule="nonzero"></path>
                <path d="M89.8163944,26.5033851 L153.146178,43.503295 L131.37236,56.0744143 C121.231118,61.9294632 108.259261,58.4473669 102.398906,48.2969345 L89.8163944,26.5033851 Z" id="Shape" fill="url(#linearGradient-3)" fill-rule="nonzero"></path>
                <path d="M119.198326,34.2949608 L175.970299,67.1065668 L151.684761,73.6138571 C140.373676,76.6446534 128.745056,69.9238429 125.711514,58.6025067 L119.198326,34.2949608 Z" id="Shape" fill="url(#linearGradient-4)" fill-rule="nonzero"></path>
                <path d="M67.003527,26.3244454 L138.723889,7.10703216 L195.136971,41.1129764 L227.114582,160.455044 C229.973418,171.124366 223.641768,182.091106 212.972446,184.949942 L116.437965,210.816278 C105.768643,213.675114 94.8019034,207.343465 91.9430672,196.674143 L52.8613913,50.8193428 C50.0025551,40.1500207 56.3342049,29.1832816 67.003527,26.3244454 Z" id="Shape" fill="url(#linearGradient-5)"></path>
                <path d="M131.679748,136.333474 L160.584896,128.588363 C161.651829,128.30248 162.748503,128.935645 163.034386,130.002577 L163.372289,131.263647 C163.658172,132.330579 163.025007,133.427253 161.958075,133.713136 L133.052926,141.458248 C131.985994,141.744131 130.88932,141.110966 130.603437,140.044034 L130.265534,138.782964 C129.97965,137.716032 130.612815,136.619358 131.679748,136.333474 Z" id="Shape" fill="#FFE988" fill-rule="nonzero"></path>
                <path d="M119.848401,153.997541 L179.474349,138.020816 C180.541281,137.734933 181.637955,138.368098 181.923838,139.43503 L182.261741,140.6961 C182.547625,141.763032 181.91446,142.859706 180.847527,143.145589 L121.22158,159.122314 C120.154648,159.408198 119.057974,158.775033 118.77209,157.7081 L118.434187,156.44703 C118.148304,155.380098 118.781469,154.283424 119.848401,153.997541 Z" id="Shape" fill="#FFFFFF" fill-rule="nonzero"></path>
                <path d="M133.061776,160.80979 L172.207191,150.320807 C173.274123,150.034924 174.370797,150.668089 174.65668,151.735021 L174.994583,152.996091 C175.280467,154.063023 174.647302,155.159697 173.580369,155.44558 L134.434954,165.934563 C133.368022,166.220446 132.271348,165.587281 131.985465,164.520349 L131.647562,163.259279 C131.361678,162.192347 131.994843,161.095673 133.061776,160.80979 Z" id="Shape" fill="#FFFFFF" fill-rule="nonzero"></path>
                <path d="M138.877198,7.28122325 L195.649171,40.0928293 L171.363633,46.6001195 C160.052547,49.6309158 148.423928,42.9101054 145.390385,31.5887692 L138.877198,7.28122325 Z" id="Shape" fill="url(#linearGradient-6)" fill-rule="nonzero"></path>
                <path d="M158.353383,21.2079348 L204.69863,67.5951803 L179.556391,67.5951803 C167.846293,67.5951803 158.353383,58.0936678 158.353383,46.3729581 L158.353383,21.2079348 Z" id="Shape" fill="url(#linearGradient-7)" fill-rule="nonzero"></path>
                <path d="M110,0 L184.250383,0 L229.93985,47.4479998 L229.93985,171 C229.93985,182.045695 220.985545,191 209.93985,191 L110,191 C98.954305,191 90,182.045695 90,171 L90,20 C90,8.954305 98.954305,0 110,0 Z" id="Shape" fill="url(#linearGradient-8)"></path>
                <path d="M148,29 L177.924812,29 C179.029382,29 179.924812,29.8954305 179.924812,31 L179.924812,32.3055556 C179.924812,33.4101251 179.029382,34.3055556 177.924812,34.3055556 L148,34.3055556 C146.895431,34.3055556 146,33.4101251 146,32.3055556 L146,31 C146,29.8954305 146.895431,29 148,29 Z M148,72 L177.924812,72 C179.029382,72 179.924812,72.8954305 179.924812,74 L179.924812,75.3055556 C179.924812,76.4101251 179.029382,77.3055556 177.924812,77.3055556 L148,77.3055556 C146.895431,77.3055556 146,76.4101251 146,75.3055556 L146,74 C146,72.8954305 146.895431,72 148,72 Z M148,40 L209.729323,40 C210.833893,40 211.729323,40.8954305 211.729323,42 L211.729323,43.3055556 C211.729323,44.4101251 210.833893,45.3055556 209.729323,45.3055556 L148,45.3055556 C146.895431,45.3055556 146,44.4101251 146,43.3055556 L146,42 C146,40.8954305 146.895431,40 148,40 Z M148,83 L209.729323,83 C210.833893,83 211.729323,83.8954305 211.729323,85 L211.729323,86.3055556 C211.729323,87.4101251 210.833893,88.3055556 209.729323,88.3055556 L148,88.3055556 C146.895431,88.3055556 146,87.4101251 146,86.3055556 L146,85 C146,83.8954305 146.895431,83 148,83 Z M148,115 L177.924812,115 C179.029382,115 179.924812,115.895431 179.924812,117 L179.924812,118.305556 C179.924812,119.410125 179.029382,120.305556 177.924812,120.305556 L148,120.305556 C146.895431,120.305556 146,119.410125 146,118.305556 L146,117 C146,115.895431 146.895431,115 148,115 Z M148,126 L209.729323,126 C210.833893,126 211.729323,126.895431 211.729323,128 L211.729323,129.305556 C211.729323,130.410125 210.833893,131.305556 209.729323,131.305556 L148,131.305556 C146.895431,131.305556 146,130.410125 146,129.305556 L146,128 C146,126.895431 146.895431,126 148,126 Z M148,169 L209.729323,169 C210.833893,169 211.729323,169.895431 211.729323,171 L211.729323,172.305556 C211.729323,173.410125 210.833893,174.305556 209.729323,174.305556 L148,174.305556 C146.895431,174.305556 146,173.410125 146,172.305556 L146,171 C146,169.895431 146.895431,169 148,169 Z M123.89203,54.8128645 C115.115104,54.8128645 108,47.6913122 108,38.9064322 C108,30.1215523 115.115104,23 123.89203,23 C132.668957,23 139.784061,30.1215523 139.784061,38.9064322 C139.784061,47.6913122 132.668957,54.8128645 123.89203,54.8128645 Z M123.89203,97.8128645 C115.115104,97.8128645 108,90.6913122 108,81.9064322 C108,73.1215523 115.115104,66 123.89203,66 C132.668957,66 139.784061,73.1215523 139.784061,81.9064322 C139.784061,90.6913122 132.668957,97.8128645 123.89203,97.8128645 Z M123.89203,140.812864 C115.115104,140.812864 108,133.691312 108,124.906432 C108,116.121552 115.115104,109 123.89203,109 C132.668957,109 139.784061,116.121552 139.784061,124.906432 C139.784061,133.691312 132.668957,140.812864 123.89203,140.812864 Z" id="Shape" fill="url(#linearGradient-9)" opacity="0.965587798"></path>
                <path d="M123.75,42.0104216 C120.574363,42.0104216 118,39.433726 118,36.2552108 C118,33.0766956 120.574363,30.5 123.75,30.5 C126.925637,30.5 129.5,33.0766956 129.5,36.2552108 C129.5,39.433726 126.925637,42.0104216 123.75,42.0104216 Z M113.127197,50.6079492 C115.069028,46.4111802 119.314305,43.5 124.238909,43.5 C128.984,43.5 133.098387,46.2028102 135.129164,50.1542074 C132.25329,53.0325708 128.280377,54.8128645 123.89203,54.8128645 C119.739149,54.8128645 115.958314,53.218495 113.127197,50.6079492 L113.127197,50.6079492 Z M123.75,85.0104216 C120.574363,85.0104216 118,82.433726 118,79.2552108 C118,76.0766956 120.574363,73.5 123.75,73.5 C126.925637,73.5 129.5,76.0766956 129.5,79.2552108 C129.5,82.433726 126.925637,85.0104216 123.75,85.0104216 Z M113.127197,93.6079492 C115.069028,89.4111802 119.314305,86.5 124.238909,86.5 C128.984,86.5 133.098387,89.2028102 135.129164,93.1542074 C132.25329,96.0325708 128.280377,97.8128645 123.89203,97.8128645 C119.739149,97.8128645 115.958314,96.218495 113.127197,93.6079492 L113.127197,93.6079492 Z M123.75,128.010422 C120.574363,128.010422 118,125.433726 118,122.255211 C118,119.076696 120.574363,116.5 123.75,116.5 C126.925637,116.5 129.5,119.076696 129.5,122.255211 C129.5,125.433726 126.925637,128.010422 123.75,128.010422 Z M113.127197,136.607949 C115.069028,132.41118 119.314305,129.5 124.238909,129.5 C128.984,129.5 133.098387,132.20281 135.129164,136.154207 C132.25329,139.032571 128.280377,140.812864 123.89203,140.812864 C119.739149,140.812864 115.958314,139.218495 113.127197,136.607949 L113.127197,136.607949 Z" id="Shape" fill="#FFFFFF" fill-rule="nonzero"></path>
                <path d="M148,158 L177.924812,158 C179.029382,158 179.924812,158.895431 179.924812,160 L179.924812,161.305556 C179.924812,162.410125 179.029382,163.305556 177.924812,163.305556 L148,163.305556 C146.895431,163.305556 146,162.410125 146,161.305556 L146,160 C146,158.895431 146.895431,158 148,158 Z" id="Shape" fill="#FFE988" fill-rule="nonzero"></path>
                <ellipse id="Shape" fill="#FFFFFF" fill-rule="nonzero" cx="123.89203" cy="167.906432" rx="15.8920305" ry="15.9064322"></ellipse>
                <ellipse id="Shape" fill="url(#linearGradient-10)" fill-rule="nonzero" cx="123.75" cy="165.255211" rx="5.75" ry="5.7552108"></ellipse>
                <ellipse id="Shape" fill="url(#linearGradient-11)" fill-rule="nonzero" cx="124.238909" cy="184.75" rx="12.2389088" ry="12.25"></ellipse>
                <path d="M184.353383,0.207934795 L230.69863,46.5951803 L205.556391,46.5951803 C193.846293,46.5951803 184.353383,37.0936678 184.353383,25.3729581 L184.353383,0.207934795 Z" id="Shape" fill="#04C5E3" fill-rule="nonzero"></path>
                <path d="M208,231 L241,231 C242.104569,231 243,231.895431 243,233 L243,234.305556 C243,235.410125 242.104569,236.305556 241,236.305556 L208,236.305556 C206.895431,236.305556 206,235.410125 206,234.305556 L206,233 C206,231.895431 206.895431,231 208,231 Z M208,241 L261,241 C262.104569,241 263,241.895431 263,243 L263,244.305556 C263,245.410125 262.104569,246.305556 261,246.305556 L208,246.305556 C206.895431,246.305556 206,245.410125 206,244.305556 L206,243 C206,241.895431 206.895431,241 208,241 Z" id="Shape" fill="url(#linearGradient-12)"></path>
                <path d="M24.5747263,214.819551 C25.5313116,215.371836 25.8590619,216.595017 25.3067771,217.551602 C24.7544924,218.508187 23.5313116,218.835937 22.5747263,218.283653 C20.7143097,217.209541 18.9775921,216.103091 17.3619199,214.961847 C16.4597247,214.324573 16.2449633,213.076587 16.8822369,212.174392 C17.5195105,211.272197 18.7674965,211.057435 19.6696917,211.694709 C21.1835058,212.764005 22.817597,213.805072 24.5747263,214.819551 Z M12.4513028,205.422505 C13.1954995,206.238743 13.1370983,207.503725 12.32086,208.247922 C11.5046217,208.992119 10.2396392,208.933718 9.4954424,208.117479 C8.02534432,206.505069 6.73779817,204.828221 5.63095459,203.08293 C5.03938311,202.150129 5.31600398,200.914381 6.24880459,200.32281 C7.18160519,199.731239 8.41735293,200.007859 9.0089244,200.94066 C9.98946197,202.486789 11.1354166,203.979235 12.4513028,205.422505 Z M5.36484981,192.348567 C5.62268509,193.422623 4.96100805,194.502333 3.88695277,194.760168 C2.81289749,195.018004 1.73318686,194.356327 1.47535157,193.282271 C0.989909649,191.260083 0.688191749,189.162922 0.568090776,186.986723 C0.507223953,185.883832 1.35195162,184.940419 2.45484282,184.879553 C3.55773403,184.818686 4.50114631,185.663413 4.56201313,186.766305 C4.66902327,188.705301 4.93640831,190.563824 5.36484981,192.348567 Z M5.20052269,177.249573 C5.01057498,178.337688 3.97450067,179.065796 2.88638595,178.875848 C1.79827123,178.685901 1.07016301,177.649826 1.26011072,176.561712 C1.60095718,174.609174 2.05762212,172.597386 2.63000301,170.522287 C2.92371136,169.457483 4.02500384,168.832385 5.0898086,169.126094 C6.15461336,169.419802 6.77971051,170.521095 6.48600216,171.585899 C5.94702251,173.539906 5.51874639,175.42663 5.20052269,177.249573 Z M15.5,156 C13.0147186,156 11,153.985281 11,151.5 C11,149.014719 13.0147186,147 15.5,147 C17.9852814,147 20,149.014719 20,151.5 C20,153.985281 17.9852814,156 15.5,156 Z M15.5,159 C19.6421356,159 23,155.642136 23,151.5 C23,147.357864 19.6421356,144 15.5,144 C11.3578644,144 8,147.357864 8,151.5 C8,155.642136 11.3578644,159 15.5,159 Z M15.5,162 C9.70101013,162 5,157.29899 5,151.5 C5,145.70101 9.70101013,141 15.5,141 C21.2989899,141 26,145.70101 26,151.5 C26,157.29899 21.2989899,162 15.5,162 Z M240.457464,143.554292 C239.599053,142.859164 239.466685,141.599771 240.161813,140.741359 C240.856941,139.882947 242.116334,139.75058 242.974746,140.445708 C244.64423,141.797629 246.186478,143.162139 247.603729,144.54208 C248.395125,145.312642 248.412015,146.578859 247.641452,147.370255 C246.87089,148.161652 245.604673,148.178541 244.813277,147.407979 C243.485375,146.115035 242.034261,144.831157 240.457464,143.554292 Z M250.961607,154.732166 C250.35426,153.809559 250.609829,152.569287 251.532436,151.96194 C252.455043,151.354594 253.695316,151.610163 254.302662,152.53277 C255.502425,154.355302 256.511802,156.212923 257.331995,158.109875 C257.770361,159.123733 257.303832,160.300994 256.289974,160.73936 C255.276115,161.177726 254.098855,160.711197 253.660489,159.697339 C252.933891,158.016855 252.035515,156.363517 250.961607,154.732166 Z M255.915599,168.753707 C255.828957,167.652541 256.651392,166.689633 257.752558,166.602991 C258.853725,166.516349 259.816633,167.338784 259.903275,168.43995 C260.0664,170.513182 260.036335,172.631723 259.814525,174.799917 C259.702112,175.898751 258.720202,176.698404 257.621368,176.585992 C256.522533,176.473579 255.722881,175.491669 255.835293,174.392834 C256.032926,172.46097 256.05957,170.583501 255.915599,168.753707 Z M253.7159,183.692514 C254.073728,182.64751 255.210948,182.090444 256.255951,182.448272 C257.300955,182.8061 257.858022,183.943319 257.500194,184.988323 C256.858099,186.863502 256.092344,188.779083 255.202393,190.739094 C254.745728,191.744843 253.560208,192.189964 252.554459,191.7333 C251.54871,191.276635 251.103589,190.091115 251.560253,189.085366 C252.398271,187.239731 253.116423,185.443233 253.7159,183.692514 Z M239.5,216 C237.014719,216 235,213.985281 235,211.5 C235,209.014719 237.014719,207 239.5,207 C241.985281,207 244,209.014719 244,211.5 C244,213.985281 241.985281,216 239.5,216 Z M239.5,219 C243.642136,219 247,215.642136 247,211.5 C247,207.357864 243.642136,204 239.5,204 C235.357864,204 232,207.357864 232,211.5 C232,215.642136 235.357864,219 239.5,219 Z M239.5,222 C233.70101,222 229,217.29899 229,211.5 C229,205.70101 233.70101,201 239.5,201 C245.29899,201 250,205.70101 250,211.5 C250,217.29899 245.29899,222 239.5,222 Z" id="Shape" fill="#D4DFFF" fill-rule="nonzero"></path>
                <path d="M44,159 L183,159 C188.522847,159 193,163.477153 193,169 L193,256 C193,261.522847 188.522847,266 183,266 L44,266 C38.4771525,266 34,261.522847 34,256 L34,169 C34,163.477153 38.4771525,159 44,159 Z" id="Shape" fill="url(#linearGradient-13)"></path>
                <path d="M29,158 L198,158 L198,205 C198,210.522847 193.522847,215 188,215 L39,215 C33.4771525,215 29,210.522847 29,205 L29,158 Z" id="Shape" fill="url(#linearGradient-14)"></path>
                <path d="M151,202 L159,202 C161.209139,202 163,203.790861 163,206 L163,225 C163,227.209139 161.209139,229 159,229 L151,229 C148.790861,229 147,227.209139 147,225 L147,206 C147,203.790861 148.790861,202 151,202 Z" id="Shape" fill="#FFFFFF"></path>
                <path d="M63,202 L71,202 C73.209139,202 75,203.790861 75,206 L75,225 C75,227.209139 73.209139,229 71,229 L63,229 C60.790861,229 59,227.209139 59,225 L59,206 C59,203.790861 60.790861,202 63,202 Z" id="Shape" fill="#FFFFFF"></path>
                <path d="M43.924015,145 L183.075985,145 C186.180675,145 189.109262,146.442041 191.002225,148.902892 L198,158 L29,158 L35.9977751,148.902892 C37.8907381,146.442041 40.8193249,145 43.924015,145 Z" id="Shape" fill="url(#linearGradient-15)"></path>
                <path d="M141,154.473729 L140.990291,154.473729 C140.713559,146.985588 134.555784,141 127,141 L101,141 C93.4442163,141 87.2864414,146.985588 87.0097086,154.473729 L87,154.473729 L87,155 L73.0352947,155 C72.8793355,155 72.7235473,154.989675 72.5689522,154.969093 C70.6344366,154.711539 69.2749905,152.934516 69.5325444,151 C69.8373927,148.71025 71.7904298,147 74.1003835,147 L87,147 L87,148 C87,140.268014 93.2680135,134 101,134 L127,134 C134.731986,134 141,140.268014 141,148 L141,147 L153.899617,147 C156.20957,147 158.162607,148.71025 158.467456,151 C158.725009,152.934516 157.365563,154.711539 155.431048,154.969093 C155.276453,154.989675 155.120664,155 154.964705,155 L141,155 L141,154.473729 L141,154.473729 Z" id="Shape" fill="url(#linearGradient-16)"></path>
                <ellipse id="Shape" fill="#B6A0D1" fill-rule="nonzero" opacity="0.200000003" cx="131.5" cy="306" rx="112.5" ry="10"></ellipse>
            </g>
        </g>
    </g>
</svg>