<?xml version="1.0" encoding="UTF-8"?>
<svg width="339px" height="385px" viewBox="0 0 339 385" version="1.1" xmlns="http://www.w3.org/2000/svg" xmlns:xlink="http://www.w3.org/1999/xlink">
    <title>clock, world, service@2x</title>
    <defs>
        <linearGradient x1="50%" y1="0%" x2="50%" y2="100%" id="linearGradient-1">
            <stop stop-color="#9D61F7" offset="0%"></stop>
            <stop stop-color="#00DEFC" offset="100%"></stop>
        </linearGradient>
        <linearGradient x1="50%" y1="-30.9601329%" x2="50%" y2="127.882425%" id="linearGradient-2">
            <stop stop-color="#FFF2F2" stop-opacity="0.139407835" offset="0%"></stop>
            <stop stop-color="#FEFAF9" offset="100%"></stop>
        </linearGradient>
        <linearGradient x1="50%" y1="0%" x2="50%" y2="100%" id="linearGradient-3">
            <stop stop-color="#FFB36D" offset="0%"></stop>
            <stop stop-color="#E73E79" offset="100%"></stop>
        </linearGradient>
        <linearGradient x1="50%" y1="-42.9786065%" x2="50%" y2="100%" id="linearGradient-4">
            <stop stop-color="#5174D0" offset="0%"></stop>
            <stop stop-color="#1F2480" offset="100%"></stop>
        </linearGradient>
        <linearGradient x1="50%" y1="0%" x2="50%" y2="100%" id="linearGradient-5">
            <stop stop-color="#966AFF" offset="0%"></stop>
            <stop stop-color="#E885E0" offset="100%"></stop>
        </linearGradient>
        <linearGradient x1="50%" y1="0%" x2="50%" y2="100%" id="linearGradient-6">
            <stop stop-color="#966AFF" offset="0%"></stop>
            <stop stop-color="#E885E0" offset="100%"></stop>
        </linearGradient>
        <linearGradient x1="50%" y1="0%" x2="50%" y2="100%" id="linearGradient-7">
            <stop stop-color="#966AFF" offset="0%"></stop>
            <stop stop-color="#E885E0" offset="100%"></stop>
        </linearGradient>
        <linearGradient x1="50%" y1="0%" x2="50%" y2="100%" id="linearGradient-8">
            <stop stop-color="#FB65BC" offset="0%"></stop>
            <stop stop-color="#FCAFA9" offset="100%"></stop>
        </linearGradient>
        <linearGradient x1="50%" y1="0%" x2="50%" y2="184.707022%" id="linearGradient-9">
            <stop stop-color="#FFF2F2" stop-opacity="0.139407835" offset="0%"></stop>
            <stop stop-color="#FEFAF9" offset="100%"></stop>
        </linearGradient>
        <linearGradient x1="50%" y1="0%" x2="50%" y2="100%" id="linearGradient-10">
            <stop stop-color="#FB65BC" offset="0%"></stop>
            <stop stop-color="#FCAFA9" offset="100%"></stop>
        </linearGradient>
    </defs>
    <g id="Page-1" stroke="none" stroke-width="1" fill="none" fill-rule="evenodd">
        <g id="Business---Icon-Illustration" transform="translate(-1016.000000, -1863.000000)">
            <g id="clock,-world,-service" transform="translate(1016.000000, 1863.000000)">
                <ellipse id="Shape" fill="#B6A0D1" fill-rule="nonzero" opacity="0.200000003" cx="165.5" cy="375" rx="142.5" ry="10"></ellipse>
                <circle id="Shape" fill="#A5FECB" fill-rule="nonzero" cx="269.5" cy="181.5" r="4.5"></circle>
                <path d="M165,0 L331,0 C335.418278,0 339,3.581722 339,8 L339,112 C339,116.418278 335.418278,120 331,120 L165,120 C160.581722,120 157,116.418278 157,112 L157,8 C157,3.581722 160.581722,0 165,0 Z" id="Shape" fill="url(#linearGradient-1)"></path>
                <path d="M169,26 L327,26 C331.418278,26 335,29.581722 335,34 L335,108 C335,112.418278 331.418278,116 327,116 L169,116 C164.581722,116 161,112.418278 161,108 L161,34 C161,29.581722 164.581722,26 169,26 Z" id="Shape" fill="url(#linearGradient-2)" opacity="0.965587798"></path>
                <path d="M287.354407,52.7439393 C287.851925,53.3505214 288.580274,54.2379562 288.855725,54.5671557 C292.286171,58.6669862 294.522748,60.2292352 297.556026,60.1052648 C304.444049,59.8237505 310.617118,54.8003167 316.059007,44.8084524 L313.17979,45.6152782 C312.382091,45.8388126 311.554217,45.3733601 311.330683,44.575661 C311.107148,43.7779619 311.572601,42.9500886 312.3703,42.7265541 L318.33184,41.0559876 C319.115143,40.8364873 319.930648,41.2813505 320.170118,42.0587809 L322.094057,48.3047618 C322.337929,49.0964803 321.893811,49.935992 321.102093,50.1798637 C320.310374,50.4237354 319.470863,49.9796178 319.226991,49.1878994 L318.454138,46.6788665 C312.603081,57.2283181 305.683085,62.7756155 297.678534,63.1027624 C293.437168,63.2761075 290.534795,61.2487993 286.554908,56.4923156 C286.232927,56.1075065 285.330092,55.0065316 284.851201,54.4225685 C284.317926,54.5948975 283.749031,54.6879995 283.158391,54.6879995 C280.120825,54.6879995 277.658391,52.2255657 277.658391,49.1879995 C277.658391,48.6905225 277.724439,48.2084719 277.848244,47.750138 C275.261717,46.2102356 272.563849,45.7669033 269.06839,46.2710291 C263.107296,47.1307564 258.426924,51.9388169 250.892673,63.2146086 C250.558535,63.714681 248.840142,66.3007018 248.35645,67.0227767 C247.381004,68.4789594 246.59119,69.6321116 245.828753,70.7044828 C243.227573,74.3630525 240.914317,77.0730371 238.649683,78.8758703 C238.655463,78.9791778 238.658391,79.0832467 238.658391,79.1879995 C238.658391,82.2255657 236.195957,84.6879995 233.158391,84.6879995 C230.957959,84.6879995 229.059337,83.395802 228.179966,81.5288505 C225.137912,81.3575397 222.388831,80.8987255 218.728614,80.0793835 C218.324059,79.9888235 216.867297,79.6585815 216.938611,79.6746901 C210.355922,78.1877667 206.105051,77.6586254 198.977133,77.847376 C188.643317,78.1210204 178.163986,90.7099754 167.889155,115.881798 C167.576079,116.648789 166.700512,117.016759 165.933521,116.703683 C165.16653,116.390607 164.79856,115.51504 165.111636,114.748049 C175.803771,88.5538913 186.949127,75.1648317 198.89772,74.8484273 C206.305211,74.6522734 210.792935,75.2108977 217.599609,76.7484158 C217.531929,76.7331279 218.98407,77.0623226 219.383948,77.1518354 C222.625618,77.8774854 225.086608,78.3034816 227.702055,78.4916425 C228.044299,75.7828426 230.356707,73.6879995 233.158391,73.6879995 C234.94784,73.6879995 236.537691,74.542577 237.542092,75.8658793 C239.315299,74.287705 241.222323,72.0061595 243.383739,68.96612 C244.127522,67.9199861 244.90273,66.7881579 245.863984,65.353161 C246.343812,64.6368554 248.060893,62.0528091 248.398265,61.5478966 C256.427494,49.5313188 261.487431,44.3333385 268.640152,43.3017511 C272.948423,42.680399 276.27909,43.2770612 279.407176,45.1657351 C280.389742,44.2489851 281.708554,43.6879995 283.158391,43.6879995 C286.195957,43.6879995 288.658391,46.1504334 288.658391,49.1879995 C288.658391,50.5438474 288.167783,51.7851075 287.354407,52.7439393 L287.354407,52.7439393 Z M233.158391,81.6879995 C234.539103,81.6879995 235.658391,80.5687114 235.658391,79.1879995 C235.658391,77.8072877 234.539103,76.6879995 233.158391,76.6879995 C231.777679,76.6879995 230.658391,77.8072877 230.658391,79.1879995 C230.658391,80.5687114 231.777679,81.6879995 233.158391,81.6879995 Z M283.158391,51.6879995 C284.539103,51.6879995 285.658391,50.5687114 285.658391,49.1879995 C285.658391,47.8072877 284.539103,46.6879995 283.158391,46.6879995 C281.777679,46.6879995 280.658391,47.8072877 280.658391,49.1879995 C280.658391,50.5687114 281.777679,51.6879995 283.158391,51.6879995 Z" id="Shape" fill="#FFFFFF" fill-rule="nonzero"></path>
                <path d="M273.261703,69.1331855 C278.415846,69.6050779 282.232395,72.5413937 286.865221,78.1477801 C287.000059,78.3109526 288.441066,80.0715844 288.855725,80.5671557 C292.286171,84.6669862 294.522748,86.2292352 297.556026,86.1052648 C304.181957,85.8344623 313.142057,76.0841131 323.983731,56.8108405 L321.212474,57.3074798 C320.397037,57.4536147 319.61753,56.9110389 319.471395,56.0956028 C319.32526,55.2801667 319.867836,54.5006593 320.683272,54.3545243 L326.762788,53.2650094 C327.488526,53.1349494 328.201178,53.5516006 328.443828,54.2478276 L330.525434,60.2205047 C330.798075,61.0027826 330.384932,61.8579629 329.602654,62.1306036 C328.820376,62.4032442 327.965196,61.9901016 327.692555,61.2078238 L326.644471,58.2005921 C315.266538,78.4570298 305.763367,88.7723344 297.678534,89.1027624 C293.437168,89.2761075 290.534795,87.2487993 286.554908,82.4923156 C286.127745,81.9818005 284.678246,80.2107934 284.552633,80.0587833 C280.602757,75.2788648 277.526772,72.7891639 273.564152,72.207143 C273.086256,74.7577818 270.847737,76.6879995 268.158391,76.6879995 C266.271466,76.6879995 264.606475,75.7377829 263.615826,74.2897556 C260.1418,76.4931061 256.890233,80.5075675 252.70607,86.9885218 C252.844728,86.7737502 250.421599,90.5524902 249.754129,91.5679557 C244.453663,99.6319039 240.670052,103.164997 235.35704,103.213046 C230.753864,103.254676 226.886965,101.550312 221.706937,97.839545 C221.126183,97.4235154 220.527214,96.9831484 219.772663,96.4199624 C219.478519,96.2004175 218.188534,95.2330685 217.842259,94.9747998 C217.510638,94.7274597 217.184567,94.4867826 216.863633,94.2526751 C215.886088,95.1442858 214.585735,95.6879995 213.158391,95.6879995 C210.120825,95.6879995 207.658391,93.2255657 207.658391,90.1879995 C207.658391,89.7365547 207.712782,89.2978134 207.815367,88.8779712 C204.952953,87.7237572 202.177934,87.2532933 198.927867,87.3393566 C188.4586,87.6165878 178.042179,97.09623 167.820284,116.027591 C167.426689,116.756545 166.516682,117.028407 165.787728,116.634812 C165.058774,116.241217 164.786912,115.331211 165.180507,114.602256 C175.85989,94.8236109 187.035312,84.6532255 198.848454,84.3404079 C202.720905,84.2378636 205.978583,84.8290127 209.324739,86.2442519 C210.315357,85.2811182 211.667609,84.6879995 213.158391,84.6879995 C216.195957,84.6879995 218.658391,87.1504334 218.658391,90.1879995 C218.658391,90.7109686 218.585401,91.2168898 218.449052,91.6961318 C218.837975,91.9785565 219.233364,92.2698121 219.635866,92.5700183 C219.986167,92.8312901 221.276703,93.7990524 221.567096,94.0157974 C222.307296,94.5682714 222.891667,94.9979063 223.454001,95.4007401 C228.163524,98.7744565 231.506165,100.24775 235.32991,100.213169 C239.260293,100.177624 242.482884,97.1684045 247.247198,89.9201397 C247.903699,88.9213618 250.315817,85.159794 250.185694,85.3613444 C254.837095,78.1566736 258.488809,73.7173532 262.660174,71.329406 C262.658988,71.2824146 262.658391,71.2352767 262.658391,71.1879995 C262.658391,68.1504334 265.120825,65.6879995 268.158391,65.6879995 C270.469521,65.6879995 272.447712,67.1134817 273.261703,69.1331855 L273.261703,69.1331855 Z M268.158391,73.6879995 C269.539103,73.6879995 270.658391,72.5687114 270.658391,71.1879995 C270.658391,69.8072877 269.539103,68.6879995 268.158391,68.6879995 C266.777679,68.6879995 265.658391,69.8072877 265.658391,71.1879995 C265.658391,72.5687114 266.777679,73.6879995 268.158391,73.6879995 Z M213.158391,92.6879995 C214.539103,92.6879995 215.658391,91.5687114 215.658391,90.1879995 C215.658391,88.8072877 214.539103,87.6879995 213.158391,87.6879995 C211.777679,87.6879995 210.658391,88.8072877 210.658391,90.1879995 C210.658391,91.5687114 211.777679,92.6879995 213.158391,92.6879995 Z" id="Shape" fill="#FFFFFF" fill-rule="nonzero"></path>
                <ellipse id="Shape" fill="#FFFFFF" fill-rule="nonzero" cx="171.2" cy="14.1860465" rx="4.2" ry="4.18604651"></ellipse>
                <ellipse id="Shape" fill="#FFFFFF" fill-rule="nonzero" cx="183.1" cy="14.1860465" rx="4.2" ry="4.18604651"></ellipse>
                <ellipse id="Shape" fill="#FFFFFF" fill-rule="nonzero" cx="195" cy="14.1860465" rx="4.2" ry="4.18604651"></ellipse>
                <path d="M116,143.597545 C111.878395,142.36503 107.951003,140.682665 104.274814,138.607437 L96.0416306,146.84062 C95.260582,147.621669 93.994252,147.621669 93.2132034,146.84062 L73.4142136,127.041631 C72.633165,126.260582 72.633165,124.994252 73.4142136,124.213203 L81.8625136,115.764903 C79.8677539,112.067938 78.2660359,108.127647 77.1133306,104 L65,104 C63.8954305,104 63,103.104569 63,102 L63,74 C63,72.8954305 63.8954305,72 65,72 L77.4024553,72 C78.5816833,68.0565885 80.1727056,64.2909598 82.1256095,60.7530265 L73.4142136,52.0416306 C72.633165,51.260582 72.633165,49.994252 73.4142136,49.2132034 L93.2132034,29.4142136 C93.994252,28.633165 95.260582,28.633165 96.0416306,29.4142136 L104.753026,38.1256095 C108.29096,36.1727056 112.056589,34.5816833 116,33.4024553 L116,21 C116,19.8954305 116.895431,19 118,19 L146,19 C147.104569,19 148,19.8954305 148,21 L148,33.1133306 C152.127647,34.2660359 156.067938,35.8677539 159.764903,37.8625136 L168.213203,29.4142136 C168.994252,28.633165 170.260582,28.633165 171.041631,29.4142136 L190.84062,49.2132034 C191.621669,49.994252 191.621669,51.260582 190.84062,52.0416306 L182.607437,60.2748138 C184.682665,63.9510034 186.36503,67.8783952 187.597545,72 L199,72 C200.104569,72 201,72.8954305 201,74 L201,102 C201,103.104569 200.104569,104 199,104 L187.886669,104 C186.751174,108.066021 185.179974,111.950238 183.226569,115.599152 L190.84062,123.213203 C191.621669,123.994252 191.621669,125.260582 190.84062,126.041631 L171.041631,145.84062 C170.260582,146.621669 168.994252,146.621669 168.213203,145.84062 L160.887848,138.515265 C156.869326,140.801027 152.548413,142.616459 148,143.886669 L148,155 C148,156.104569 147.104569,157 146,157 L118,157 C116.895431,157 116,156.104569 116,155 L116,143.597545 L116,143.597545 Z M132,123 C150.777681,123 166,107.777681 166,89 C166,70.2223185 150.777681,55 132,55 C113.222319,55 98,70.2223185 98,89 C98,107.777681 113.222319,123 132,123 Z" id="Shape" fill="url(#linearGradient-3)"></path>
                <path d="M197.898406,317 C199.002976,317 199.898406,317.895431 199.898406,319 C199.898406,320.104569 199.002976,321 197.898406,321 L191.898406,321 C190.793837,321 189.898406,320.104569 189.898406,319 C189.898406,317.895431 190.793837,317 191.898406,317 L197.898406,317 Z M181.898406,317 C183.002976,317 183.898406,317.895431 183.898406,319 C183.898406,320.104569 183.002976,321 181.898406,321 L175.898406,321 C174.793837,321 173.898406,320.104569 173.898406,319 C173.898406,317.895431 174.793837,317 175.898406,317 L181.898406,317 Z M165.898406,317 C167.002976,317 167.898406,317.895431 167.898406,319 C167.898406,320.104569 167.002976,321 165.898406,321 L159.898406,321 C158.793837,321 157.898406,320.104569 157.898406,319 C157.898406,317.895431 158.793837,317 159.898406,317 L165.898406,317 Z M149.898406,317 C151.002976,317 151.898406,317.895431 151.898406,319 C151.898406,320.104569 151.002976,321 149.898406,321 L143.898406,321 C142.793837,321 141.898406,320.104569 141.898406,319 C141.898406,317.895431 142.793837,317 143.898406,317 L149.898406,317 Z M133.898406,317 C135.002976,317 135.898406,317.895431 135.898406,319 C135.898406,320.104569 135.002976,321 133.898406,321 L127.898406,321 C126.793837,321 125.898406,320.104569 125.898406,319 C125.898406,317.895431 126.793837,317 127.898406,317 L133.898406,317 Z M117.898406,317 C119.002976,317 119.898406,317.895431 119.898406,319 C119.898406,320.104569 119.002976,321 117.898406,321 L115,321 C113.937554,321 112.877595,320.97847 111.820547,320.935519 C110.716888,320.890673 109.85855,319.959627 109.903396,318.855968 C109.948241,317.752309 110.879288,316.893971 111.982947,316.938817 C112.985894,316.97957 113.991709,317 115,317 L117.898406,317 Z M102.289684,315.897683 C103.377619,316.088658 104.104748,317.12542 103.913773,318.213355 C103.722798,319.301289 102.686036,320.028419 101.598101,319.837443 C99.5710412,319.481615 97.5634887,319.04514 95.5791426,318.529475 C94.5100806,318.251661 93.868647,317.159803 94.1464604,316.090741 C94.4242739,315.021679 95.5161321,314.380245 96.5851941,314.658059 C98.465778,315.14676 100.368425,315.560427 102.289684,315.897683 Z M87.3329004,311.575247 C88.3549525,311.994154 88.8438978,313.162283 88.4249905,314.184335 C88.0060831,315.206387 86.8379547,315.695332 85.8159026,315.276425 C83.9139949,314.496892 82.0451815,313.641406 80.2135521,312.712331 C79.2284642,312.212656 78.8349598,311.009017 79.3346353,310.023929 C79.8343109,309.038841 81.0379494,308.645337 82.0230373,309.145012 C83.759115,310.02562 85.5303583,310.836441 87.3329004,311.575247 Z M73.6674327,304.18007 C74.5773621,304.80625 74.8073858,306.051514 74.1812051,306.961443 C73.5550244,307.871372 72.3097611,308.101396 71.3998317,307.475215 C69.708181,306.311082 68.0634879,305.07977 66.4697825,303.784532 C65.6126033,303.087885 65.4824665,301.82826 66.1791139,300.97108 C66.8757612,300.113901 68.1353866,299.983764 68.9925658,300.680412 C70.5038318,301.908649 72.0633996,303.076232 73.6674327,304.18007 Z M61.8256154,294.015165 C62.582554,294.819601 62.5440494,296.085346 61.739613,296.842284 C60.9351766,297.599223 59.6694322,297.560718 58.9124937,296.756282 C57.505119,295.260595 56.1577018,293.709443 54.8737568,292.10673 C54.1831558,291.244672 54.3221492,289.985993 55.1842072,289.295392 C56.0462652,288.604791 57.3049441,288.743785 57.9955451,289.605843 C59.2131281,291.125718 60.4909328,292.596731 61.8256154,294.015165 Z M52.4585134,281.672196 C53.02937,282.617816 52.7255645,283.847163 51.7799449,284.41802 C50.8343253,284.988876 49.6049784,284.685071 49.0341217,283.739451 C47.9727682,281.981327 46.9820365,280.181186 46.0646098,278.34315 C45.571316,277.35485 45.9725971,276.153782 46.9608962,275.660488 C47.9491952,275.167195 49.1502635,275.568476 49.6435573,276.556775 C50.5131904,278.299058 51.4523546,280.005502 52.4585134,281.672196 Z M45.8811979,267.549323 C46.2373309,268.594905 45.6784215,269.73122 44.6328389,270.087353 C43.5872562,270.443486 42.4509412,269.884577 42.0948082,268.838994 C41.4331976,266.89655 40.8493898,264.92617 40.3451409,262.931732 C40.0743945,261.860859 40.7230257,260.773261 41.7938993,260.502514 C42.8647728,260.231768 43.9523707,260.880399 44.2231171,261.951273 C44.7009764,263.841332 45.2542212,265.708561 45.8811979,267.549323 Z M42.4700114,252.331155 C42.5946601,253.428669 41.8059972,254.419427 40.7084834,254.544076 C39.6109696,254.668724 38.6202112,253.880062 38.4955625,252.782548 C38.2645858,250.748831 38.1138985,248.700431 38.0444509,246.640617 C38.007231,245.536675 38.8719802,244.61158 39.9759225,244.57436 C41.0798647,244.53714 42.0049594,245.401889 42.0421794,246.505832 C42.1080582,248.459796 42.2509758,250.402578 42.4700114,252.331155 Z M42,236.535159 C42,237.639729 41.1045695,238.535159 40,238.535159 C38.8954305,238.535159 38,237.639729 38,236.535159 L38,230.535159 C38,229.43059 38.8954305,228.535159 40,228.535159 C41.1045695,228.535159 42,229.43059 42,230.535159 L42,236.535159 Z M42,220.535159 C42,221.639729 41.1045695,222.535159 40,222.535159 C38.8954305,222.535159 38,221.639729 38,220.535159 L38,214.535159 C38,213.43059 38.8954305,212.535159 40,212.535159 C41.1045695,212.535159 42,213.43059 42,214.535159 L42,220.535159 Z M42,204.535159 C42,205.639729 41.1045695,206.535159 40,206.535159 C38.8954305,206.535159 38,205.639729 38,204.535159 L38,198.535159 C38,197.43059 38.8954305,196.535159 40,196.535159 C41.1045695,196.535159 42,197.43059 42,198.535159 L42,204.535159 Z M41.5,177 C39.0147186,177 37,174.985281 37,172.5 C37,170.014719 39.0147186,168 41.5,168 C43.9852814,168 46,170.014719 46,172.5 C46,174.985281 43.9852814,177 41.5,177 Z M41.5,180 C45.6421356,180 49,176.642136 49,172.5 C49,168.357864 45.6421356,165 41.5,165 C37.3578644,165 34,168.357864 34,172.5 C34,176.642136 37.3578644,180 41.5,180 Z M41.5,183 C35.7010101,183 31,178.29899 31,172.5 C31,166.70101 35.7010101,162 41.5,162 C47.2989899,162 52,166.70101 52,172.5 C52,178.29899 47.2989899,183 41.5,183 Z" id="Shape" fill="#D4DFFF" fill-rule="nonzero"></path>
                <path d="M36.4543771,153.382876 C34.3040036,153.433603 32.176478,153.240406 30.1077057,152.821579 L27.4646912,158.008787 C27.2139591,158.500877 26.6117835,158.696536 26.1196941,158.445804 L13.6456028,152.089937 C13.1535135,151.839204 12.9578548,151.237029 13.2085868,150.744939 L15.920658,145.4222 C14.4008809,143.972396 13.0304102,142.346155 11.8445098,140.561445 L6.08427878,142.433058 C5.55902477,142.603723 4.99487064,142.316272 4.82420527,141.791018 L0.497967345,128.476227 C0.327301972,127.950973 0.614752857,127.386819 1.14000687,127.216153 L7.03772483,125.299869 C6.98919047,123.242464 7.1639449,121.205975 7.54596513,119.221847 L2.05746552,116.425317 C1.5653762,116.174585 1.36971746,115.572409 1.62044949,115.08032 L7.97631649,102.606229 C8.22704852,102.114139 8.8292242,101.918481 9.32131351,102.169213 L14.8098131,104.965743 C16.1904601,103.490441 17.7352965,102.152044 19.4282994,100.981997 L17.5120147,95.0842788 C17.3413493,94.5590248 17.6288002,93.9948706 18.1540542,93.8242053 L31.4688454,89.4979673 C31.9940994,89.327302 32.5582536,89.6147529 32.7289189,90.1400069 L34.6005314,95.9002379 C36.7647919,95.8096481 38.9089034,95.9668413 40.9964362,96.3532552 L44.6941632,90.6592549 C44.9949591,90.1960699 45.6142879,90.0644275 46.0774729,90.3652234 L57.8188608,97.9901699 C58.2820458,98.2909657 58.4136882,98.9102945 58.1128923,99.3734795 L55.3784871,103.584094 C56.8839939,104.982767 58.2483996,106.551621 59.4386038,108.273791 L64.8607935,106.512015 C65.3860475,106.341349 65.9502016,106.6288 66.120867,107.154054 L70.4471049,120.468845 C70.6177703,120.994099 70.3303194,121.558254 69.8050654,121.728919 L64.5203626,123.446023 C64.6086373,125.554974 64.4616318,127.644793 64.096521,129.681773 L68.893653,132.126034 C69.3857423,132.376766 69.5814011,132.978941 69.330669,133.471031 L62.974802,145.945122 C62.72407,146.437211 62.1218943,146.63287 61.629805,146.382138 L57.0145616,144.030554 C55.4568107,145.738394 53.6825941,147.269301 51.7159535,148.576091 L53.4330576,153.860793 C53.6037229,154.386047 53.316272,154.950202 52.791018,155.120867 L39.4762268,159.447105 C38.9509728,159.61777 38.3868187,159.330319 38.2161533,158.805065 L36.4543771,153.382876 L36.4543771,153.382876 Z M40.8803335,141.116025 C49.8096517,138.214714 54.6963167,128.624094 51.7950054,119.694775 C48.893694,110.765457 39.3030739,105.878792 30.3737557,108.780104 C21.4444375,111.681415 16.5577725,121.272035 19.4590838,130.201353 C22.3603952,139.130671 31.9510153,144.017337 40.8803335,141.116025 Z" id="Shape" fill="url(#linearGradient-3)"></path>
                <path d="M89.2565006,270.537909 C54.2549895,230.273277 58.5215924,169.258012 98.786225,134.256501 C139.050858,99.2549895 200.066123,103.521592 235.067634,143.786225 C270.069145,184.050858 265.802542,245.066123 225.537909,280.067634 C185.273277,315.069145 124.258012,310.802542 89.2565006,270.537909 Z" id="Shape" fill="url(#linearGradient-4)"></path>
                <path d="M94.3857615,138.323781 C121.715309,156.634637 131.511581,174.081153 123.774579,190.663327 C112.146836,215.584252 80.2584226,222.69861 94.0550136,247.274276 C103.252741,263.658054 105.747544,274.905667 101.539422,281.017114 L99.2771563,280.508342 C95.7498802,277.476502 92.3983859,274.152235 89.2565006,270.537909 C55.5746085,231.791325 58.2556921,173.829284 94.3857615,138.323781 L94.3857615,138.323781 Z" id="Shape" fill="url(#linearGradient-5)"></path>
                <path d="M251.283211,169.823129 C266.96143,207.22674 257.818006,252.006974 225.537909,280.067634 C197.232535,304.67312 158.672492,309.87286 126.103939,296.802894 L125.905651,293.791014 C137.155293,279.607853 148.124975,271.184315 158.814697,268.520402 C174.849279,264.524531 165.822001,292.337464 183.750692,287.343459 C201.679382,282.349453 186.606676,268.648312 207.936423,262.722927 C229.266171,256.797542 223.069571,233.181021 212.826757,211.625654 C205.998215,197.25541 218.265664,182.659739 249.629104,167.838641 L251.283211,169.823129 L251.283211,169.823129 Z" id="Shape" fill="url(#linearGradient-6)"></path>
                <path d="M181.857316,143.717508 C193.977309,154.256125 204.734464,140.734103 208.540117,156.145553 C212.34577,171.557004 181.44747,169.519804 176.17739,184.278043 C170.907309,199.036282 155.537697,187.029126 152.870268,172.124516 C150.202839,157.219905 121.66055,146.205715 128.618375,133.083403 C135.5762,119.96109 163.701297,115.215273 170.615719,123.169405 C177.53014,131.123537 169.737322,133.178891 181.857316,143.717508 Z" id="Shape" fill="url(#linearGradient-7)"></path>
                <path d="M253,335 C206.608081,335 169,297.391919 169,251 C169,204.608081 206.608081,167 253,167 C299.391919,167 337,204.608081 337,251 C337,297.391919 299.391919,335 253,335 Z" id="Shape" fill="url(#linearGradient-8)"></path>
                <path d="M253,322.2 C292.322674,322.2 324.2,290.322674 324.2,251 C324.2,211.677326 292.322674,179.8 253,179.8 C213.677326,179.8 181.8,211.677326 181.8,251 C181.8,290.322674 213.677326,322.2 253,322.2 Z" id="Shape" fill="url(#linearGradient-9)" opacity="0.965587798"></path>
                <path d="M257.4,249 L279.8,249 C281.567311,249 283,250.432689 283,252.2 C283,253.967311 281.567311,255.4 279.8,255.4 L255.750403,255.4 C255.291103,255.654865 254.762501,255.8 254.2,255.8 C252.432689,255.8 251,254.367311 251,252.6 L251,210.2 C251,208.432689 252.432689,207 254.2,207 C255.967311,207 257.4,208.432689 257.4,210.2 L257.4,249 Z M253,194.2 C250.790861,194.2 249,192.409139 249,190.2 C249,187.990861 250.790861,186.2 253,186.2 C255.209139,186.2 257,187.990861 257,190.2 C257,192.409139 255.209139,194.2 253,194.2 Z M253,314.2 C250.790861,314.2 249,312.409139 249,310.2 C249,307.990861 250.790861,306.2 253,306.2 C255.209139,306.2 257,307.990861 257,310.2 C257,312.409139 255.209139,314.2 253,314.2 Z M309.4,250.6 C309.4,248.390861 311.190861,246.6 313.4,246.6 C315.609139,246.6 317.4,248.390861 317.4,250.6 C317.4,252.809139 315.609139,254.6 313.4,254.6 C311.190861,254.6 309.4,252.809139 309.4,250.6 Z M188.6,250.6 C188.6,248.390861 190.390861,246.6 192.6,246.6 C194.809139,246.6 196.6,248.390861 196.6,250.6 C196.6,252.809139 194.809139,254.6 192.6,254.6 C190.390861,254.6 188.6,252.809139 188.6,250.6 Z" id="Shape" fill="#FFFFFF" fill-rule="nonzero"></path>
                <path d="M283,142 L316,142 C317.104569,142 318,142.895431 318,144 L318,145.305556 C318,146.410125 317.104569,147.305556 316,147.305556 L283,147.305556 C281.895431,147.305556 281,146.410125 281,145.305556 L281,144 C281,142.895431 281.895431,142 283,142 Z M283,152 L336,152 C337.104569,152 338,152.895431 338,154 L338,155.305556 C338,156.410125 337.104569,157.305556 336,157.305556 L283,157.305556 C281.895431,157.305556 281,156.410125 281,155.305556 L281,154 C281,152.895431 281.895431,152 283,152 Z" id="Shape" fill="url(#linearGradient-10)"></path>
            </g>
        </g>
    </g>
</svg>