<?xml version="1.0" encoding="UTF-8"?>
<svg width="291px" height="376px" viewBox="0 0 291 376" version="1.1" xmlns="http://www.w3.org/2000/svg" xmlns:xlink="http://www.w3.org/1999/xlink">
  <title>data analytic, office, good, accept@2x</title>
  <defs>
    <linearGradient x1="78.2129257%" y1="41.4441187%" x2="43.177023%" y2="58.5558813%" id="linearGradient-1">
      <stop stop-color="#17B7BD" offset="0%"></stop>
      <stop stop-color="#9DEB93" offset="100%"></stop>
    </linearGradient>
    <linearGradient x1="50%" y1="0%" x2="50%" y2="100%" id="linearGradient-2">
      <stop stop-color="#FB65BC" offset="0%"></stop>
      <stop stop-color="#FCAFA9" offset="100%"></stop>
    </linearGradient>
    <linearGradient x1="50%" y1="-108.036091%" x2="50%" y2="127.882425%" id="linearGradient-3">
      <stop stop-color="#FFF2F2" stop-opacity="0.139407835" offset="0%"></stop>
      <stop stop-color="#FEFAF9" offset="100%"></stop>
    </linearGradient>
    <linearGradient x1="50%" y1="0%" x2="50%" y2="100%" id="linearGradient-4">
      <stop stop-color="#966AFF" offset="0%"></stop>
      <stop stop-color="#E885E0" offset="100%"></stop>
    </linearGradient>
    <linearGradient x1="50%" y1="-108.036091%" x2="50%" y2="127.882425%" id="linearGradient-5">
      <stop stop-color="#FFF2F2" stop-opacity="0.139407835" offset="0%"></stop>
      <stop stop-color="#FEFAF9" offset="100%"></stop>
    </linearGradient>
    <linearGradient x1="50%" y1="-42.9786065%" x2="50%" y2="100%" id="linearGradient-6">
      <stop stop-color="#5174D0" offset="0%"></stop>
      <stop stop-color="#1F2480" offset="100%"></stop>
    </linearGradient>
    <linearGradient x1="50%" y1="0%" x2="50%" y2="100%" id="linearGradient-7">
      <stop stop-color="#FFB36D" offset="0%"></stop>
      <stop stop-color="#E73E79" offset="100%"></stop>
    </linearGradient>
    <linearGradient x1="50%" y1="-30.9601329%" x2="50%" y2="127.882425%" id="linearGradient-8">
      <stop stop-color="#FFF2F2" stop-opacity="0.139407835" offset="0%"></stop>
      <stop stop-color="#FEFAF9" offset="100%"></stop>
    </linearGradient>
    <linearGradient x1="50%" y1="-30.9601329%" x2="50%" y2="127.882425%" id="linearGradient-9">
      <stop stop-color="#FFF2F2" stop-opacity="0.139407835" offset="0%"></stop>
      <stop stop-color="#FEFAF9" offset="100%"></stop>
    </linearGradient>
  </defs>
  <g id="Page-1" stroke="none" stroke-width="1" fill="none" fill-rule="evenodd">
    <g id="Business---Icon-Illustration" transform="translate(-112.000000, -994.000000)">
      <g id="data-analytic,-office,-good,-accept" transform="translate(112.000000, 994.000000)">
        <path d="M66,254 C67.1045695,254 68,254.895431 68,256 C68,257.104569 67.1045695,258 66,258 L60,258 C58.8954305,258 58,257.104569 58,256 C58,254.895431 58.8954305,254 60,254 L66,254 Z M50,254 C51.1045695,254 52,254.895431 52,256 C52,257.104569 51.1045695,258 50,258 L44,258 C42.8954305,258 42,257.104569 42,256 C42,254.895431 42.8954305,254 44,254 L50,254 Z M34,254 C35.1045695,254 36,254.895431 36,256 C36,257.104569 35.1045695,258 34,258 L31,258 C29.9347341,258 28.8757828,257.953257 27.825891,257.860408 C26.7256159,257.763102 25.9125484,256.792271 26.0098539,255.691996 C26.1071594,254.591721 27.0779904,253.778653 28.1782655,253.875959 C29.1109955,253.958447 30.0523744,254 31,254 L34,254 Z M19.0838752,251.644304 C20.1023656,252.071798 20.5814629,253.244 20.1539689,254.26249 C19.7264749,255.28098 18.554273,255.760078 17.5357826,255.332584 C15.5404444,254.495074 13.6541445,253.472973 11.9089433,252.285407 C10.9957474,251.664 10.759206,250.419958 11.3806133,249.506762 C12.0020206,248.593566 13.2460623,248.357025 14.1592582,248.978432 C15.6827125,250.015105 17.3336702,250.909685 19.0838752,251.644304 Z M7.59799176,242.484727 C8.21818127,243.398751 7.97998185,244.642476 7.06595847,245.262665 C6.15193508,245.882855 4.90820979,245.644656 4.28802028,244.730632 C3.04905283,242.904666 2.0600333,240.95458 1.34561561,238.916496 C0.98022481,237.874112 1.52903582,236.732886 2.57141932,236.367495 C3.61380281,236.002104 4.75502936,236.550915 5.12042015,237.593298 C5.71920607,239.301509 6.55120694,240.941996 7.59799176,242.484727 Z M4,228.414149 C4,229.518718 3.1045695,230.414149 2,230.414149 C0.8954305,230.414149 7.10542736e-15,229.518718 7.10542736e-15,228.414149 L7.10542736e-15,222.414149 C7.10542736e-15,221.309579 0.8954305,220.414149 2,220.414149 C3.1045695,220.414149 4,221.309579 4,222.414149 L4,228.414149 Z M4,212.414149 C4,213.518718 3.1045695,214.414149 2,214.414149 C0.8954305,214.414149 7.10542736e-15,213.518718 7.10542736e-15,212.414149 L7.10542736e-15,206.414149 C7.10542736e-15,205.309579 0.8954305,204.414149 2,204.414149 C3.1045695,204.414149 4,205.309579 4,206.414149 L4,212.414149 Z M4,196.414149 C4,197.518718 3.1045695,198.414149 2,198.414149 C0.8954305,198.414149 7.10542736e-15,197.518718 7.10542736e-15,196.414149 L7.10542736e-15,190.414149 C7.10542736e-15,189.309579 0.8954305,188.414149 2,188.414149 C3.1045695,188.414149 4,189.309579 4,190.414149 L4,196.414149 Z M4,180.414149 C4,181.518718 3.1045695,182.414149 2,182.414149 C0.8954305,182.414149 7.10542736e-15,181.518718 7.10542736e-15,180.414149 L7.10542736e-15,174.414149 C7.10542736e-15,173.309579 0.8954305,172.414149 2,172.414149 C3.1045695,172.414149 4,173.309579 4,174.414149 L4,180.414149 Z M4,164.414149 C4,165.518718 3.1045695,166.414149 2,166.414149 C0.8954305,166.414149 7.10542736e-15,165.518718 7.10542736e-15,164.414149 L7.10542736e-15,158.414149 C7.10542736e-15,157.309579 0.8954305,156.414149 2,156.414149 C3.1045695,156.414149 4,157.309579 4,158.414149 L4,164.414149 Z M5.52591594,149.345609 C5.10317133,150.36608 3.93321403,150.850632 2.91274317,150.427888 C1.89227231,150.005143 1.40771945,148.835186 1.83046406,147.814715 C2.65431907,145.825997 3.74388932,143.933751 5.07291557,142.17346 C5.73847705,141.291927 6.99264551,141.116846 7.87417923,141.782408 C8.75571294,142.447969 8.93079303,143.702138 8.26523155,144.583672 C7.13835058,146.076221 6.218575,147.673586 5.52591594,149.345609 Z M15.0967346,138.411578 C14.1587265,138.994857 12.9254795,138.707293 12.3422004,137.769284 C11.7589212,136.831276 12.0464858,135.598029 12.9844939,135.01475 C14.7765056,133.900428 16.7000564,132.954813 18.7235447,132.195558 C19.7577103,131.807517 20.9106361,132.331305 21.2986766,133.365471 C21.6867172,134.399636 21.1629294,135.552562 20.1287639,135.940602 C18.3509218,136.607686 16.6642668,137.436844 15.0967346,138.411578 Z M29.3457651,134.042437 C28.2426553,134.099205 27.3023887,133.250977 27.2456209,132.147868 C27.1888532,131.044758 28.037081,130.104491 29.1401907,130.047724 C29.7576682,130.015947 30.377784,130 31,130 L35.1717029,130 C36.2762724,130 37.1717029,130.895431 37.1717029,132 C37.1717029,133.104569 36.2762724,134 35.1717029,134 L31,134 C30.4463463,134 29.894778,134.014184 29.3457651,134.042437 Z M45.1717029,134 C44.0671334,134 43.1717029,133.104569 43.1717029,132 C43.1717029,130.895431 44.0671334,130 45.1717029,130 L51.1717029,130 C52.2762724,130 53.1717029,130.895431 53.1717029,132 C53.1717029,133.104569 52.2762724,134 51.1717029,134 L45.1717029,134 Z M61.1717029,134 C60.0671334,134 59.1717029,133.104569 59.1717029,132 C59.1717029,130.895431 60.0671334,130 61.1717029,130 L66,130 C67.1045695,130 68,130.895431 68,132 C68,133.104569 67.1045695,134 66,134 L61.1717029,134 Z M82.5,137 C80.0147186,137 78,134.985281 78,132.5 C78,130.014719 80.0147186,128 82.5,128 C84.9852814,128 87,130.014719 87,132.5 C87,134.985281 84.9852814,137 82.5,137 Z M82.5,140 C86.6421356,140 90,136.642136 90,132.5 C90,128.357864 86.6421356,125 82.5,125 C78.3578644,125 75,128.357864 75,132.5 C75,136.642136 78.3578644,140 82.5,140 Z M82.5,143 C76.7010101,143 72,138.29899 72,132.5 C72,126.70101 76.7010101,122 82.5,122 C88.2989899,122 93,126.70101 93,132.5 C93,138.29899 88.2989899,143 82.5,143 Z M205,170 C203.895431,170 203,169.104569 203,168 C203,166.895431 203.895431,166 205,166 L211,166 C212.104569,166 213,166.895431 213,168 C213,169.104569 212.104569,170 211,170 L205,170 Z M221,170 C219.895431,170 219,169.104569 219,168 C219,166.895431 219.895431,166 221,166 L227,166 C228.104569,166 229,166.895431 229,168 C229,169.104569 228.104569,170 227,170 L221,170 Z M237,170 C235.895431,170 235,169.104569 235,168 C235,166.895431 235.895431,166 237,166 L240,166 C241.065266,166 242.124217,166.046743 243.174109,166.139592 C244.274384,166.236898 245.087452,167.207729 244.990146,168.308004 C244.892841,169.408279 243.92201,170.221347 242.821734,170.124041 C241.889005,170.041553 240.947626,170 240,170 L237,170 Z M251.916125,172.355696 C250.897634,171.928202 250.418537,170.756 250.846031,169.73751 C251.273525,168.71902 252.445727,168.239922 253.464217,168.667416 C255.459556,169.504926 257.345856,170.527027 259.091057,171.714593 C260.004253,172.336 260.240794,173.580042 259.619387,174.493238 C258.997979,175.406434 257.753938,175.642975 256.840742,175.021568 C255.317287,173.984895 253.66633,173.090315 251.916125,172.355696 Z M263.402008,181.515273 C262.781819,180.601249 263.020018,179.357524 263.934042,178.737335 C264.848065,178.117145 266.09179,178.355344 266.71198,179.269368 C267.950947,181.095334 268.939967,183.04542 269.654384,185.083504 C270.019775,186.125888 269.470964,187.267114 268.428581,187.632505 C267.386197,187.997896 266.244971,187.449085 265.87958,186.406702 C265.280794,184.698491 264.448793,183.058004 263.402008,181.515273 Z M267,195.585851 C267,194.481282 267.895431,193.585851 269,193.585851 C270.104569,193.585851 271,194.481282 271,195.585851 L271,201.585851 C271,202.690421 270.104569,203.585851 269,203.585851 C267.895431,203.585851 267,202.690421 267,201.585851 L267,195.585851 Z M267,211.585851 C267,210.481282 267.895431,209.585851 269,209.585851 C270.104569,209.585851 271,210.481282 271,211.585851 L271,217.585851 C271,218.690421 270.104569,219.585851 269,219.585851 C267.895431,219.585851 267,218.690421 267,217.585851 L267,211.585851 Z M267,227.585851 C267,226.481282 267.895431,225.585851 269,225.585851 C270.104569,225.585851 271,226.481282 271,227.585851 L271,233.585851 C271,234.690421 270.104569,235.585851 269,235.585851 C267.895431,235.585851 267,234.690421 267,233.585851 L267,227.585851 Z M267,243.585851 C267,242.481282 267.895431,241.585851 269,241.585851 C270.104569,241.585851 271,242.481282 271,243.585851 L271,249.585851 C271,250.690421 270.104569,251.585851 269,251.585851 C267.895431,251.585851 267,250.690421 267,249.585851 L267,243.585851 Z M267,259.585851 C267,258.481282 267.895431,257.585851 269,257.585851 C270.104569,257.585851 271,258.481282 271,259.585851 L271,265.585851 C271,266.690421 270.104569,267.585851 269,267.585851 C267.895431,267.585851 267,266.690421 267,265.585851 L267,259.585851 Z M265.474084,274.654391 C265.896829,273.63392 267.066786,273.149368 268.087257,273.572112 C269.107728,273.994857 269.592281,275.164814 269.169536,276.185285 C268.345681,278.174003 267.256111,280.066249 265.927084,281.82654 C265.261523,282.708073 264.007354,282.883154 263.125821,282.217592 C262.244287,281.552031 262.069207,280.297862 262.734768,279.416328 C263.861649,277.923779 264.781425,276.326414 265.474084,274.654391 Z M255.903265,285.588422 C256.841273,285.005143 258.07452,285.292707 258.6578,286.230716 C259.241079,287.168724 258.953514,288.401971 258.015506,288.98525 C256.223494,290.099572 254.299944,291.045187 252.276455,291.804442 C251.24229,292.192483 250.089364,291.668695 249.701323,290.634529 C249.313283,289.600364 249.837071,288.447438 250.871236,288.059398 C252.649078,287.392314 254.335733,286.563156 255.903265,285.588422 Z M241.654235,289.957563 C242.757345,289.900795 243.697611,290.749023 243.754379,291.852132 C243.811147,292.955242 242.962919,293.895509 241.859809,293.952276 C241.242332,293.984053 240.622216,294 240,294 L235.828297,294 C234.723728,294 233.828297,293.104569 233.828297,292 C233.828297,290.895431 234.723728,290 235.828297,290 L240,290 C240.553654,290 241.105222,289.985816 241.654235,289.957563 Z M225.828297,290 C226.932867,290 227.828297,290.895431 227.828297,292 C227.828297,293.104569 226.932867,294 225.828297,294 L219.828297,294 C218.723728,294 217.828297,293.104569 217.828297,292 C217.828297,290.895431 218.723728,290 219.828297,290 L225.828297,290 Z M209.828297,290 C210.932867,290 211.828297,290.895431 211.828297,292 C211.828297,293.104569 210.932867,294 209.828297,294 L205,294 C203.895431,294 203,293.104569 203,292 C203,290.895431 203.895431,290 205,290 L209.828297,290 Z" id="Shape" fill="#D4DFFF" fill-rule="nonzero"></path>
        <path d="M74,154 L87,154 C88.1045695,154 89,154.895431 89,156 L89,157.305556 C89,158.410125 88.1045695,159.305556 87,159.305556 L74,159.305556 C72.8954305,159.305556 72,158.410125 72,157.305556 L72,156 C72,154.895431 72.8954305,154 74,154 Z M54,164 L87,164 C88.1045695,164 89,164.895431 89,166 L89,167.305556 C89,168.410125 88.1045695,169.305556 87,169.305556 L54,169.305556 C52.8954305,169.305556 52,168.410125 52,167.305556 L52,166 C52,164.895431 52.8954305,164 54,164 Z" id="Shape" fill="url(#linearGradient-1)"></path>
        <path d="M108,48 L202,48 C204.209139,48 206,49.790861 206,52 L206,219 L104,219 L104,52 C104,49.790861 105.790861,48 108,48 Z" id="Shape" fill="url(#linearGradient-2)"></path>
        <path d="M122,65 L187,65 C188.104569,65 189,65.8954305 189,67 L189,79 C189,80.1045695 188.104569,81 187,81 L122,81 C120.895431,81 120,80.1045695 120,79 L120,67 C120,65.8954305 120.895431,65 122,65 Z M122,98 L187,98 C188.104569,98 189,98.8954305 189,100 L189,112 C189,113.104569 188.104569,114 187,114 L122,114 C120.895431,114 120,113.104569 120,112 L120,100 C120,98.8954305 120.895431,98 122,98 Z M122,130 L187,130 C188.104569,130 189,130.895431 189,132 L189,144 C189,145.104569 188.104569,146 187,146 L122,146 C120.895431,146 120,145.104569 120,144 L120,132 C120,130.895431 120.895431,130 122,130 Z M122,163 L187,163 C188.104569,163 189,163.895431 189,165 L189,177 C189,178.104569 188.104569,179 187,179 L122,179 C120.895431,179 120,178.104569 120,177 L120,165 C120,163.895431 120.895431,163 122,163 Z" id="Shape" fill="url(#linearGradient-3)" opacity="0.965587798"></path>
        <path d="M122,32 L187,32 C188.104569,32 189,32.8954305 189,34 L189,48 L120,48 L120,34 C120,32.8954305 120.895431,32 122,32 Z" id="Shape" fill="#FC8CB2" fill-rule="nonzero"></path>
        <path d="M139,16 L171,16 C172.104569,16 173,16.8954305 173,18 L173,32 L137,32 L137,18 C137,16.8954305 137.895431,16 139,16 Z" id="Shape" fill="#FB75B8" fill-rule="nonzero"></path>
        <path d="M154,0 L157,0 C158.104569,0 159,0.8954305 159,2 L159,16 L152,16 L152,2 C152,0.8954305 152.895431,0 154,0 Z" id="Shape" fill="#FB68BB" fill-rule="nonzero"></path>
        <path d="M206,83 L287,83 C289.209139,83 291,84.790861 291,87 L291,219 L206,219 L206,83 Z" id="Shape" fill="url(#linearGradient-4)"></path>
        <path d="M224,114 L236,114 C237.104569,114 238,114.895431 238,116 L238,201 C238,202.104569 237.104569,203 236,203 L224,203 C222.895431,203 222,202.104569 222,201 L222,116 C222,114.895431 222.895431,114 224,114 Z M257,114 L269,114 C270.104569,114 271,114.895431 271,116 L271,201 C271,202.104569 270.104569,203 269,203 L257,203 C255.895431,203 255,202.104569 255,201 L255,116 C255,114.895431 255.895431,114 257,114 Z" id="Shape" fill="url(#linearGradient-5)" opacity="0.965587798"></path>
        <path d="M224,67 L272,67 C273.104569,67 274,67.8954305 274,69 L274,83 L222,83 L222,69 C222,67.8954305 222.895431,67 224,67 Z" id="Shape" fill="#CF7CE9" fill-rule="nonzero"></path>
        <circle id="Shape" fill="url(#linearGradient-6)" cx="51.5" cy="83.5" r="28.5"></circle>
        <path d="M63.6033904,70.0322739 C65.4796345,68.2294993 68.4558898,68.295516 70.2510425,70.1797262 C72.0461953,72.0639365 71.9804578,75.0528283 70.1042136,76.8556029 L49.172913,96.9672805 C46.9879144,99.0667195 43.4260648,98.5787421 41.8808853,95.9682647 L33.1608591,81.2363631 C31.8340235,78.994763 32.5679039,76.0974075 34.8000269,74.7649385 C37.0321498,73.4324695 39.9172557,74.1694658 41.2440913,76.4110658 L46.9434865,86.0398132 L63.6033904,70.0322739 Z" id="Shape" fill="#FFFFFF" fill-rule="nonzero"></path>
        <path d="M39,181 L234,181 C239.522847,181 244,185.477153 244,191 L244,314 C244,319.522847 239.522847,324 234,324 L39,324 C33.4771525,324 29,319.522847 29,314 L29,191 C29,185.477153 33.4771525,181 39,181 Z" id="Shape" fill="url(#linearGradient-7)"></path>
        <path d="M43,191 L230,191 C232.209139,191 234,192.790861 234,195 L234,314 L39,314 L39,195 C39,192.790861 40.790861,191 43,191 Z" id="Shape" fill="url(#linearGradient-8)" opacity="0.965587798"></path>
        <path d="M200.315068,240.761571 C204.861915,237.976921 209.100839,232.021721 212.976089,222.791514 L208.191282,223.550473 C207.373083,223.680254 206.604594,223.122182 206.474813,222.303984 C206.345032,221.485786 206.903104,220.717296 207.721302,220.587515 L215.796151,219.306696 C216.511412,219.193242 217.205599,219.607023 217.446049,220.290144 L220.049721,227.687204 C220.324775,228.468636 219.914275,229.325088 219.132842,229.600142 C218.35141,229.875197 217.494958,229.464696 217.219904,228.683264 L215.640076,224.194956 C211.221531,234.63622 206.187273,241.314973 200.470941,244.10688 C199.841965,246.451855 197.701746,248.178342 195.158285,248.178342 C192.713619,248.178342 190.641478,246.583373 189.925698,244.377272 C188.515175,243.625788 187.054311,242.533321 185.495338,241.115251 C184.181373,239.920045 182.804223,238.504639 181.123342,236.653631 C180.133555,235.563663 176.51251,231.463861 176.651901,231.62045 C170.244523,224.422518 165.589933,220.402301 161.095833,219.104075 C160.199449,220.925198 158.325211,222.178342 156.158285,222.178342 C154.310043,222.178342 152.674729,221.266686 151.677493,219.868524 C147.782906,221.334876 144.343419,224.073897 139.857258,228.668994 C139.90422,228.620892 137.299392,231.312786 136.563269,232.051764 C132.810315,235.819273 129.779025,238.091575 126.474192,239.094706 C125.849368,241.445877 123.706146,243.178342 121.158285,243.178342 C119.521148,243.178342 118.051076,242.46305 117.043544,241.327941 C115.11582,242.485497 113.067556,244.286772 110.667642,246.81192 C110.066119,247.444833 109.442211,248.120007 108.645268,248.99643 C108.372615,249.296275 106.974576,250.840927 106.574733,251.279883 C101.192223,257.188916 97.0620694,260.777656 92.5929258,262.528839 C92.1840905,265.162558 89.9065936,267.178342 87.1582852,267.178342 C85.0663344,267.178342 83.2471678,266.010414 82.3172646,264.291038 C73.0646853,266.412861 63.8662581,275.764229 54.8201778,292.517933 C54.4265825,293.246888 53.5165763,293.51875 52.7876221,293.125155 C52.0586679,292.731559 51.7868057,291.821553 52.180401,291.092599 C61.5918405,273.662235 71.388525,263.694031 81.6674232,261.358622 C81.8330018,258.469851 84.2280382,256.178342 87.1582852,256.178342 C89.3931401,256.178342 91.3166694,257.511286 92.1772292,259.425529 C95.9146562,257.757251 99.5628669,254.522671 104.356905,249.259675 C104.75271,248.825152 106.149573,247.281799 106.425694,246.978141 C107.236201,246.086802 107.873867,245.396738 108.493084,244.745208 C111.144141,241.955812 113.464574,239.925186 115.735539,238.602182 C115.684737,238.301814 115.658285,237.993167 115.658285,237.678342 C115.658285,234.640776 118.120719,232.178342 121.158285,232.178342 C123.588749,232.178342 125.651004,233.754833 126.378261,235.941026 C128.872739,234.974896 131.334342,233.050094 134.437847,229.934553 C135.155821,229.213795 137.743909,226.539199 137.710645,226.573271 C142.508666,221.658743 146.288519,218.660623 150.669524,217.032804 C150.662069,216.915609 150.658285,216.797418 150.658285,216.678342 C150.658285,213.640776 153.120719,211.178342 156.158285,211.178342 C159.033611,211.178342 161.393601,213.384757 161.637498,216.196831 C163.872118,216.81605 166.102849,217.948276 168.36316,219.551258 C171.610782,221.854429 174.575582,224.77598 178.892703,229.625756 C178.765975,229.483392 182.370899,233.564941 183.34427,234.636831 C184.966481,236.423232 186.282612,237.775924 187.513997,238.896013 C188.37942,239.683218 189.192623,240.342596 189.960271,240.876362 C190.706381,238.723814 192.751851,237.178342 195.158285,237.178342 C197.521724,237.178342 199.536982,238.669082 200.315068,240.761571 Z M121.158285,240.178342 C122.538997,240.178342 123.658285,239.059054 123.658285,237.678342 C123.658285,236.29763 122.538997,235.178342 121.158285,235.178342 C119.777573,235.178342 118.658285,236.29763 118.658285,237.678342 C118.658285,239.059054 119.777573,240.178342 121.158285,240.178342 Z M156.158285,219.178342 C157.538997,219.178342 158.658285,218.059054 158.658285,216.678342 C158.658285,215.29763 157.538997,214.178342 156.158285,214.178342 C154.777573,214.178342 153.658285,215.29763 153.658285,216.678342 C153.658285,218.059054 154.777573,219.178342 156.158285,219.178342 Z M195.158285,245.178342 C196.538997,245.178342 197.658285,244.059054 197.658285,242.678342 C197.658285,241.29763 196.538997,240.178342 195.158285,240.178342 C193.777573,240.178342 192.658285,241.29763 192.658285,242.678342 C192.658285,244.059054 193.777573,245.178342 195.158285,245.178342 Z M87.1582852,264.178342 C88.538997,264.178342 89.6582852,263.059054 89.6582852,261.678342 C89.6582852,260.29763 88.538997,259.178342 87.1582852,259.178342 C85.7775733,259.178342 84.6582852,260.29763 84.6582852,261.678342 C84.6582852,263.059054 85.7775733,264.178342 87.1582852,264.178342 Z" id="Shape" fill="#FDFDFE" fill-rule="nonzero"></path>
        <path d="M54,212 L67,212 C68.1045695,212 69,212.895431 69,214 L69,215.305556 C69,216.410125 68.1045695,217.305556 67,217.305556 L54,217.305556 C52.8954305,217.305556 52,216.410125 52,215.305556 L52,214 C52,212.895431 52.8954305,212 54,212 Z M54,222 L87,222 C88.1045695,222 89,222.895431 89,224 L89,225.305556 C89,226.410125 88.1045695,227.305556 87,227.305556 L54,227.305556 C52.8954305,227.305556 52,226.410125 52,225.305556 L52,224 C52,222.895431 52.8954305,222 54,222 Z M54,232 L87,232 C88.1045695,232 89,232.895431 89,234 L89,235.305556 C89,236.410125 88.1045695,237.305556 87,237.305556 L54,237.305556 C52.8954305,237.305556 52,236.410125 52,235.305556 L52,234 C52,232.895431 52.8954305,232 54,232 Z M73,281 L94,281 C96.209139,281 98,282.790861 98,285 L98,300 C98,302.209139 96.209139,304 94,304 L73,304 C70.790861,304 69,302.209139 69,300 L69,285 C69,282.790861 70.790861,281 73,281 Z M109,271.242424 L130,271.242424 C132.209139,271.242424 134,273.033285 134,275.242424 L134,300 C134,302.209139 132.209139,304 130,304 L109,304 C106.790861,304 105,302.209139 105,300 L105,275.242424 C105,273.033285 106.790861,271.242424 109,271.242424 Z M181,271.242424 L202,271.242424 C204.209139,271.242424 206,273.033285 206,275.242424 L206,300 C206,302.209139 204.209139,304 202,304 L181,304 C178.790861,304 177,302.209139 177,300 L177,275.242424 C177,273.033285 178.790861,271.242424 181,271.242424 Z M146,258 L167,258 C169.209139,258 171,259.790861 171,262 L171,300 C171,302.209139 169.209139,304 167,304 L146,304 C143.790861,304 142,302.209139 142,300 L142,262 C142,259.790861 143.790861,258 146,258 Z" id="Shape" fill="url(#linearGradient-9)" opacity="0.965587798"></path>
        <path d="M16,314 L259,314 C259,320.627417 253.627417,326 247,326 L28,326 C21.372583,326 16,320.627417 16,314 Z" id="Shape" fill="#FDAC6D"></path>
        <path d="M97,314 L170,314 C170,316.761424 167.761424,319 165,319 L102,319 C99.2385763,319 97,316.761424 97,314 Z" id="Shape" fill="#EF6376" fill-rule="nonzero"></path>
        <ellipse id="Shape" fill="#B6A0D1" fill-rule="nonzero" opacity="0.200000003" cx="146.5" cy="366" rx="132.5" ry="10"></ellipse>
      </g>
    </g>
  </g>
</svg>
