<?xml version="1.0" encoding="UTF-8"?>
<svg width="302px" height="357px" viewBox="0 0 302 357" version="1.1" xmlns="http://www.w3.org/2000/svg" xmlns:xlink="http://www.w3.org/1999/xlink">
  <title>graph, office, pie chart@2x</title>
  <defs>
    <linearGradient x1="50%" y1="0%" x2="50%" y2="100%" id="linearGradient-1">
      <stop stop-color="#FB65BC" offset="0%"></stop>
      <stop stop-color="#FCAFA9" offset="100%"></stop>
    </linearGradient>
    <linearGradient x1="50%" y1="-42.9786065%" x2="50%" y2="100%" id="linearGradient-2">
      <stop stop-color="#5174D0" offset="0%"></stop>
      <stop stop-color="#1F2480" offset="100%"></stop>
    </linearGradient>
    <linearGradient x1="50%" y1="0%" x2="50%" y2="100%" id="linearGradient-3">
      <stop stop-color="#FFB36D" offset="0%"></stop>
      <stop stop-color="#E73E79" offset="100%"></stop>
    </linearGradient>
    <linearGradient x1="50%" y1="-30.9601329%" x2="50%" y2="127.882425%" id="linearGradient-4">
      <stop stop-color="#FFF2F2" stop-opacity="0.139407835" offset="0%"></stop>
      <stop stop-color="#FEFAF9" offset="100%"></stop>
    </linearGradient>
    <linearGradient x1="61.0206741%" y1="0%" x2="47.3347746%" y2="100%" id="linearGradient-5">
      <stop stop-color="#17B7BD" offset="0%"></stop>
      <stop stop-color="#9DEB93" offset="100%"></stop>
    </linearGradient>
    <linearGradient x1="50%" y1="-30.9601329%" x2="50%" y2="127.882425%" id="linearGradient-6">
      <stop stop-color="#FFF2F2" stop-opacity="0.139407835" offset="0%"></stop>
      <stop stop-color="#FEFAF9" offset="100%"></stop>
    </linearGradient>
    <linearGradient x1="50%" y1="0%" x2="50%" y2="100%" id="linearGradient-7">
      <stop stop-color="#966AFF" offset="0%"></stop>
      <stop stop-color="#E885E0" offset="100%"></stop>
    </linearGradient>
    <linearGradient x1="50%" y1="-30.9601329%" x2="50%" y2="127.882425%" id="linearGradient-8">
      <stop stop-color="#FFF2F2" stop-opacity="0.139407835" offset="0%"></stop>
      <stop stop-color="#FEFAF9" offset="100%"></stop>
    </linearGradient>
    <linearGradient x1="50%" y1="-30.9601329%" x2="50%" y2="127.882425%" id="linearGradient-9">
      <stop stop-color="#FFF2F2" stop-opacity="0.139407835" offset="0%"></stop>
      <stop stop-color="#FEFAF9" offset="100%"></stop>
    </linearGradient>
    <linearGradient x1="50%" y1="0%" x2="50%" y2="100%" id="linearGradient-10">
      <stop stop-color="#FB65BC" offset="0%"></stop>
      <stop stop-color="#FCAFA9" offset="100%"></stop>
    </linearGradient>
  </defs>
  <g id="Page-1" stroke="none" stroke-width="1" fill="none" fill-rule="evenodd">
    <g id="Business---Icon-Illustration" transform="translate(-1030.000000, -1013.000000)">
      <g id="graph,-office,-pie-chart" transform="translate(1030.000000, 1013.000000)">
        <ellipse id="Shape" fill="#B6A0D1" fill-rule="nonzero" opacity="0.200000003" cx="151.5" cy="347" rx="132.5" ry="10"></ellipse>
        <path d="M182,68 L238.519956,68 L266,115.831718 C258.554517,119.154 250.312092,121 241.640628,121 C210.943168,121 185.622422,97.8659479 182,68 Z M182,58 C183.127818,27.1986725 207.397814,2.2821583 238,0 L238,58 L182,58 Z" id="Shape" fill="url(#linearGradient-1)"></path>
        <path d="M274.718427,111 L247,62.6105445 L247,0 C277.799323,2.5713363 302,28.5810045 302,60.2877509 C302,81.5246175 291.14312,100.205667 274.718427,111 L274.718427,111 Z" id="Shape" fill="url(#linearGradient-2)"></path>
        <path d="M242,185 C240.895431,185 240,184.104569 240,183 C240,181.895431 240.895431,181 242,181 C244.117484,181 246.217381,181.162588 248.28926,181.4845 C249.380734,181.654085 250.128073,182.676375 249.958488,183.767848 C249.788904,184.859322 248.766614,185.606661 247.67514,185.437076 C245.806177,185.146691 243.911591,185 242,185 Z M256.785308,188.083025 C255.772116,187.643121 255.307375,186.465153 255.74728,185.451961 C256.187184,184.43877 257.365152,183.974028 258.378344,184.413933 C260.295204,185.24619 262.156052,186.223671 263.94895,187.338381 C264.886997,187.921599 265.174643,189.154827 264.591425,190.092873 C264.008207,191.03092 262.774979,191.318565 261.836933,190.735348 C260.209312,189.723396 258.521838,188.836987 256.785308,188.083025 Z M269.294801,196.678876 C268.514464,195.897116 268.515618,194.630787 269.297378,193.85045 C270.079138,193.070114 271.345467,193.071267 272.125804,193.853027 C273.591388,195.321285 274.969085,196.894679 276.249427,198.56228 C276.922093,199.438404 276.757157,200.693947 275.881033,201.366613 C275.004908,202.039279 273.749365,201.874344 273.076699,200.998219 C271.901349,199.467366 270.637735,198.02426 269.294801,196.678876 Z M278.131197,209.242709 C277.653555,208.246752 278.073733,207.052163 279.069691,206.574521 C280.065649,206.096879 281.260237,206.517057 281.737879,207.513015 C282.632766,209.378992 283.420366,211.307169 284.095263,213.286924 C284.451669,214.332414 283.893057,215.468875 282.847567,215.825281 C281.802077,216.181687 280.665616,215.623075 280.30921,214.577585 C279.685335,212.747498 278.957619,210.965927 278.131197,209.242709 Z M282.507881,223.851589 C282.355713,222.757552 283.119249,221.747302 284.213287,221.595134 C285.307324,221.442965 286.317574,222.206501 286.469742,223.300539 C286.754044,225.344568 286.924939,227.414796 286.980212,229.503015 C287.009439,230.607198 286.138015,231.526008 285.033833,231.555235 C283.92965,231.584462 283.01084,230.713038 282.981613,229.608855 C282.930283,227.669647 282.771658,225.748054 282.507881,223.851589 Z M282.344596,239.236297 C282.520332,238.145797 283.546819,237.404235 284.637319,237.579971 C285.727819,237.755707 286.469382,238.782194 286.293646,239.872695 C285.961151,241.935931 285.512863,243.967334 284.952256,245.957461 C284.652761,247.020653 283.548086,247.639752 282.484894,247.340257 C281.421702,247.040763 280.802603,245.936087 281.102098,244.872895 C281.621198,243.030116 282.036465,241.148348 282.344596,239.236297 Z M277.593729,253.842562 C278.096443,252.859021 279.30129,252.469234 280.284831,252.971947 C281.268372,253.474661 281.65816,254.679509 281.155446,255.663049 C280.201809,257.528804 279.140774,259.324604 277.979587,261.03932 C277.360236,261.953911 276.11673,262.193251 275.202138,261.5739 C274.287547,260.954548 274.048207,259.711042 274.667558,258.79645 C275.736784,257.217532 276.714466,255.562808 277.593729,253.842562 Z M268.497262,266.099748 C269.297553,265.338428 270.563489,265.37002 271.324809,266.170311 C272.08613,266.970601 272.054538,268.236537 271.254247,268.997857 C269.726951,270.450781 268.11365,271.789368 266.42529,273.003614 C265.528549,273.648538 264.278781,273.4444 263.633856,272.547658 C262.988932,271.650916 263.19307,270.401149 264.089812,269.756224 C265.629163,268.649143 267.101719,267.427335 268.497262,266.099748 Z M255.798748,274.328933 C256.823919,273.917717 257.988341,274.415425 258.399557,275.440595 C258.810774,276.465766 258.313066,277.630188 257.287895,278.041404 C255.330214,278.82667 253.321775,279.460508 251.274406,279.936999 C250.198588,280.187378 249.123493,279.518227 248.873114,278.442409 C248.622736,277.366591 249.291887,276.291496 250.367705,276.041117 C252.215711,275.611025 254.029486,275.03862 255.798748,274.328933 Z M240.840289,277 C241.944858,277 242.840289,277.895431 242.840289,279 C242.840289,280.104569 241.944858,281 240.840289,281 L234.840289,281 C233.735719,281 232.840289,280.104569 232.840289,279 C232.840289,277.895431 233.735719,277 234.840289,277 L240.840289,277 Z M224.840289,277 C225.944858,277 226.840289,277.895431 226.840289,279 C226.840289,280.104569 225.944858,281 224.840289,281 L218.840289,281 C217.735719,281 216.840289,280.104569 216.840289,279 C216.840289,277.895431 217.735719,277 218.840289,277 L224.840289,277 Z M208.840289,277 C209.944858,277 210.840289,277.895431 210.840289,279 C210.840289,280.104569 209.944858,281 208.840289,281 L202.840289,281 C201.735719,281 200.840289,280.104569 200.840289,279 C200.840289,277.895431 201.735719,277 202.840289,277 L208.840289,277 Z M192.840289,277 C193.944858,277 194.840289,277.895431 194.840289,279 C194.840289,280.104569 193.944858,281 192.840289,281 L186.840289,281 C185.735719,281 184.840289,280.104569 184.840289,279 C184.840289,277.895431 185.735719,277 186.840289,277 L192.840289,277 Z M19.1042522,164.091954 C19.390843,162.19307 19.7185129,160.369911 20.0881396,158.620165 C20.3164371,157.539446 21.3776048,156.848421 22.458324,157.076719 C23.5390432,157.305016 24.2300676,158.366184 24.00177,159.446903 C23.6719253,161.008329 23.3763455,162.634833 23.1145701,164.328117 C27.6485827,165.490098 31,169.603666 31,174.5 C31,180.29899 26.2989899,185 20.5,185 C14.7010101,185 10,180.29899 10,174.5 C10,169.174223 13.9650837,164.774542 19.1042522,164.091954 L19.1042522,164.091954 Z M26.6610698,150.122554 C26.2731445,151.156762 25.1202771,151.680679 24.0860683,151.292753 C23.0518595,150.904828 22.5279433,149.751961 22.9158685,148.717752 C23.678736,146.683947 24.5282918,144.781065 25.4675854,143.00565 C25.9841283,142.029301 27.1943562,141.656554 28.1707052,142.173097 C29.1470541,142.68964 29.5198005,143.899868 29.0032576,144.876217 C28.1455025,146.497512 27.3653549,148.244929 26.6610698,150.122554 Z M34.4921606,137.227056 C33.7205185,138.017399 32.4542793,138.032559 31.6639362,137.260917 C30.8735931,136.489275 30.8584331,135.223036 31.6300753,134.432693 C33.1321847,132.894179 34.7647628,131.524212 36.5311759,130.320683 C37.4440042,129.698736 38.6881856,129.934541 39.3101327,130.84737 C39.9320799,131.760198 39.6962742,133.004379 38.7834459,133.626326 C37.237268,134.6798 35.8088958,135.87841 34.4921606,137.227056 Z M47.3567447,129.596891 C46.2996465,129.91723 45.1830129,129.319969 44.8626736,128.262871 C44.5423343,127.205773 45.1395954,126.089139 46.1966935,125.7688 C48.1277857,125.183609 50.1663733,124.722261 52.3164227,124.38282 C53.4074788,124.210569 54.4315918,124.955407 54.6038432,126.046463 C54.7760946,127.137519 54.0312562,128.161632 52.9402002,128.333884 C50.9679151,128.64526 49.1083187,129.0661 47.3567447,129.596891 Z M20.5,179 C18.0147186,179 16,176.985281 16,174.5 C16,172.014719 18.0147186,170 20.5,170 C22.9852814,170 25,172.014719 25,174.5 C25,176.985281 22.9852814,179 20.5,179 Z M20.5,182 C24.6421356,182 28,178.642136 28,174.5 C28,170.357864 24.6421356,167 20.5,167 C16.3578644,167 13,170.357864 13,174.5 C13,178.642136 16.3578644,182 20.5,182 Z" id="Shape" fill="#D4DFFF" fill-rule="nonzero"></path>
        <path d="M80,72 L174,72 C176.209139,72 178,73.790861 178,76 L178,243 L76,243 L76,76 C76,73.790861 77.790861,72 80,72 Z" id="Shape" fill="url(#linearGradient-3)"></path>
        <path d="M94,89 L159,89 C160.104569,89 161,89.8954305 161,91 L161,103 C161,104.104569 160.104569,105 159,105 L94,105 C92.8954305,105 92,104.104569 92,103 L92,91 C92,89.8954305 92.8954305,89 94,89 Z M94,122 L159,122 C160.104569,122 161,122.895431 161,124 L161,136 C161,137.104569 160.104569,138 159,138 L94,138 C92.8954305,138 92,137.104569 92,136 L92,124 C92,122.895431 92.8954305,122 94,122 Z M94,154 L159,154 C160.104569,154 161,154.895431 161,156 L161,168 C161,169.104569 160.104569,170 159,170 L94,170 C92.8954305,170 92,169.104569 92,168 L92,156 C92,154.895431 92.8954305,154 94,154 Z M94,187 L159,187 C160.104569,187 161,187.895431 161,189 L161,201 C161,202.104569 160.104569,203 159,203 L94,203 C92.8954305,203 92,202.104569 92,201 L92,189 C92,187.895431 92.8954305,187 94,187 Z" id="Shape" fill="url(#linearGradient-4)" opacity="0.965587798"></path>
        <path d="M94,56 L159,56 C160.104569,56 161,56.8954305 161,58 L161,72 L92,72 L92,58 C92,56.8954305 92.8954305,56 94,56 Z" id="Shape" fill="#F99770" fill-rule="nonzero"></path>
        <path d="M111,40 L143,40 C144.104569,40 145,40.8954305 145,42 L145,56 L109,56 L109,42 C109,40.8954305 109.895431,40 111,40 Z" id="Shape" fill="#F68472" fill-rule="nonzero"></path>
        <path d="M126,24 L129,24 C130.104569,24 131,24.8954305 131,26 L131,40 L124,40 L124,26 C124,24.8954305 124.895431,24 126,24 Z" id="Shape" fill="#F16F74" fill-rule="nonzero"></path>
        <path d="M178,107 L259,107 C261.209139,107 263,108.790861 263,111 L263,243 L178,243 L178,107 Z" id="Shape" fill="url(#linearGradient-5)"></path>
        <path d="M196,138 L208,138 C209.104569,138 210,138.895431 210,140 L210,225 C210,226.104569 209.104569,227 208,227 L196,227 C194.895431,227 194,226.104569 194,225 L194,140 C194,138.895431 194.895431,138 196,138 Z M229,138 L241,138 C242.104569,138 243,138.895431 243,140 L243,225 C243,226.104569 242.104569,227 241,227 L229,227 C227.895431,227 227,226.104569 227,225 L227,140 C227,138.895431 227.895431,138 229,138 Z" id="Shape" fill="url(#linearGradient-6)" opacity="0.965587798"></path>
        <path d="M196,91 L244,91 C245.104569,91 246,91.8954305 246,93 L246,107 L194,107 L194,93 C194,91.8954305 194.895431,91 196,91 Z" id="Shape" fill="#73DBA1" fill-rule="nonzero"></path>
        <path d="M8,187 L174,187 C178.418278,187 182,190.581722 182,195 L182,299 C182,303.418278 178.418278,307 174,307 L8,307 C3.581722,307 0,303.418278 0,299 L0,195 C0,190.581722 3.581722,187 8,187 Z" id="Shape" fill="url(#linearGradient-7)"></path>
        <path d="M12,213 L170,213 C174.418278,213 178,216.581722 178,221 L178,295 C178,299.418278 174.418278,303 170,303 L12,303 C7.581722,303 4,299.418278 4,295 L4,221 C4,216.581722 7.581722,213 12,213 Z" id="Shape" fill="url(#linearGradient-8)" opacity="0.965587798"></path>
        <path d="M26,260.5625 L47,260.5625 C49.209139,260.5625 51,262.353361 51,264.5625 L51,293 C51,295.209139 49.209139,297 47,297 L26,297 C23.790861,297 22,295.209139 22,293 L22,264.5625 C22,262.353361 23.790861,260.5625 26,260.5625 Z M62,250.9375 L83,250.9375 C85.209139,250.9375 87,252.728361 87,254.9375 L87,293 C87,295.209139 85.209139,297 83,297 L62,297 C59.790861,297 58,295.209139 58,293 L58,254.9375 C58,252.728361 59.790861,250.9375 62,250.9375 Z M134,250.9375 L155,250.9375 C157.209139,250.9375 159,252.728361 159,254.9375 L159,293 C159,295.209139 157.209139,297 155,297 L134,297 C131.790861,297 130,295.209139 130,293 L130,254.9375 C130,252.728361 131.790861,250.9375 134,250.9375 Z M99,231 L120,231 C122.209139,231 124,232.790861 124,235 L124,293 C124,295.209139 122.209139,297 120,297 L99,297 C96.790861,297 95,295.209139 95,293 L95,235 C95,232.790861 96.790861,231 99,231 Z M14,224 L47,224 C48.1045695,224 49,224.895431 49,226 L49,226.305556 C49,227.410125 48.1045695,228.305556 47,228.305556 L14,228.305556 C12.8954305,228.305556 12,227.410125 12,226.305556 L12,226 C12,224.895431 12.8954305,224 14,224 Z M14,232 L37,232 C38.1045695,232 39,232.895431 39,234 L39,234.305556 C39,235.410125 38.1045695,236.305556 37,236.305556 L14,236.305556 C12.8954305,236.305556 12,235.410125 12,234.305556 L12,234 C12,232.895431 12.8954305,232 14,232 Z" id="Shape" fill="url(#linearGradient-9)" opacity="0.965587798"></path>
        <ellipse id="Shape" fill="#FFFFFF" fill-rule="nonzero" cx="14.2" cy="201.186047" rx="4.2" ry="4.18604651"></ellipse>
        <ellipse id="Shape" fill="#FFFFFF" fill-rule="nonzero" cx="26.1" cy="201.186047" rx="4.2" ry="4.18604651"></ellipse>
        <ellipse id="Shape" fill="#FFFFFF" fill-rule="nonzero" cx="38" cy="201.186047" rx="4.2" ry="4.18604651"></ellipse>
        <path d="M33,90 L66,90 C67.1045695,90 68,90.8954305 68,92 L68,93.3055556 C68,94.4101251 67.1045695,95.3055556 66,95.3055556 L33,95.3055556 C31.8954305,95.3055556 31,94.4101251 31,93.3055556 L31,92 C31,90.8954305 31.8954305,90 33,90 Z M13,100 L66,100 C67.1045695,100 68,100.895431 68,102 L68,103.305556 C68,104.410125 67.1045695,105.305556 66,105.305556 L13,105.305556 C11.8954305,105.305556 11,104.410125 11,103.305556 L11,102 C11,100.895431 11.8954305,100 13,100 Z" id="Shape" fill="url(#linearGradient-10)"></path>
      </g>
    </g>
  </g>
</svg>
