<?xml version="1.0" encoding="UTF-8"?>
<svg width="316px" height="394px" viewBox="0 0 316 394" version="1.1" xmlns="http://www.w3.org/2000/svg" xmlns:xlink="http://www.w3.org/1999/xlink">
  <title>message, office, world@2x</title>
  <defs>
    <linearGradient x1="50%" y1="-42.9786065%" x2="50%" y2="100%" id="linearGradient-1">
      <stop stop-color="#5174D0" offset="0%"></stop>
      <stop stop-color="#1F2480" offset="100%"></stop>
    </linearGradient>
    <linearGradient x1="50%" y1="0%" x2="50%" y2="100%" id="linearGradient-2">
      <stop stop-color="#FB65BC" offset="0%"></stop>
      <stop stop-color="#FCAFA9" offset="100%"></stop>
    </linearGradient>
    <linearGradient x1="50%" y1="-30.9601329%" x2="50%" y2="127.882425%" id="linearGradient-3">
      <stop stop-color="#FFF2F2" stop-opacity="0.139407835" offset="0%"></stop>
      <stop stop-color="#FEFAF9" offset="100%"></stop>
    </linearGradient>
    <linearGradient x1="50%" y1="0%" x2="50%" y2="100%" id="linearGradient-4">
      <stop stop-color="#FFB36D" offset="0%"></stop>
      <stop stop-color="#E73E79" offset="100%"></stop>
    </linearGradient>
    <linearGradient x1="50%" y1="-30.9601329%" x2="50%" y2="127.882425%" id="linearGradient-5">
      <stop stop-color="#FFF2F2" stop-opacity="0.139407835" offset="0%"></stop>
      <stop stop-color="#FEFAF9" offset="100%"></stop>
    </linearGradient>
    <linearGradient x1="50%" y1="0%" x2="50%" y2="100%" id="linearGradient-6">
      <stop stop-color="#966AFF" offset="0%"></stop>
      <stop stop-color="#E885E0" offset="100%"></stop>
    </linearGradient>
    <linearGradient x1="50%" y1="0%" x2="50%" y2="100%" id="linearGradient-7">
      <stop stop-color="#966AFF" offset="0%"></stop>
      <stop stop-color="#E885E0" offset="100%"></stop>
    </linearGradient>
    <linearGradient x1="50%" y1="0%" x2="50%" y2="100%" id="linearGradient-8">
      <stop stop-color="#966AFF" offset="0%"></stop>
      <stop stop-color="#E885E0" offset="100%"></stop>
    </linearGradient>
    <linearGradient x1="50%" y1="0%" x2="50%" y2="100%" id="linearGradient-9">
      <stop stop-color="#CFDEFF" offset="0%"></stop>
      <stop stop-color="#F1E4FF" offset="100%"></stop>
    </linearGradient>
    <linearGradient x1="43.177023%" y1="0%" x2="43.177023%" y2="100%" id="linearGradient-10">
      <stop stop-color="#17B7BD" offset="0%"></stop>
      <stop stop-color="#9DEB93" offset="100%"></stop>
    </linearGradient>
    <linearGradient x1="78.2129257%" y1="44.1840502%" x2="43.177023%" y2="55.8159498%" id="linearGradient-11">
      <stop stop-color="#17B7BD" offset="0%"></stop>
      <stop stop-color="#9DEB93" offset="100%"></stop>
    </linearGradient>
  </defs>
  <g id="Page-1" stroke="none" stroke-width="1" fill="none" fill-rule="evenodd">
    <g id="Business---Icon-Illustration" transform="translate(-557.000000, -1854.000000)">
      <g id="message,-office,-world" transform="translate(557.000000, 1854.000000)">
        <ellipse id="Shape" fill="#B6A0D1" fill-rule="nonzero" opacity="0.200000003" cx="161.5" cy="384" rx="142.5" ry="10"></ellipse>
        <path d="M241.5,163 C239.014719,163 237,160.985281 237,158.5 C237,156.014719 239.014719,154 241.5,154 C243.985281,154 246,156.014719 246,158.5 C246,160.985281 243.985281,163 241.5,163 Z M241.5,166 C245.642136,166 249,162.642136 249,158.5 C249,154.357864 245.642136,151 241.5,151 C237.357864,151 234,154.357864 234,158.5 C234,162.642136 237.357864,166 241.5,166 Z M241.5,169 C235.70101,169 231,164.29899 231,158.5 C231,152.70101 235.70101,148 241.5,148 C247.29899,148 252,152.70101 252,158.5 C252,164.29899 247.29899,169 241.5,169 Z M257.525424,160 C256.420854,160 255.525424,159.104569 255.525424,158 C255.525424,156.895431 256.420854,156 257.525424,156 L263.525424,156 C264.629993,156 265.525424,156.895431 265.525424,158 C265.525424,159.104569 264.629993,160 263.525424,160 L257.525424,160 Z M273.525424,160 C272.420854,160 271.525424,159.104569 271.525424,158 C271.525424,156.895431 272.420854,156 273.525424,156 L279.525424,156 C280.629993,156 281.525424,156.895431 281.525424,158 C281.525424,159.104569 280.629993,160 279.525424,160 L273.525424,160 Z M289.525424,160 C288.420854,160 287.525424,159.104569 287.525424,158 C287.525424,156.895431 288.420854,156 289.525424,156 L295.525424,156 C296.629993,156 297.525424,156.895431 297.525424,158 C297.525424,159.104569 296.629993,160 295.525424,160 L289.525424,160 Z M304.339979,161.397961 C303.374647,160.861112 303.027292,159.643353 303.564141,158.678021 C304.10099,157.712688 305.318749,157.365333 306.284081,157.902182 C308.224127,158.981097 309.967292,160.484232 311.425392,162.321037 C312.112148,163.186161 311.967553,164.444208 311.102429,165.130965 C310.237305,165.817721 308.979257,165.673125 308.292501,164.808001 C307.15425,163.374119 305.811667,162.216412 304.339979,161.397961 Z M311.7683,172.976403 C311.598711,171.88493 312.346045,170.862637 313.437518,170.693047 C314.528991,170.523458 315.551284,171.270792 315.720873,172.362265 C315.903655,173.538643 315.997503,174.738378 315.999955,175.955285 L316,178.704122 C316,179.808692 315.104602,180.704155 314.000033,180.704155 C312.895463,180.704155 312.000018,179.808757 312,178.704188 L311.999959,175.959353 C311.997921,174.949361 311.919921,173.952233 311.7683,172.976403 Z M312,188.704155 C312,187.599585 312.895431,186.704155 314,186.704155 C315.104569,186.704155 316,187.599585 316,188.704155 L316,194.704155 C316,195.808724 315.104569,196.704155 314,196.704155 C312.895431,196.704155 312,195.808724 312,194.704155 L312,188.704155 Z M312,204.704155 C312,203.599585 312.895431,202.704155 314,202.704155 C315.104569,202.704155 316,203.599585 316,204.704155 L316,210.704155 C316,211.808724 315.104569,212.704155 314,212.704155 C312.895431,212.704155 312,211.808724 312,210.704155 L312,204.704155 Z M312,220.704155 C312,219.599585 312.895431,218.704155 314,218.704155 C315.104569,218.704155 316,219.599585 316,220.704155 L316,226.704155 C316,227.808724 315.104569,228.704155 314,228.704155 C312.895431,228.704155 312,227.808724 312,226.704155 L312,220.704155 Z M312,236.704155 C312,235.599585 312.895431,234.704155 314,234.704155 C315.104569,234.704155 316,235.599585 316,236.704155 L316,242.704155 C316,243.808724 315.104569,244.704155 314,244.704155 C312.895431,244.704155 312,243.808724 312,242.704155 L312,236.704155 Z M312,252.704155 C312,251.599585 312.895431,250.704155 314,250.704155 C315.104569,250.704155 316,251.599585 316,252.704155 L316,258.704155 C316,259.808724 315.104569,260.704155 314,260.704155 C312.895431,260.704155 312,259.808724 312,258.704155 L312,252.704155 Z M312,268.704155 C312,267.599585 312.895431,266.704155 314,266.704155 C315.104569,266.704155 316,267.599585 316,268.704155 L316,274 C316,274.256485 315.995914,274.512436 315.98776,274.76776 C315.952501,275.871767 315.028944,276.738158 313.924938,276.7029 C312.820931,276.667642 311.95454,275.744085 311.989798,274.640078 C311.996593,274.4273 312,274.213916 312,274 L312,268.704155 Z M309.597376,283.270276 C310.150193,282.313998 311.373556,281.986928 312.329834,282.539745 C313.286112,283.092562 313.613182,284.315925 313.060365,285.272203 C311.901408,287.276999 310.43941,289.022515 308.74688,290.415413 C307.893994,291.117311 306.633593,290.994911 305.931696,290.142025 C305.229798,289.28914 305.352199,288.028739 306.205084,287.326842 C307.521587,286.243402 308.674096,284.867392 309.597376,283.270276 Z M298.117114,290 C299.221684,290 300.117114,290.895431 300.117114,292 C300.117114,293.104569 299.221684,294 298.117114,294 L292.117114,294 C291.012545,294 290.117114,293.104569 290.117114,292 C290.117114,290.895431 291.012545,290 292.117114,290 L298.117114,290 Z M282.117114,290 C283.221684,290 284.117114,290.895431 284.117114,292 C284.117114,293.104569 283.221684,294 282.117114,294 L276.117114,294 C275.012545,294 274.117114,293.104569 274.117114,292 C274.117114,290.895431 275.012545,290 276.117114,290 L282.117114,290 Z M266.117114,290 C267.221684,290 268.117114,290.895431 268.117114,292 C268.117114,293.104569 267.221684,294 266.117114,294 L260.117114,294 C259.012545,294 258.117114,293.104569 258.117114,292 C258.117114,290.895431 259.012545,290 260.117114,290 L266.117114,290 Z M250.117114,290 C251.221684,290 252.117114,290.895431 252.117114,292 C252.117114,293.104569 251.221684,294 250.117114,294 L244.117114,294 C243.012545,294 242.117114,293.104569 242.117114,292 C242.117114,290.895431 243.012545,290 244.117114,290 L250.117114,290 Z M234.117114,290 C235.221684,290 236.117114,290.895431 236.117114,292 C236.117114,293.104569 235.221684,294 234.117114,294 L228.117114,294 C227.012545,294 226.117114,293.104569 226.117114,292 C226.117114,290.895431 227.012545,290 228.117114,290 L234.117114,290 Z M218.117114,290 C219.221684,290 220.117114,290.895431 220.117114,292 C220.117114,293.104569 219.221684,294 218.117114,294 L216,294 C214.895431,294 214,293.104569 214,292 C214,290.895431 214.895431,290 216,290 L218.117114,290 Z" id="Shape" fill="#D4DFFF" fill-rule="nonzero"></path>
        <circle id="Shape" fill="url(#linearGradient-1)" cx="256.5" cy="74.5" r="28.5"></circle>
        <path d="M268.60339,61.0322739 C270.479635,59.2294993 273.45589,59.295516 275.251043,61.1797262 C277.046195,63.0639365 276.980458,66.0528283 275.104214,67.8556029 L254.172913,87.9672805 C251.987914,90.0667195 248.426065,89.5787421 246.880885,86.9682647 L238.160859,72.2363631 C236.834024,69.994763 237.567904,67.0974075 239.800027,65.7649385 C242.03215,64.4324695 244.917256,65.1694658 246.244091,67.4110658 L251.943487,77.0398132 L268.60339,61.0322739 Z" id="Shape" fill="#FFFFFF" fill-rule="nonzero"></path>
        <path d="M29,48 L123,48 C125.209139,48 127,49.790861 127,52 L127,219 L25,219 L25,52 C25,49.790861 26.790861,48 29,48 Z" id="Shape" fill="url(#linearGradient-2)"></path>
        <path d="M43,65 L108,65 C109.104569,65 110,65.8954305 110,67 L110,79 C110,80.1045695 109.104569,81 108,81 L43,81 C41.8954305,81 41,80.1045695 41,79 L41,67 C41,65.8954305 41.8954305,65 43,65 Z M43,98 L108,98 C109.104569,98 110,98.8954305 110,100 L110,112 C110,113.104569 109.104569,114 108,114 L43,114 C41.8954305,114 41,113.104569 41,112 L41,100 C41,98.8954305 41.8954305,98 43,98 Z M43,130 L108,130 C109.104569,130 110,130.895431 110,132 L110,144 C110,145.104569 109.104569,146 108,146 L43,146 C41.8954305,146 41,145.104569 41,144 L41,132 C41,130.895431 41.8954305,130 43,130 Z M43,163 L108,163 C109.104569,163 110,163.895431 110,165 L110,177 C110,178.104569 109.104569,179 108,179 L43,179 C41.8954305,179 41,178.104569 41,177 L41,165 C41,163.895431 41.8954305,163 43,163 Z" id="Shape" fill="url(#linearGradient-3)" opacity="0.965587798"></path>
        <path d="M43,32 L108,32 C109.104569,32 110,32.8954305 110,34 L110,48 L41,48 L41,34 C41,32.8954305 41.8954305,32 43,32 Z" id="Shape" fill="#FB6DBA" fill-rule="nonzero"></path>
        <path d="M60,16 L92,16 C93.1045695,16 94,16.8954305 94,18 L94,32 L58,32 L58,18 C58,16.8954305 58.8954305,16 60,16 Z" id="Shape" fill="#FC88B3" fill-rule="nonzero"></path>
        <path d="M75,0 L78,0 C79.1045695,0 80,0.8954305 80,2 L80,16 L73,16 L73,2 C73,0.8954305 73.8954305,0 75,0 Z" id="Shape" fill="#FC9FAE" fill-rule="nonzero"></path>
        <path d="M127,83 L208,83 C210.209139,83 212,84.790861 212,87 L212,219 L127,219 L127,83 Z" id="Shape" fill="url(#linearGradient-4)"></path>
        <path d="M145,114 L157,114 C158.104569,114 159,114.895431 159,116 L159,201 C159,202.104569 158.104569,203 157,203 L145,203 C143.895431,203 143,202.104569 143,201 L143,116 C143,114.895431 143.895431,114 145,114 Z M178,114 L190,114 C191.104569,114 192,114.895431 192,116 L192,201 C192,202.104569 191.104569,203 190,203 L178,203 C176.895431,203 176,202.104569 176,201 L176,116 C176,114.895431 176.895431,114 178,114 Z" id="Shape" fill="url(#linearGradient-5)" opacity="0.965587798"></path>
        <path d="M145,69 L193,69 C194.104569,69 195,69.8954305 195,71 L195,85 L143,85 L143,71 C143,69.8954305 143.895431,69 145,69 Z" id="Shape" fill="#F78972" fill-rule="nonzero"></path>
        <path d="M24.2565006,286.537909 C-10.7450105,246.273277 -6.47840757,185.258012 33.786225,150.256501 C74.0508577,115.254989 135.066123,119.521592 170.067634,159.786225 C205.069145,200.050858 200.802542,261.066123 160.537909,296.067634 C120.273277,331.069145 59.2580117,326.802542 24.2565006,286.537909 Z" id="Shape" fill="url(#linearGradient-1)"></path>
        <path d="M29.3857615,154.323781 C56.7153089,172.634637 66.5115813,190.081153 58.7745786,206.663327 C47.1468356,231.584252 15.2584226,238.69861 29.0550136,263.274276 C38.252741,279.658054 40.7475439,290.905667 36.5394224,297.017114 L34.2771563,296.508342 C30.7498802,293.476502 27.3983859,290.152235 24.2565006,286.537909 C-9.42539149,247.791325 -6.74430794,189.829284 29.3857615,154.323781 L29.3857615,154.323781 Z" id="Shape" fill="url(#linearGradient-6)"></path>
        <path d="M186.283211,185.823129 C201.96143,223.22674 192.818006,268.006974 160.537909,296.067634 C132.232535,320.67312 93.6724917,325.87286 61.1039388,312.802894 L60.9056506,309.791014 C72.155293,295.607853 83.124975,287.184315 93.8146966,284.520402 C109.849279,280.524531 100.822001,308.337464 118.750692,303.343459 C136.679382,298.349453 121.606676,284.648312 142.936423,278.722927 C164.266171,272.797542 158.069571,249.181021 147.826757,227.625654 C140.998215,213.25541 153.265664,198.659739 184.629104,183.838641 L186.283211,185.823129 L186.283211,185.823129 Z" id="Shape" fill="url(#linearGradient-7)"></path>
        <path d="M116.857316,159.717508 C128.977309,170.256125 139.734464,156.734103 143.540117,172.145553 C147.34577,187.557004 116.44747,185.519804 111.17739,200.278043 C105.907309,215.036282 90.5376969,203.029126 87.8702681,188.124516 C85.2028392,173.219905 56.6605496,162.205715 63.618375,149.083403 C70.5762004,135.96109 98.701297,131.215273 105.615719,139.169405 C112.53014,147.123537 104.737322,149.178891 116.857316,159.717508 Z" id="Shape" fill="url(#linearGradient-8)"></path>
        <path d="M141.230769,240.694915 L214.694099,187.076023 C217.855156,184.768853 222.144844,184.768853 225.305901,187.076023 L298.769231,240.694915 L300,240.694915 L300,335 C300,339.970563 295.970563,344 291,344 L149,344 C144.029437,344 140,339.970563 140,335 L140,240.694915 L141.230769,240.694915 Z" id="Shape" fill="#3AC5B1" fill-rule="nonzero"></path>
        <path d="M180,178 L239.314233,178 L275.824081,215.920289 L275.824081,314.646586 C275.824081,323.483142 268.660637,330.646586 259.824081,330.646586 L180,330.646586 C171.163444,330.646586 164,323.483142 164,314.646586 L164,194 C164,185.163444 171.163444,178 180,178 Z" id="Shape" fill="url(#linearGradient-9)"></path>
        <path d="M177.957606,209.377354 L234.757606,209.377354 C235.641262,209.377354 236.357606,210.093698 236.357606,210.977354 L236.357606,212.017537 C236.357606,212.901192 235.641262,213.617537 234.757606,213.617537 L177.957606,213.617537 C177.073951,213.617537 176.357606,212.901192 176.357606,212.017537 L176.357606,210.977354 C176.357606,210.093698 177.073951,209.377354 177.957606,209.377354 Z M177.957606,217.009683 L257.281038,217.009683 C258.164694,217.009683 258.881038,217.726028 258.881038,218.609683 L258.881038,219.649866 C258.881038,220.533522 258.164694,221.249866 257.281038,221.249866 L177.957606,221.249866 C177.073951,221.249866 176.357606,220.533522 176.357606,219.649866 L176.357606,218.609683 C176.357606,217.726028 177.073951,217.009683 177.957606,217.009683 Z M177.957606,224.642012 L240.337996,224.642012 C241.221651,224.642012 241.937996,225.358357 241.937996,226.242012 L241.937996,227.282195 C241.937996,228.165851 241.221651,228.882195 240.337996,228.882195 L177.957606,228.882195 C177.073951,228.882195 176.357606,228.165851 176.357606,227.282195 L176.357606,226.242012 C176.357606,225.358357 177.073951,224.642012 177.957606,224.642012 Z M246.926604,224.642012 L257.281038,224.642012 C258.164694,224.642012 258.881038,225.358357 258.881038,226.242012 L258.881038,227.282195 C258.881038,228.165851 258.164694,228.882195 257.281038,228.882195 L246.926604,228.882195 C246.042949,228.882195 245.326604,228.165851 245.326604,227.282195 L245.326604,226.242012 C245.326604,225.358357 246.042949,224.642012 246.926604,224.642012 Z M177.957606,238.210598 L211.866474,238.210598 C212.75013,238.210598 213.466474,238.926942 213.466474,239.810598 L213.466474,240.850781 C213.466474,241.734437 212.75013,242.450781 211.866474,242.450781 L177.957606,242.450781 C177.073951,242.450781 176.357606,241.734437 176.357606,240.850781 L176.357606,239.810598 C176.357606,238.926942 177.073951,238.210598 177.957606,238.210598 Z M177.957606,245.842927 L257.281038,245.842927 C258.164694,245.842927 258.881038,246.559272 258.881038,247.442927 L258.881038,248.48311 C258.881038,249.366766 258.164694,250.08311 257.281038,250.08311 L177.957606,250.08311 C177.073951,250.08311 176.357606,249.366766 176.357606,248.48311 L176.357606,247.442927 C176.357606,246.559272 177.073951,245.842927 177.957606,245.842927 Z M177.957606,253.475257 L207.281038,253.475257 C208.164694,253.475257 208.881038,254.191601 208.881038,255.075257 L208.881038,256.11544 C208.881038,256.999095 208.164694,257.71544 207.281038,257.71544 L177.957606,257.71544 C177.073951,257.71544 176.357606,256.999095 176.357606,256.11544 L176.357606,255.075257 C176.357606,254.191601 177.073951,253.475257 177.957606,253.475257 Z M217.957606,253.475257 L257.281038,253.475257 C258.164694,253.475257 258.881038,254.191601 258.881038,255.075257 L258.881038,256.11544 C258.881038,256.999095 258.164694,257.71544 257.281038,257.71544 L217.957606,257.71544 C217.073951,257.71544 216.357606,256.999095 216.357606,256.11544 L216.357606,255.075257 C216.357606,254.191601 217.073951,253.475257 217.957606,253.475257 Z M177.957606,260.259549 L257.281038,260.259549 C258.164694,260.259549 258.881038,260.975894 258.881038,261.859549 L258.881038,262.899732 C258.881038,263.783388 258.164694,264.499732 257.281038,264.499732 L177.957606,264.499732 C177.073951,264.499732 176.357606,263.783388 176.357606,262.899732 L176.357606,261.859549 C176.357606,260.975894 177.073951,260.259549 177.957606,260.259549 Z M188.567412,297.573159 C184.356589,297.573159 180.943043,294.156049 180.943043,289.94083 C180.943043,285.725611 184.356589,282.308501 188.567412,282.308501 C192.778234,282.308501 196.191781,285.725611 196.191781,289.94083 C196.191781,294.156049 192.778234,297.573159 188.567412,297.573159 Z M207.957606,279.764391 L231.866474,279.764391 C232.75013,279.764391 233.466474,280.480735 233.466474,281.364391 L233.466474,282.404574 C233.466474,283.288229 232.75013,284.004574 231.866474,284.004574 L207.957606,284.004574 C207.073951,284.004574 206.357606,283.288229 206.357606,282.404574 L206.357606,281.364391 C206.357606,280.480735 207.073951,279.764391 207.957606,279.764391 Z M207.957606,287.39672 L257.281038,287.39672 C258.164694,287.39672 258.881038,288.113065 258.881038,288.99672 L258.881038,290.036903 C258.881038,290.920559 258.164694,291.636903 257.281038,291.636903 L207.957606,291.636903 C207.073951,291.636903 206.357606,290.920559 206.357606,290.036903 L206.357606,288.99672 C206.357606,288.113065 207.073951,287.39672 207.957606,287.39672 Z M207.957606,295.02905 L240.337996,295.02905 C241.221651,295.02905 241.937996,295.745394 241.937996,296.62905 L241.937996,297.669232 C241.937996,298.552888 241.221651,299.269232 240.337996,299.269232 L207.957606,299.269232 C207.073951,299.269232 206.357606,298.552888 206.357606,297.669232 L206.357606,296.62905 C206.357606,295.745394 207.073951,295.02905 207.957606,295.02905 Z" id="Shape" fill="#FFFFFF" fill-rule="nonzero"></path>
        <path d="M246.926604,295.02905 L257.281038,295.02905 C258.164694,295.02905 258.881038,295.745394 258.881038,296.62905 L258.881038,297.669232 C258.881038,298.552888 258.164694,299.269232 257.281038,299.269232 L246.926604,299.269232 C246.042949,299.269232 245.326604,298.552888 245.326604,297.669232 L245.326604,296.62905 C245.326604,295.745394 246.042949,295.02905 246.926604,295.02905 Z" id="Shape" fill="#FFFFFF" fill-rule="nonzero"></path>
        <path d="M239.396539,178.166181 L276.430412,215.238718 L256.339582,215.238718 C246.982198,215.238718 239.396539,207.64514 239.396539,198.277987 L239.396539,178.166181 Z" id="Shape" fill="#AABDEE" fill-rule="nonzero"></path>
        <path d="M140,240.694915 L215.230033,287.713367 C218.148454,289.537368 221.851546,289.537368 224.769967,287.713367 L300,240.694915 L300,335 C300,339.970563 295.970563,344 291,344 L149,344 C144.029437,344 140,339.970563 140,335 L140,240.694915 Z" id="Shape" fill="url(#linearGradient-10)"></path>
        <path d="M225.197663,291.083686 L300,344 L140,344 L214.802337,291.083686 C217.917149,288.88022 222.082851,288.88022 225.197663,291.083686 Z" id="Shape" fill="url(#linearGradient-11)"></path>
        <path d="M236,118 L269,118 C270.104569,118 271,118.895431 271,120 L271,121.305556 C271,122.410125 270.104569,123.305556 269,123.305556 L236,123.305556 C234.895431,123.305556 234,122.410125 234,121.305556 L234,120 C234,118.895431 234.895431,118 236,118 Z M236,128 L289,128 C290.104569,128 291,128.895431 291,130 L291,131.305556 C291,132.410125 290.104569,133.305556 289,133.305556 L236,133.305556 C234.895431,133.305556 234,132.410125 234,131.305556 L234,130 C234,128.895431 234.895431,128 236,128 Z" id="Shape" fill="#2FB9FB" fill-rule="nonzero"></path>
      </g>
    </g>
  </g>
</svg>
