<svg xml:space="preserve" style="enable-background:new 0 0 1024 1024;" viewBox="0 0 1024 1024" y="0px" x="0px" xmlns:xlink="http://www.w3.org/1999/xlink" xmlns="http://www.w3.org/2000/svg" id="图层_1" version="1.1">
<style type="text/css">
	.st0{fill:url(#SVGID_1_);}
	.st1{fill:url(#SVGID_2_);}
	.st2{fill:url(#SVGID_3_);}
	.st3{opacity:0.6;}
	.st4{fill:#7AA1F8;}
	.st5{fill:url(#SVGID_4_);}
	.st6{fill:url(#SVGID_5_);}
	.st7{fill:url(#SVGID_6_);}
	.st8{fill:url(#SVGID_7_);}
	.st9{fill-rule:evenodd;clip-rule:evenodd;fill:#F5986A;}
	.st10{fill-rule:evenodd;clip-rule:evenodd;fill:#F8AD72;}
	.st11{fill-rule:evenodd;clip-rule:evenodd;fill:#272B73;}
	.st12{fill-rule:evenodd;clip-rule:evenodd;fill:#262A71;}
	.st13{fill-rule:evenodd;clip-rule:evenodd;fill:#2B3682;}
	.st14{fill-rule:evenodd;clip-rule:evenodd;fill:#7AA1F8;}
	.st15{fill-rule:evenodd;clip-rule:evenodd;fill:#EF8D61;}
	.st16{fill-rule:evenodd;clip-rule:evenodd;fill:#151145;}
	.st17{fill-rule:evenodd;clip-rule:evenodd;fill:#27327B;}
</style>
<linearGradient y2="844.5875" x2="512.3846" y1="492.4675" x1="512.3846" gradientUnits="userSpaceOnUse" id="SVGID_1_">
	<stop style="stop-color:#D0DDF8" offset="4.528621e-07"></stop>
	<stop style="stop-color:#FFFFFF" offset="1"></stop>
</linearGradient>
<ellipse ry="176.06" rx="370.98" cy="668.53" cx="512.38" class="st0"></ellipse>
<linearGradient y2="506.6409" x2="592.1512" y1="765.4792" x1="741.5916" gradientUnits="userSpaceOnUse" id="SVGID_2_">
	<stop style="stop-color:#FFFFFF;stop-opacity:0" offset="0"></stop>
	<stop style="stop-color:#9DB9E0" offset="1"></stop>
</linearGradient>
<polygon points="842.13,707.43 622.15,790.79 509.31,575.6 563.38,523.25" class="st1"></polygon>
<linearGradient y2="561.2625" x2="512.3846" y1="177.874" x1="512.3846" gradientUnits="userSpaceOnUse" id="SVGID_3_">
	<stop style="stop-color:#D0DDF8" offset="4.528621e-07"></stop>
	<stop style="stop-color:#FFFFFF;stop-opacity:0" offset="1"></stop>
</linearGradient>
<path d="M728.91,228.6v332.66H295.86c0.72-165.43,1.39-190.87,2.12-356.36h96.99c0.18,29.51,0.18,42.33,0,42.81v0.06
	c0,0,0.12-0.06,0.18-0.12v-0.18c0-8.71,7.01-15.72,15.72-15.72c8.71,0,15.72,7.01,15.72,15.72v9.31h69.29v-78.91h62.16v113.74
	c-0.06,0.24-0.06,0.42-0.06,0.67v38.27c0,5.62,4.53,10.16,10.16,10.16c5.56,0,10.1-4.53,10.1-10.16v-29.81
	c19.53-0.06,33.68-0.12,43.05-0.12c9.37,0,13.97,0.06,14.39,0.12c1.51-0.18,0-23.1,0-23.1h29.57v27.15c0,4.11,3.33,7.44,7.44,7.44
	c4.11,0,7.44-3.33,7.44-7.44V228.6H728.91z" class="st2"></path>
<g class="st3">
	<g>
		<path d="M326.97,211.29c-6.42,0-11.65-5.22-11.65-11.65s5.22-11.65,11.65-11.65s11.65,5.22,11.65,11.65
			S333.39,211.29,326.97,211.29z M326.97,194.47c-2.85,0-5.17,2.32-5.17,5.17c0,2.85,2.32,5.17,5.17,5.17
			c2.85,0,5.17-2.32,5.17-5.17C332.14,196.79,329.82,194.47,326.97,194.47z" class="st4"></path>
	</g>
	<g>
		<circle r="8.41" cy="380.94" cx="324.87" class="st4"></circle>
	</g>
	<g>
		<circle r="17.62" cy="486.75" cx="649.28" class="st4"></circle>
	</g>
	<g>
		<circle r="6.95" cy="305.12" cx="633.56" class="st4"></circle>
	</g>
	<g>
		<circle r="5.99" cy="250.08" cx="733.74" class="st4"></circle>
	</g>
	<g>
		<circle r="8.28" cy="386.23" cx="797.81" class="st4"></circle>
	</g>
	<g>
		<circle r="7.83" cy="620.75" cx="679.65" class="st4"></circle>
	</g>
	<g>
		<path d="M569.48,219.69c-6.42,0-11.65-5.22-11.65-11.65s5.22-11.65,11.65-11.65s11.65,5.22,11.65,11.65
			S575.9,219.69,569.48,219.69z M569.48,202.88c-2.85,0-5.17,2.32-5.17,5.17c0,2.85,2.32,5.17,5.17,5.17c2.85,0,5.17-2.32,5.17-5.17
			C574.65,205.2,572.33,202.88,569.48,202.88z" class="st4"></path>
	</g>
	<g>
		<path d="M453.32,677.46c-6.42,0-11.65-5.22-11.65-11.65s5.22-11.65,11.65-11.65s11.65,5.22,11.65,11.65
			S459.74,677.46,453.32,677.46z M453.32,660.64c-2.85,0-5.17,2.32-5.17,5.17c0,2.85,2.32,5.17,5.17,5.17
			c2.85,0,5.17-2.32,5.17-5.17C458.49,662.96,456.17,660.64,453.32,660.64z" class="st4"></path>
	</g>
	<g>
		<path d="M244.71,484.63h-22.48c-1.96,0-3.55-1.59-3.55-3.55l0,0c0-1.96,1.59-3.55,3.55-3.55h22.48
			c1.96,0,3.55,1.59,3.55,3.55l0,0C248.26,483.04,246.67,484.63,244.71,484.63z" class="st4"></path>
	</g>
	<g>
		<path d="M229.78,492.18v-22.2c0-2.04,1.65-3.69,3.69-3.69l0,0c2.04,0,3.69,1.65,3.69,3.69v22.2
			c0,2.04-1.65,3.69-3.69,3.69l0,0C231.43,495.87,229.78,494.22,229.78,492.18z" class="st4"></path>
	</g>
	<g>
		<path d="M244.79,333.46h-14.6c-1.27,0-2.3-1.03-2.3-2.3l0,0c0-1.27,1.03-2.3,2.3-2.3h14.6c1.27,0,2.3,1.03,2.3,2.3
			l0,0C247.09,332.43,246.06,333.46,244.79,333.46z" class="st4"></path>
	</g>
	<g>
		<path d="M235.09,338.36v-14.41c0-1.32,1.07-2.4,2.4-2.4l0,0c1.32,0,2.4,1.07,2.4,2.4v14.41c0,1.32-1.07,2.4-2.4,2.4
			l0,0C236.17,340.76,235.09,339.68,235.09,338.36z" class="st4"></path>
	</g>
	<g>
		<path d="M435.92,289.51c-6.67-9.69-13.34-19.37-20.01-29.06c1.13-2.15,2.26-4.3,3.39-6.44
			c4.97,0.26,9.95,0.53,14.92,0.79C434.79,266.37,435.35,277.94,435.92,289.51z" class="st4"></path>
	</g>
	<g>
		<path d="M428.51,293.91c-9.25-1.7-18.49-3.41-27.74-5.11c-0.57-1.85-1.15-3.71-1.73-5.56
			c2.96-2.66,5.92-5.33,8.88-7.99C414.79,281.47,421.65,287.69,428.51,293.91z" class="st4"></path>
	</g>
	<g>
		<path d="M440.51,284.91c0.69-8.3,1.39-16.6,2.08-24.9c1.58-0.67,3.17-1.34,4.75-2.01c2.61,2.38,5.21,4.76,7.82,7.13
			C450.28,271.72,445.39,278.31,440.51,284.91z" class="st4"></path>
	</g>
</g>
<g>
	<linearGradient y2="448.8921" x2="673.7842" y1="448.8921" x1="360.2654" gradientUnits="userSpaceOnUse" id="SVGID_4_">
		<stop style="stop-color:#DFE7F8" offset="4.475343e-07"></stop>
		<stop style="stop-color:#4D82F8" offset="1"></stop>
	</linearGradient>
	<path d="M649.49,340.39L649.49,340.39c-34.69-33.67-90.93-33.67-125.62,0l-6.85,6.65l-6.85-6.65
		c-34.69-33.67-90.93-33.67-125.62,0l0,0c-32.39,31.44-32.39,82.4,0,113.84l132.31,128.42l0.16-0.15l0.16,0.15l132.31-128.42
		C681.88,422.79,681.88,371.82,649.49,340.39z" class="st5"></path>
	<linearGradient y2="534.3726" x2="582.3899" y1="298.6684" x1="446.3061" gradientUnits="userSpaceOnUse" id="SVGID_5_">
		<stop style="stop-color:#DFE7F8" offset="4.475343e-07"></stop>
		<stop style="stop-color:#4D82F8" offset="1"></stop>
	</linearGradient>
	<path d="M633.32,343.05L633.32,343.05c-33.86-32.87-88.76-32.87-122.63,0l-6.68,6.49l-6.68-6.49
		c-33.86-32.87-88.76-32.87-122.63,0l0,0c-31.62,30.69-31.62,80.44,0,111.12l129.16,125.36l0.15-0.15l0.15,0.15l129.16-125.36
		C664.94,423.49,664.94,373.74,633.32,343.05z" class="st6"></path>
	<linearGradient y2="555.8866" x2="642.6148" y1="555.8866" x1="547.7287" gradientUnits="userSpaceOnUse" id="SVGID_6_">
		<stop style="stop-color:#DFE7F8" offset="4.475343e-07"></stop>
		<stop style="stop-color:#4D82F8" offset="1"></stop>
	</linearGradient>
	<path d="M635.26,523.05L635.26,523.05c-10.5-10.19-27.52-10.19-38.02,0l-2.07,2.01l-2.07-2.01
		c-10.5-10.19-27.52-10.19-38.02,0l0,0c-9.8,9.51-9.8,24.94,0,34.45l40.04,38.87l0.05-0.05l0.05,0.05l40.04-38.87
		C645.07,547.99,645.07,532.56,635.26,523.05z" class="st7"></path>
	<linearGradient y2="581.7571" x2="614.9544" y1="510.4216" x1="573.7688" gradientUnits="userSpaceOnUse" id="SVGID_7_">
		<stop style="stop-color:#DFE7F8" offset="4.475343e-07"></stop>
		<stop style="stop-color:#4D82F8" offset="1"></stop>
	</linearGradient>
	<path d="M630.37,523.85L630.37,523.85c-10.25-9.95-26.86-9.95-37.11,0l-2.02,1.96l-2.02-1.96
		c-10.25-9.95-26.86-9.95-37.11,0l0,0c-9.57,9.29-9.57,24.34,0,33.63l39.09,37.94l0.05-0.04l0.05,0.04l39.09-37.94
		C639.94,548.2,639.94,533.14,630.37,523.85z" class="st8"></path>
</g>
<g>
	<path d="M607.84,265.88c1.73,0,3.14,1.52,3.14,3.4v10.46c0,1.88-1.4,3.4-3.14,3.4
		c-1.73,0-3.14-1.52-3.14-3.4v-10.46C604.7,267.4,606.11,265.88,607.84,265.88z" class="st9" id="圆角矩形-5_16_"></path>
	<path d="M603.66,260.13c5.6-0.38,6.46,3.35,6.31,6.22c0.3-0.25,0.67-0.49,1.01-0.47
		c1.16,0.07,1.05,1.57,1.05,1.57s0.15,0.62-0.52,1.57c-0.5,0.72-1.9,1.3-2.42,1.5l-0.2,0.6c0,0-0.83,1.77-1.57,2.61
		c-1.04,1.19-1.57,1.57-1.57,1.57s-1,0.77-2.09,1.05c-1,0.25-2.09,0-2.09,0s-1.32-0.16-1.57-2.09c-0.15-1.19-0.21-2.68-0.21-4.16
		l0-0.37c0.02-2.81,0.21-5.41,0.21-5.41S600.33,260.35,603.66,260.13z" class="st10" id="Combined-shape-564_16_"></path>
	<path d="M605.75,264.83c0,0-3.42,0.65-5.23,0c-1.85-0.66-2.09-2.61-2.09-2.61
		s-0.05-1.46,0.52-2.61c0.45-0.91,1.57-1.57,1.57-1.57s0.95-0.7,2.09-0.52c0.91,0.14,1.57,1.05,1.57,1.05s1.19,1.18,2.09,1.57
		c0.93,0.4,2.09,0,2.09,0s1.82-0.42,3.14,1.05c2,2.23,1.57,5.23,1.57,5.23s-0.33,1.95-1.05,3.66c-0.58,1.4-1.57,2.09-1.57,2.09
		s-0.52,0.38-1.05,0c-0.59-0.43,0-1.05,0-1.05l0.52-1.05c0,0,2.06,0,2.09-3.14c0.01-0.52-1.05-0.52-1.05-0.52s-0.6-0.01-1.05,0.52
		c-0.25,0.29-0.52,1.57-0.52,1.57s-0.22-2.55-1.05-3.14C607.37,264.65,605.75,264.83,605.75,264.83z" class="st11" id="形状-17_16_"></path>
	<path d="M566.88,330.93l-0.19,5.75l-15.68-0.52c0,0-0.09-1.74,1.67-3.08
		c1.76-1.34,5.26-0.87,5.26-0.87s1.22,0.1,2.11-0.45c0.69-0.43,1.08-1.01,1.08-1.01L566.88,330.93z" class="st12" id="形状-30-拷贝_16_"></path>
	<path d="M583.89,333.11v5.75H568.2c0,0-0.15-1.73,1.57-3.14c1.71-1.4,5.23-1.05,5.23-1.05
		s1.22,0.06,2.09-0.52c0.67-0.45,1.05-1.05,1.05-1.05H583.89z" class="st13" id="形状-30_16_"></path>
	<path d="M621.96,323.65v-36.33c0,0,0.04-1.99-1.04-3.66c-1.07-1.66-3.14-2.62-3.14-2.62l-6.8-3.66
		c0,0-0.57,1.5-1.57,2.61c-1.31,1.46-3.14,2.62-3.14,2.62s-0.7-0.36-1.04-1.05c-0.44-0.86-0.53-2.09-0.53-2.09s-3.81,0.34-6.27,2.62
		c-2.26,2.09-2.62,4.7-2.62,4.7v18.44v5.54v11.48v1.06c0.59,0.32,1.15,0.58,1.66,0.82c6.29,2.92,9.12,2.26,9.98,2.02
		c0.79-0.22,1.5-0.53,2.14-0.9c1.36,0.96,2.59,1.76,3.75,2.33h6.37L621.96,323.65z" class="st14"></path>
	<path d="M634.07,319.83c0,0,2.09,1.64,2.74,2.48c0.54,0.69-1.02,0.58-1.02,0.58
		s-0.06,0.44,0.58,1.02c0.27,0.25,1.36,0.81,1.62,0.96c0.44,0.25,0.55,0.5,0.55,0.5s0.9,1.92-2.5,2.22
		c-1.89,0.17-6.45-3.34-6.45-3.34L634.07,319.83z" class="st15" id="形状-26_12_"></path>
	<path d="M621.13,284.49c4.33,11.65,8.65,23.31,12.98,34.96c-1.62,0.87-3.23,1.73-4.85,2.6
		c-2.87-7.33-5.73-14.65-8.6-21.98C620.83,294.88,620.98,289.68,621.13,284.49z" class="st14"></path>
	<path d="M613.8,321.13c-0.66,1.04-2.03,2.89-4.21,4.12c-0.64,0.37-1.35,0.68-2.14,0.9c-0.86,0.24-3.69,0.9-9.98-2.02
		c-0.51-0.24-1.07-0.5-1.66-0.82c-0.16-0.08-0.33-0.16-0.5-0.26c-2.23-1.2-4.92-2.92-7.74-5.39c-0.95-0.83-1.92-1.75-2.9-2.76
		c-1.34,2.21-2.96,4.59-4.91,7.04c-3.32,4.17-6.73,7.43-9.75,9.92c-2.5-1.02-5-2.04-7.5-3.05c6.77-7.81,13.54-15.62,20.31-23.43
		c3.21,1.14,6.62,2.48,10.18,4.09c0.93,0.41,1.86,0.84,2.81,1.3c0.19,0.09,0.38,0.18,0.57,0.27
		C603.12,314.29,608.93,317.8,613.8,321.13z" class="st16"></path>
	<path d="M621.96,323.65c0,0.5-0.08,0.99-0.24,1.46c-0.41,1.17-1.27,1.98-2.01,2.47c-0.66,0.46-1.23,0.66-1.29,0.69
		c-1.59,0.56-3.23,0.23-5.08-0.69c-1.16-0.57-2.39-1.37-3.75-2.33c-0.83-0.58-1.71-1.22-2.64-1.91c-2.14-1.58-4.97-3.89-8-7.07
		c-0.82,1.85-1.85,3.87-3.14,5.98c-0.16,0.27-0.32,0.53-0.5,0.8c-0.14,0.23-0.28,0.45-0.43,0.68c-3.29,5-6.92,8.67-9.93,11.23
		c-2.43-0.92-4.87-1.85-7.3-2.77c0.59-0.74,1.18-1.49,1.77-2.23c2.71-4.1,5.43-8.2,8.15-12.3c1.81-2.73,3.62-5.46,5.43-8.19
		c0.94-1.42,1.87-2.83,2.81-4.24c0.43-0.65,0.87-1.31,1.3-1.96c6.42,1.76,10.92,4.5,13.69,6.54
		C612.14,310.79,621.96,317.98,621.96,323.65z" class="st17"></path>
</g>
</svg>
