<?xml version="1.0" encoding="UTF-8"?>
<svg width="322px" height="354px" viewBox="0 0 322 354" version="1.1" xmlns="http://www.w3.org/2000/svg" xmlns:xlink="http://www.w3.org/1999/xlink">
  <title>office, world, chat@2x</title>
  <defs>
    <linearGradient x1="50%" y1="0%" x2="50%" y2="100%" id="linearGradient-1">
      <stop stop-color="#FB65BC" offset="0%"></stop>
      <stop stop-color="#FCAFA9" offset="100%"></stop>
    </linearGradient>
    <linearGradient x1="50%" y1="-108.036091%" x2="50%" y2="127.882425%" id="linearGradient-2">
      <stop stop-color="#FFF2F2" stop-opacity="0.139407835" offset="0%"></stop>
      <stop stop-color="#FEFAF9" offset="100%"></stop>
    </linearGradient>
    <linearGradient x1="50%" y1="-42.9786065%" x2="50%" y2="100%" id="linearGradient-3">
      <stop stop-color="#5174D0" offset="0%"></stop>
      <stop stop-color="#1F2480" offset="100%"></stop>
    </linearGradient>
    <linearGradient x1="50%" y1="0%" x2="50%" y2="100%" id="linearGradient-4">
      <stop stop-color="#966AFF" offset="0%"></stop>
      <stop stop-color="#E885E0" offset="100%"></stop>
    </linearGradient>
    <linearGradient x1="50%" y1="0%" x2="50%" y2="100%" id="linearGradient-5">
      <stop stop-color="#966AFF" offset="0%"></stop>
      <stop stop-color="#E885E0" offset="100%"></stop>
    </linearGradient>
    <linearGradient x1="50%" y1="0%" x2="50%" y2="100%" id="linearGradient-6">
      <stop stop-color="#966AFF" offset="0%"></stop>
      <stop stop-color="#E885E0" offset="100%"></stop>
    </linearGradient>
    <linearGradient x1="50%" y1="0%" x2="50%" y2="100%" id="linearGradient-7">
      <stop stop-color="#9D61F7" offset="0%"></stop>
      <stop stop-color="#00DEFC" offset="100%"></stop>
    </linearGradient>
    <linearGradient x1="50%" y1="0%" x2="50%" y2="100%" id="linearGradient-8">
      <stop stop-color="#9D61F7" offset="0%"></stop>
      <stop stop-color="#00DEFC" offset="100%"></stop>
    </linearGradient>
    <linearGradient x1="50%" y1="-108.036091%" x2="50%" y2="127.882425%" id="linearGradient-9">
      <stop stop-color="#FFF2F2" stop-opacity="0.139407835" offset="0%"></stop>
      <stop stop-color="#FEFAF9" offset="100%"></stop>
    </linearGradient>
    <linearGradient x1="50%" y1="0%" x2="50%" y2="100%" id="linearGradient-10">
      <stop stop-color="#FB65BC" offset="0%"></stop>
      <stop stop-color="#FCAFA9" offset="100%"></stop>
    </linearGradient>
    <linearGradient x1="50%" y1="-108.036091%" x2="50%" y2="127.882425%" id="linearGradient-11">
      <stop stop-color="#FFF2F2" stop-opacity="0.139407835" offset="0%"></stop>
      <stop stop-color="#FEFAF9" offset="100%"></stop>
    </linearGradient>
  </defs>
  <g id="Page-1" stroke="none" stroke-width="1" fill="none" fill-rule="evenodd">
    <g id="Business---Icon-Illustration" transform="translate(-553.000000, -512.000000)">
      <g id="office,-world,-chat" transform="translate(553.000000, 512.000000)">
        <ellipse id="Shape" fill="#B6A0D1" fill-rule="nonzero" opacity="0.200000003" cx="161.5" cy="344" rx="142.5" ry="10"></ellipse>
        <path d="M8,0 L174,0 C178.418278,0 182,3.581722 182,8 L182,112 C182,116.418278 178.418278,120 174,120 L8,120 C3.581722,120 0,116.418278 0,112 L0,8 C0,3.581722 3.581722,0 8,0 Z" id="Shape" fill="url(#linearGradient-1)"></path>
        <path d="M12,26 L170,26 C174.418278,26 178,29.581722 178,34 L178,108 C178,112.418278 174.418278,116 170,116 L12,116 C7.581722,116 4,112.418278 4,108 L4,34 C4,29.581722 7.581722,26 12,26 Z" id="Shape" fill="url(#linearGradient-2)" opacity="0.965587798"></path>
        <path d="M132.354407,46.7439393 C132.851925,47.3505214 133.580274,48.2379562 133.855725,48.5671557 C137.286171,52.6669862 139.522748,54.2292352 142.556026,54.1052648 C149.444049,53.8237505 155.617118,48.8003167 161.059007,38.8084524 L158.17979,39.6152782 C157.382091,39.8388126 156.554217,39.3733601 156.330683,38.575661 C156.107148,37.7779619 156.572601,36.9500886 157.3703,36.7265541 L163.33184,35.0559876 C164.115143,34.8364873 164.930648,35.2813505 165.170118,36.0587809 L167.094057,42.3047618 C167.337929,43.0964803 166.893811,43.935992 166.102093,44.1798637 C165.310374,44.4237354 164.470863,43.9796178 164.226991,43.1878994 L163.454138,40.6788665 C157.603081,51.2283181 150.683085,56.7756155 142.678534,57.1027624 C138.437168,57.2761075 135.534795,55.2487993 131.554908,50.4923156 C131.232927,50.1075065 130.330092,49.0065316 129.851201,48.4225685 C129.317926,48.5948975 128.749031,48.6879995 128.158391,48.6879995 C125.120825,48.6879995 122.658391,46.2255657 122.658391,43.1879995 C122.658391,42.6905225 122.724439,42.2084719 122.848244,41.750138 C120.261717,40.2102356 117.563849,39.7669033 114.06839,40.2710291 C108.107296,41.1307564 103.426924,45.9388169 95.8926727,57.2146086 C95.5585346,57.714681 93.8401425,60.3007018 93.3564497,61.0227767 C92.3810036,62.4789594 91.5911904,63.6321116 90.8287531,64.7044828 C88.2275734,68.3630525 85.9143165,71.0730371 83.6496832,72.8758703 C83.6554628,72.9791778 83.6583913,73.0832467 83.6583913,73.1879995 C83.6583913,76.2255657 81.1959574,78.6879995 78.1583913,78.6879995 C75.9579595,78.6879995 74.0593366,77.395802 73.1799663,75.5288505 C70.1379115,75.3575397 67.3888309,74.8987255 63.7286144,74.0793835 C63.3240587,73.9888235 61.8672974,73.6585815 61.9386112,73.6746901 C55.355922,72.1877667 51.1050508,71.6586254 43.9771332,71.847376 C33.6433166,72.1210204 23.1639855,84.7099754 12.889155,109.881798 C12.5760788,110.648789 11.7005115,111.016759 10.9335208,110.703683 C10.1665301,110.390607 9.79855968,109.51504 10.1116359,108.748049 C20.803771,82.5538913 31.9491272,69.1648317 43.8977196,68.8484273 C51.3052113,68.6522734 55.7929348,69.2108977 62.5996094,70.7484158 C62.531929,70.7331279 63.9840705,71.0623226 64.383948,71.1518354 C67.6256176,71.8774854 70.0866076,72.3034816 72.702055,72.4916425 C73.0442995,69.7828426 75.356707,67.6879995 78.1583913,67.6879995 C79.9478397,67.6879995 81.5376908,68.542577 82.5420919,69.8658793 C84.3152993,68.287705 86.2223234,66.0061595 88.3837388,62.96612 C89.1275218,61.9199861 89.90273,60.7881579 90.8639843,59.353161 C91.3438125,58.6368554 93.0608926,56.0528091 93.3982647,55.5478966 C101.427494,43.5313188 106.487431,38.3333385 113.640152,37.3017511 C117.948423,36.680399 121.27909,37.2770612 124.407176,39.1657351 C125.389742,38.2489851 126.708554,37.6879995 128.158391,37.6879995 C131.195957,37.6879995 133.658391,40.1504334 133.658391,43.1879995 C133.658391,44.5438474 133.167783,45.7851075 132.354407,46.7439393 L132.354407,46.7439393 Z M78.1583913,75.6879995 C79.5391031,75.6879995 80.6583913,74.5687114 80.6583913,73.1879995 C80.6583913,71.8072877 79.5391031,70.6879995 78.1583913,70.6879995 C76.7776794,70.6879995 75.6583913,71.8072877 75.6583913,73.1879995 C75.6583913,74.5687114 76.7776794,75.6879995 78.1583913,75.6879995 Z M128.158391,45.6879995 C129.539103,45.6879995 130.658391,44.5687114 130.658391,43.1879995 C130.658391,41.8072877 129.539103,40.6879995 128.158391,40.6879995 C126.777679,40.6879995 125.658391,41.8072877 125.658391,43.1879995 C125.658391,44.5687114 126.777679,45.6879995 128.158391,45.6879995 Z" id="Shape" fill="#FFFFFF" fill-rule="nonzero"></path>
        <path d="M118.261703,63.1331855 C123.415846,63.6050779 127.232395,66.5413937 131.865221,72.1477801 C132.000059,72.3109526 133.441066,74.0715844 133.855725,74.5671557 C137.286171,78.6669862 139.522748,80.2292352 142.556026,80.1052648 C149.181957,79.8344623 158.142057,70.0841131 168.983731,50.8108405 L166.212474,51.3074798 C165.397037,51.4536147 164.61753,50.9110389 164.471395,50.0956028 C164.32526,49.2801667 164.867836,48.5006593 165.683272,48.3545243 L171.762788,47.2650094 C172.488526,47.1349494 173.201178,47.5516006 173.443828,48.2478276 L175.525434,54.2205047 C175.798075,55.0027826 175.384932,55.8579629 174.602654,56.1306036 C173.820376,56.4032442 172.965196,55.9901016 172.692555,55.2078238 L171.644471,52.2005921 C160.266538,72.4570298 150.763367,82.7723344 142.678534,83.1027624 C138.437168,83.2761075 135.534795,81.2487993 131.554908,76.4923156 C131.127745,75.9818005 129.678246,74.2107934 129.552633,74.0587833 C125.602757,69.2788648 122.526772,66.7891639 118.564152,66.207143 C118.086256,68.7577818 115.847737,70.6879995 113.158391,70.6879995 C111.271466,70.6879995 109.606475,69.7377829 108.615826,68.2897556 C105.1418,70.4931061 101.890233,74.5075675 97.7060697,80.9885218 C97.8447282,80.7737502 95.421599,84.5524902 94.7541294,85.5679557 C89.4536631,93.6319039 85.670052,97.164997 80.3570403,97.2130463 C75.7538637,97.2546761 71.8869654,95.5503122 66.7069374,91.839545 C66.1261829,91.4235154 65.5272143,90.9831484 64.772663,90.4199624 C64.4785186,90.2004175 63.1885335,89.2330685 62.8422594,88.9747998 C62.5106377,88.7274597 62.1845665,88.4867826 61.8636326,88.2526751 C60.8860878,89.1442858 59.5857351,89.6879995 58.1583913,89.6879995 C55.1208251,89.6879995 52.6583913,87.2255657 52.6583913,84.1879995 C52.6583913,83.7365547 52.7127817,83.2978134 52.815367,82.8779712 C49.9529534,81.7237572 47.1779339,81.2532933 43.9278673,81.3393566 C33.4585996,81.6165878 23.0421792,91.09623 12.8202839,110.027591 C12.4266886,110.756545 11.5166825,111.028407 10.7877282,110.634812 C10.058774,110.241217 9.78691182,109.331211 10.1805071,108.602256 C20.8598895,88.8236109 32.0353124,78.6532255 43.8484538,78.3404079 C47.7209046,78.2378636 50.9785833,78.8290127 54.3247387,80.2442519 C55.3153568,79.2811182 56.6676089,78.6879995 58.1583913,78.6879995 C61.1959574,78.6879995 63.6583913,81.1504334 63.6583913,84.1879995 C63.6583913,84.7109686 63.585401,85.2168898 63.4490519,85.6961318 C63.8379748,85.9785565 64.2333643,86.2698121 64.6358664,86.5700183 C64.9861669,86.8312901 66.2767032,87.7990524 66.5670961,88.0157974 C67.3072958,88.5682714 67.8916669,88.9979063 68.4540008,89.4007401 C73.1635244,92.7744565 76.5061647,94.2477498 80.3299103,94.213169 C84.2602929,94.1776238 87.4828843,91.1684045 92.2471985,83.9201397 C92.9036993,82.9213618 95.3158168,79.159794 95.185694,79.3613444 C99.8370948,72.1566736 103.488809,67.7173532 107.660174,65.329406 C107.658988,65.2824146 107.658391,65.2352767 107.658391,65.1879995 C107.658391,62.1504334 110.120825,59.6879995 113.158391,59.6879995 C115.469521,59.6879995 117.447712,61.1134817 118.261703,63.1331855 L118.261703,63.1331855 Z M113.158391,67.6879995 C114.539103,67.6879995 115.658391,66.5687114 115.658391,65.1879995 C115.658391,63.8072877 114.539103,62.6879995 113.158391,62.6879995 C111.777679,62.6879995 110.658391,63.8072877 110.658391,65.1879995 C110.658391,66.5687114 111.777679,67.6879995 113.158391,67.6879995 Z M58.1583913,86.6879995 C59.5391031,86.6879995 60.6583913,85.5687114 60.6583913,84.1879995 C60.6583913,82.8072877 59.5391031,81.6879995 58.1583913,81.6879995 C56.7776794,81.6879995 55.6583913,82.8072877 55.6583913,84.1879995 C55.6583913,85.5687114 56.7776794,86.6879995 58.1583913,86.6879995 Z" id="Shape" fill="#FFFFFF" fill-rule="nonzero"></path>
        <ellipse id="Shape" fill="#FFFFFF" fill-rule="nonzero" cx="14.2" cy="14.1860465" rx="4.2" ry="4.18604651"></ellipse>
        <ellipse id="Shape" fill="#FFFFFF" fill-rule="nonzero" cx="26.1" cy="14.1860465" rx="4.2" ry="4.18604651"></ellipse>
        <ellipse id="Shape" fill="#FFFFFF" fill-rule="nonzero" cx="38" cy="14.1860465" rx="4.2" ry="4.18604651"></ellipse>
        <path d="M17,54.5 C16.1715729,54.5 15.5,53.8284271 15.5,53 C15.5,52.1715729 16.1715729,51.5 17,51.5 C17.2127306,51.5 17.4206999,51.4737666 17.6213573,51.4225458 C18.4240455,51.2176477 19.2408555,51.7022523 19.4457536,52.5049405 C19.6506517,53.3076287 19.1660471,54.1244387 18.3633589,54.3293368 C17.9207233,54.4423261 17.4635042,54.5 17,54.5 Z M19.6638987,53.8126613 C18.9393615,54.2143295 18.0263917,53.9525924 17.6247235,53.2280551 C17.2230554,52.5035179 17.4847925,51.590548 18.2093297,51.1888799 C18.3922571,51.0874688 18.5621138,50.9631967 18.7146849,50.8193158 C19.3173841,50.2509453 20.2667238,50.2787741 20.8350944,50.8814734 C21.4034649,51.4841726 21.3756361,52.4335123 20.7729368,53.0018829 C20.4386862,53.3170952 20.0661034,53.5896875 19.6638987,53.8126613 Z M21.6591037,51.9237906 C21.2182716,52.6251882 20.2923115,52.8364182 19.5909139,52.3955861 C18.8895164,51.954754 18.6782863,51.0287939 19.1191185,50.3273963 C19.230162,50.1507175 19.3185625,49.9610312 19.3820747,49.7622996 C19.6342643,48.9731913 20.478403,48.5379327 21.2675113,48.7901222 C22.0566196,49.0423118 22.4918782,49.8864505 22.2396887,50.6755588 C22.0991525,51.1153005 21.9038365,51.5344021 21.6591037,51.9237906 Z M22.4970412,49.1816575 C22.4700391,50.0096445 21.7769335,50.658971 20.9489465,50.6319688 C20.1209596,50.6049667 19.4716331,49.9118611 19.4986352,49.0838742 C19.4997021,49.0451979 19.4997021,49.0451979 19.4999881,49.0097952 C19.4999956,48.814478 19.4800391,48.6317603 19.4404665,48.4537189 C19.2607212,47.6450267 19.7705835,46.8437398 20.5792758,46.6639945 C21.387968,46.4842493 22.1892549,46.9941116 22.3690002,47.8028038 C22.4562027,48.195137 22.4999838,48.5961731 22.4999838,49.0134694 C22.4993562,49.0977212 22.4993562,49.0977212 22.4970412,49.1816575 Z M21.8947314,46.4898455 C22.2731985,47.2267676 21.9826133,48.1309692 21.2456913,48.5094363 C20.5087692,48.8879034 19.6045676,48.5973182 19.2261005,47.8603962 C19.1306149,47.6744739 19.0118591,47.5009295 18.8729248,47.3439855 C18.3238108,46.723691 18.3815139,45.7756981 19.0018084,45.2265841 C19.6221029,44.67747 20.5700958,44.7351731 21.1192099,45.3554676 C21.4237859,45.6995251 21.6845453,46.0805872 21.8947314,46.4898455 Z M20.0699336,44.4360101 C20.7570181,44.8988345 20.9388168,45.8310198 20.4759924,46.5181043 C20.013168,47.2051887 19.0809827,47.3869875 18.3938982,46.9241631 C18.2206234,46.8074441 18.0336507,46.7129655 17.8370317,46.6431314 C17.0563815,46.3658646 16.6483088,45.5082534 16.9255756,44.7276033 C17.2028425,43.9469532 18.0604536,43.5388804 18.8411038,43.8161473 C19.2758576,43.9705607 19.688487,44.1790652 20.0699336,44.4360101 Z M17.3629619,43.5118408 C18.1896221,43.5659179 18.8159245,44.2798966 18.7618473,45.1065569 C18.7077702,45.9332171 17.9937915,46.5595195 17.1671313,46.5054424 C17.1158051,46.5020848 17.06416,46.5002745 17.0190731,46.5000457 C16.8414582,46.5000163 16.6839798,46.5145877 16.5290024,46.5440222 C15.7151246,46.6986003 14.9300359,46.1641323 14.7754578,45.3502545 C14.6208797,44.5363767 15.1553477,43.751288 15.9692256,43.5967099 C16.3103971,43.5319119 16.6554374,43.4999854 17.0264153,43.5000623 C17.1389574,43.5005947 17.2511778,43.5045283 17.3629619,43.5118408 Z M14.6455588,44.0283881 C15.3940942,43.6734427 16.2886421,43.9925105 16.6435875,44.741046 C16.9985328,45.4895814 16.679465,46.3841293 15.9309296,46.7390747 C15.7421796,46.8285773 15.565131,46.9417306 15.4039965,47.0756053 C14.7667959,47.6050077 13.8210773,47.51762 13.2916749,46.8804194 C12.7622725,46.2432188 12.8496602,45.2975002 13.4868608,44.7680978 C13.8403938,44.4743736 14.2295912,44.2256342 14.6455588,44.0283881 Z M12.5190035,45.8103076 C12.9998343,45.1357016 13.9365008,44.9786157 14.6111069,45.4594465 C15.2857129,45.9402773 15.4427988,46.8769438 14.961968,47.5515499 C14.8406117,47.7218129 14.7411276,47.9063535 14.6660558,48.1010601 C14.3680294,48.8740231 13.499821,49.2590353 12.726858,48.9610089 C11.953895,48.6629826 11.5688828,47.7947741 11.8669092,47.0218111 C12.0327784,46.5916118 12.2521045,46.1847672 12.5190035,45.8103076 Z M11.5266224,48.456522 C11.607762,47.632078 12.3418825,47.0295108 13.1663265,47.1106504 C13.9907705,47.19179 14.5933377,47.9259105 14.5121981,48.7503545 C14.5046663,48.8268833 14.5006013,48.904173 14.5000977,48.9723386 C14.5000334,49.1316343 14.5100688,49.2637283 14.5308159,49.3950559 C14.6600876,50.2133348 14.1015369,50.9814763 13.283258,51.110748 C12.4649791,51.2400197 11.6968376,50.681469 11.5675659,49.8631901 C11.5219206,49.5742593 11.4999711,49.2853413 11.5001328,48.9613524 C11.5013045,48.7921813 11.5101619,48.6237735 11.5266224,48.456522 Z M11.9565032,51.1964273 C11.6254492,50.4370231 11.9726957,49.5530321 12.7320999,49.2219781 C13.4915041,48.8909241 14.3754951,49.2381706 14.7065491,49.9975748 C14.789975,50.1889454 14.8973912,50.3692801 15.0260346,50.5343977 C15.5351786,51.187899 15.4181539,52.1304092 14.7646526,52.6395531 C14.1111513,53.1486971 13.1686411,53.0316724 12.6594971,52.3781711 C12.3769816,52.0155541 12.1405678,51.6186529 11.9565032,51.1964273 Z M13.7650659,53.4484038 C13.0953579,52.9607741 12.9477543,52.0225666 13.435384,51.3528586 C13.9230136,50.6831506 14.8612212,50.5355469 15.5309292,51.0231766 C15.7000128,51.1462902 15.8835982,51.2476766 16.0775533,51.3247427 C16.8474329,51.6306463 17.2235597,52.5027408 16.9176561,53.2726203 C16.6117525,54.0424999 15.739658,54.4186267 14.9697785,54.1127231 C14.5413759,53.9425019 14.1367992,53.7190713 13.7650659,53.4484038 Z M16.2764149,54.4526555 C15.4550877,54.3444283 14.8770058,53.5908756 14.985233,52.7695484 C15.0934602,51.9482212 15.8470129,51.3701394 16.6683401,51.4783665 C16.7697279,51.4917265 16.8725508,51.4989492 16.9765391,51.4998935 C17.804932,51.5074165 18.4703786,52.1850603 18.4628556,53.0134533 C18.4553326,53.8418463 17.7776888,54.5072928 16.9492958,54.4997698 C16.72326,54.4977171 16.4986513,54.4819398 16.2764149,54.4526555 Z M17,41.5 C16.1715729,41.5 15.5,40.8284271 15.5,40 C15.5,39.1715729 16.1715729,38.5 17,38.5 C17.2127306,38.5 17.4206999,38.4737666 17.6213573,38.4225458 C18.4240455,38.2176477 19.2408555,38.7022523 19.4457536,39.5049405 C19.6506517,40.3076287 19.1660471,41.1244387 18.3633589,41.3293368 C17.9207233,41.4423261 17.4635042,41.5 17,41.5 Z M19.6638987,40.8126613 C18.9393615,41.2143295 18.0263917,40.9525924 17.6247235,40.2280551 C17.2230554,39.5035179 17.4847925,38.590548 18.2093297,38.1888799 C18.3922571,38.0874688 18.5621138,37.9631967 18.7146849,37.8193158 C19.3173841,37.2509453 20.2667238,37.2787741 20.8350944,37.8814734 C21.4034649,38.4841726 21.3756361,39.4335123 20.7729368,40.0018829 C20.4386862,40.3170952 20.0661034,40.5896875 19.6638987,40.8126613 Z M21.6591037,38.9237906 C21.2182716,39.6251882 20.2923115,39.8364182 19.5909139,39.3955861 C18.8895164,38.954754 18.6782863,38.0287939 19.1191185,37.3273963 C19.230162,37.1507175 19.3185625,36.9610312 19.3820747,36.7622996 C19.6342643,35.9731913 20.478403,35.5379327 21.2675113,35.7901222 C22.0566196,36.0423118 22.4918782,36.8864505 22.2396887,37.6755588 C22.0991525,38.1153005 21.9038365,38.5344021 21.6591037,38.9237906 Z M22.4970412,36.1816575 C22.4700391,37.0096445 21.7769335,37.658971 20.9489465,37.6319688 C20.1209596,37.6049667 19.4716331,36.9118611 19.4986352,36.0838742 C19.4997021,36.0451979 19.4997021,36.0451979 19.4999881,36.0097952 C19.4999956,35.814478 19.4800391,35.6317603 19.4404665,35.4537189 C19.2607212,34.6450267 19.7705835,33.8437398 20.5792758,33.6639945 C21.387968,33.4842493 22.1892549,33.9941116 22.3690002,34.8028038 C22.4562027,35.195137 22.4999838,35.5961731 22.4999838,36.0134694 C22.4993562,36.0977212 22.4993562,36.0977212 22.4970412,36.1816575 Z M21.8947314,33.4898455 C22.2731985,34.2267676 21.9826133,35.1309692 21.2456913,35.5094363 C20.5087692,35.8879034 19.6045676,35.5973182 19.2261005,34.8603962 C19.1306149,34.6744739 19.0118591,34.5009295 18.8729248,34.3439855 C18.3238108,33.723691 18.3815139,32.7756981 19.0018084,32.2265841 C19.6221029,31.67747 20.5700958,31.7351731 21.1192099,32.3554676 C21.4237859,32.6995251 21.6845453,33.0805872 21.8947314,33.4898455 Z M20.0699336,31.4360101 C20.7570181,31.8988345 20.9388168,32.8310198 20.4759924,33.5181043 C20.013168,34.2051887 19.0809827,34.3869875 18.3938982,33.9241631 C18.2206234,33.8074441 18.0336507,33.7129655 17.8370317,33.6431314 C17.0563815,33.3658646 16.6483088,32.5082534 16.9255756,31.7276033 C17.2028425,30.9469532 18.0604536,30.5388804 18.8411038,30.8161473 C19.2758576,30.9705607 19.688487,31.1790652 20.0699336,31.4360101 Z M17.3629619,30.5118408 C18.1896221,30.5659179 18.8159245,31.2798966 18.7618473,32.1065569 C18.7077702,32.9332171 17.9937915,33.5595195 17.1671313,33.5054424 C17.1158051,33.5020848 17.06416,33.5002745 17.0190731,33.5000457 C16.8414582,33.5000163 16.6839798,33.5145877 16.5290024,33.5440222 C15.7151246,33.6986003 14.9300359,33.1641323 14.7754578,32.3502545 C14.6208797,31.5363767 15.1553477,30.751288 15.9692256,30.5967099 C16.3103971,30.5319119 16.6554374,30.4999854 17.0264153,30.5000623 C17.1389574,30.5005947 17.2511778,30.5045283 17.3629619,30.5118408 Z M14.6455588,31.0283881 C15.3940942,30.6734427 16.2886421,30.9925105 16.6435875,31.741046 C16.9985328,32.4895814 16.679465,33.3841293 15.9309296,33.7390747 C15.7421796,33.8285773 15.565131,33.9417306 15.4039965,34.0756053 C14.7667959,34.6050077 13.8210773,34.51762 13.2916749,33.8804194 C12.7622725,33.2432188 12.8496602,32.2975002 13.4868608,31.7680978 C13.8403938,31.4743736 14.2295912,31.2256342 14.6455588,31.0283881 Z M12.5190035,32.8103076 C12.9998343,32.1357016 13.9365008,31.9786157 14.6111069,32.4594465 C15.2857129,32.9402773 15.4427988,33.8769438 14.961968,34.5515499 C14.8406117,34.7218129 14.7411276,34.9063535 14.6660558,35.1010601 C14.3680294,35.8740231 13.499821,36.2590353 12.726858,35.9610089 C11.953895,35.6629826 11.5688828,34.7947741 11.8669092,34.0218111 C12.0327784,33.5916118 12.2521045,33.1847672 12.5190035,32.8103076 Z M11.5266224,35.456522 C11.607762,34.632078 12.3418825,34.0295108 13.1663265,34.1106504 C13.9907705,34.19179 14.5933377,34.9259105 14.5121981,35.7503545 C14.5046663,35.8268833 14.5006013,35.904173 14.5000977,35.9723386 C14.5000334,36.1316343 14.5100688,36.2637283 14.5308159,36.3950559 C14.6600876,37.2133348 14.1015369,37.9814763 13.283258,38.110748 C12.4649791,38.2400197 11.6968376,37.681469 11.5675659,36.8631901 C11.5219206,36.5742593 11.4999711,36.2853413 11.5001328,35.9613524 C11.5013045,35.7921813 11.5101619,35.6237735 11.5266224,35.456522 Z M11.9565032,38.1964273 C11.6254492,37.4370231 11.9726957,36.5530321 12.7320999,36.2219781 C13.4915041,35.8909241 14.3754951,36.2381706 14.7065491,36.9975748 C14.789975,37.1889454 14.8973912,37.3692801 15.0260346,37.5343977 C15.5351786,38.187899 15.4181539,39.1304092 14.7646526,39.6395531 C14.1111513,40.1486971 13.1686411,40.0316724 12.6594971,39.3781711 C12.3769816,39.0155541 12.1405678,38.6186529 11.9565032,38.1964273 Z M13.7650659,40.4484038 C13.0953579,39.9607741 12.9477543,39.0225666 13.435384,38.3528586 C13.9230136,37.6831506 14.8612212,37.5355469 15.5309292,38.0231766 C15.7000128,38.1462902 15.8835982,38.2476766 16.0775533,38.3247427 C16.8474329,38.6306463 17.2235597,39.5027408 16.9176561,40.2726203 C16.6117525,41.0424999 15.739658,41.4186267 14.9697785,41.1127231 C14.5413759,40.9425019 14.1367992,40.7190713 13.7650659,40.4484038 Z M16.2764149,41.4526555 C15.4550877,41.3444283 14.8770058,40.5908756 14.985233,39.7695484 C15.0934602,38.9482212 15.8470129,38.3701394 16.6683401,38.4783665 C16.7697279,38.4917265 16.8725508,38.4989492 16.9765391,38.4998935 C17.804932,38.5074165 18.4703786,39.1850603 18.4628556,40.0134533 C18.4553326,40.8418463 17.7776888,41.5072928 16.9492958,41.4997698 C16.72326,41.4977171 16.4986513,41.4819398 16.2764149,41.4526555 Z" id="Shape" fill="#FFFFFF" fill-rule="nonzero"></path>
        <path d="M201.5,64 C199.014719,64 197,61.9852814 197,59.5 C197,57.0147186 199.014719,55 201.5,55 C203.985281,55 206,57.0147186 206,59.5 C206,61.9852814 203.985281,64 201.5,64 Z M201.5,67 C205.642136,67 209,63.6421356 209,59.5 C209,55.3578644 205.642136,52 201.5,52 C197.357864,52 194,55.3578644 194,59.5 C194,63.6421356 197.357864,67 201.5,67 Z M201.5,70 C195.70101,70 191,65.2989899 191,59.5 C191,53.7010101 195.70101,49 201.5,49 C207.29899,49 212,53.7010101 212,59.5 C212,65.2989899 207.29899,70 201.5,70 Z M217.525424,61 C216.420854,61 215.525424,60.1045695 215.525424,59 C215.525424,57.8954305 216.420854,57 217.525424,57 L223.525424,57 C224.629993,57 225.525424,57.8954305 225.525424,59 C225.525424,60.1045695 224.629993,61 223.525424,61 L217.525424,61 Z M233.525424,61 C232.420854,61 231.525424,60.1045695 231.525424,59 C231.525424,57.8954305 232.420854,57 233.525424,57 L239.525424,57 C240.629993,57 241.525424,57.8954305 241.525424,59 C241.525424,60.1045695 240.629993,61 239.525424,61 L233.525424,61 Z M249.525424,61 C248.420854,61 247.525424,60.1045695 247.525424,59 C247.525424,57.8954305 248.420854,57 249.525424,57 L255.525424,57 C256.629993,57 257.525424,57.8954305 257.525424,59 C257.525424,60.1045695 256.629993,61 255.525424,61 L249.525424,61 Z M263.908228,62.7133656 C263.016403,62.0616587 262.821749,60.8103789 263.473456,59.9185538 C264.125163,59.0267288 265.376443,58.8320745 266.268268,59.4837814 C267.964215,60.7231061 269.50112,62.3899463 270.82937,64.4065521 C271.43695,65.3290057 271.181695,66.5693428 270.259241,67.1769225 C269.336787,67.7845023 268.09645,67.5292467 267.488871,66.6067931 C266.412467,64.9725514 265.199315,63.6568359 263.908228,62.7133656 Z M271.038019,75.2034562 C270.784599,74.1283504 271.450708,73.0513679 272.525813,72.7979484 C273.600919,72.5445289 274.677902,73.2106371 274.931321,74.2857429 C275.403164,76.2874873 275.723238,78.3806605 275.882564,80.5283911 C275.96428,81.6299338 275.137547,82.5891545 274.036004,82.6708706 C272.934462,82.7525867 271.975241,81.9258538 271.893525,80.8243112 C271.749637,78.8846797 271.461354,76.9994114 271.038019,75.2034562 Z M272,90.7638284 C272,89.6592589 272.895431,88.7638284 274,88.7638284 C275.104569,88.7638284 276,89.6592589 276,90.7638284 L276,96.7638284 C276,97.8683979 275.104569,98.7638284 274,98.7638284 C272.895431,98.7638284 272,97.8683979 272,96.7638284 L272,90.7638284 Z M272,106.763828 C272,105.659259 272.895431,104.763828 274,104.763828 C275.104569,104.763828 276,105.659259 276,106.763828 L276,112.763828 C276,113.868398 275.104569,114.763828 274,114.763828 C272.895431,114.763828 272,113.868398 272,112.763828 L272,106.763828 Z M272,122.763828 C272,121.659259 272.895431,120.763828 274,120.763828 C275.104569,120.763828 276,121.659259 276,122.763828 L276,128.763828 C276,129.868398 275.104569,130.763828 274,130.763828 C272.895431,130.763828 272,129.868398 272,128.763828 L272,122.763828 Z M272,138.763828 C272,137.659259 272.895431,136.763828 274,136.763828 C275.104569,136.763828 276,137.659259 276,138.763828 L276,144.763828 C276,145.868398 275.104569,146.763828 274,146.763828 C272.895431,146.763828 272,145.868398 272,144.763828 L272,138.763828 Z M272,154.763828 C272,153.659259 272.895431,152.763828 274,152.763828 C275.104569,152.763828 276,153.659259 276,154.763828 L276,160.763828 C276,161.868398 275.104569,162.763828 274,162.763828 C272.895431,162.763828 272,161.868398 272,160.763828 L272,154.763828 Z M272,170.763828 C272,169.659259 272.895431,168.763828 274,168.763828 C275.104569,168.763828 276,169.659259 276,170.763828 L276,176.763828 C276,177.868398 275.104569,178.763828 274,178.763828 C272.895431,178.763828 272,177.868398 272,176.763828 L272,170.763828 Z M272,186.763828 C272,185.659259 272.895431,184.763828 274,184.763828 C275.104569,184.763828 276,185.659259 276,186.763828 L276,192.763828 C276,193.868398 275.104569,194.763828 274,194.763828 C272.895431,194.763828 272,193.868398 272,192.763828 L272,186.763828 Z M272,202.763828 C272,201.659259 272.895431,200.763828 274,200.763828 C275.104569,200.763828 276,201.659259 276,202.763828 L276,208.763828 C276,209.868398 275.104569,210.763828 274,210.763828 C272.895431,210.763828 272,209.868398 272,208.763828 L272,202.763828 Z M271.997369,218.740606 C272.010095,217.63611 272.915783,216.751055 274.020279,216.763781 C275.124775,216.776507 276.00983,217.682194 275.997104,218.78669 C275.972465,220.925133 275.790773,223.028128 275.458548,225.063103 C275.280575,226.153241 274.252569,226.892696 273.162431,226.714723 C272.072294,226.53675 271.332839,225.508743 271.510812,224.418606 C271.810624,222.582171 271.975033,220.679211 271.997369,218.740606 Z M268.675998,233.351161 C269.180255,232.36841 270.385712,231.980513 271.368463,232.48477 C272.351214,232.989026 272.73911,234.194484 272.234854,235.177234 C271.165352,237.261599 269.898978,239.082748 268.473996,240.572357 C267.710454,241.370528 266.444435,241.3986 265.646264,240.635058 C264.848093,239.871515 264.820021,238.605497 265.583563,237.807326 C266.730569,236.6083 267.776573,235.104061 268.675998,233.351161 Z M257.997767,241 C259.102336,241 259.997767,241.895431 259.997767,243 C259.997767,244.104569 259.102336,245 257.997767,245 L251.997767,245 C250.893197,245 249.997767,244.104569 249.997767,243 C249.997767,241.895431 250.893197,241 251.997767,241 L257.997767,241 Z M241.997767,241 C243.102336,241 243.997767,241.895431 243.997767,243 C243.997767,244.104569 243.102336,245 241.997767,245 L235.997767,245 C234.893197,245 233.997767,244.104569 233.997767,243 C233.997767,241.895431 234.893197,241 235.997767,241 L241.997767,241 Z M225.997767,241 C227.102336,241 227.997767,241.895431 227.997767,243 C227.997767,244.104569 227.102336,245 225.997767,245 L219.997767,245 C218.893197,245 217.997767,244.104569 217.997767,243 C217.997767,241.895431 218.893197,241 219.997767,241 L225.997767,241 Z M209.997767,241 C211.102336,241 211.997767,241.895431 211.997767,243 C211.997767,244.104569 211.102336,245 209.997767,245 L203.997767,245 C202.893197,245 201.997767,244.104569 201.997767,243 C201.997767,241.895431 202.893197,241 203.997767,241 L209.997767,241 Z M193.997767,241 C195.102336,241 195.997767,241.895431 195.997767,243 C195.997767,244.104569 195.102336,245 193.997767,245 L187.997767,245 C186.893197,245 185.997767,244.104569 185.997767,243 C185.997767,241.895431 186.893197,241 187.997767,241 L193.997767,241 Z M177.997767,241 C179.102336,241 179.997767,241.895431 179.997767,243 C179.997767,244.104569 179.102336,245 177.997767,245 L176,245 C174.895431,245 174,244.104569 174,243 C174,241.895431 174.895431,241 176,241 L177.997767,241 Z" id="Shape" fill="#D4DFFF" fill-rule="nonzero"></path>
        <path d="M24.2565006,257.537909 C-10.7450105,217.273277 -6.47840757,156.258012 33.786225,121.256501 C74.0508577,86.2549895 135.066123,90.5215924 170.067634,130.786225 C205.069145,171.050858 200.802542,232.066123 160.537909,267.067634 C120.273277,302.069145 59.2580117,297.802542 24.2565006,257.537909 Z" id="Shape" fill="url(#linearGradient-3)"></path>
        <path d="M186.283211,156.823129 C201.96143,194.22674 192.818006,239.006974 160.537909,267.067634 C132.232535,291.67312 93.6724917,296.87286 61.1039388,283.802894 L60.9056506,280.791014 C72.155293,266.607853 83.124975,258.184315 93.8146966,255.520402 C109.849279,251.524531 100.822001,279.337464 118.750692,274.343459 C136.679382,269.349453 121.606676,255.648312 142.936423,249.722927 C164.266171,243.797542 158.069571,220.181021 147.826757,198.625654 C140.998215,184.25541 153.265664,169.659739 184.629104,154.838641 L186.283211,156.823129 Z" id="Shape" fill="url(#linearGradient-4)"></path>
        <path d="M29.3857615,125.323781 C56.7153089,143.634637 66.5115813,161.081153 58.7745786,177.663327 C47.1468356,202.584252 15.2584226,209.69861 29.0550136,234.274276 C38.252741,250.658054 40.7475439,261.905667 36.5394224,268.017114 L34.2771563,267.508342 C30.7498802,264.476502 27.3983859,261.152235 24.2565006,257.537909 C-9.42539149,218.791325 -6.74430794,160.829284 29.3857615,125.323781 L29.3857615,125.323781 Z" id="Shape" fill="url(#linearGradient-5)"></path>
        <path d="M116.857316,130.717508 C128.977309,141.256125 139.734464,127.734103 143.540117,143.145553 C147.34577,158.557004 116.44747,156.519804 111.17739,171.278043 C105.907309,186.036282 90.5376969,174.029126 87.8702681,159.124516 C85.2028392,144.219905 56.6605496,133.205715 63.618375,120.083403 C70.5762004,106.96109 98.701297,102.215273 105.615719,110.169405 C112.53014,118.123537 104.737322,120.178891 116.857316,130.717508 Z" id="Shape" fill="url(#linearGradient-6)"></path>
        <path d="M202,14 L235,14 C236.104569,14 237,14.8954305 237,16 L237,17.3055556 C237,18.4101251 236.104569,19.3055556 235,19.3055556 L202,19.3055556 C200.895431,19.3055556 200,18.4101251 200,17.3055556 L200,16 C200,14.8954305 200.895431,14 202,14 Z M202,24 L255,24 C256.104569,24 257,24.8954305 257,26 L257,27.3055556 C257,28.4101251 256.104569,29.3055556 255,29.3055556 L202,29.3055556 C200.895431,29.3055556 200,28.4101251 200,27.3055556 L200,26 C200,24.8954305 200.895431,24 202,24 Z" id="Shape" fill="url(#linearGradient-7)"></path>
        <path d="M139,133 L233,133 C235.209139,133 237,134.790861 237,137 L237,304 L135,304 L135,137 C135,134.790861 136.790861,133 139,133 Z" id="Shape" fill="url(#linearGradient-8)"></path>
        <path d="M153,150 L218,150 C219.104569,150 220,150.895431 220,152 L220,164 C220,165.104569 219.104569,166 218,166 L153,166 C151.895431,166 151,165.104569 151,164 L151,152 C151,150.895431 151.895431,150 153,150 Z M153,183 L218,183 C219.104569,183 220,183.895431 220,185 L220,197 C220,198.104569 219.104569,199 218,199 L153,199 C151.895431,199 151,198.104569 151,197 L151,185 C151,183.895431 151.895431,183 153,183 Z M153,215 L218,215 C219.104569,215 220,215.895431 220,217 L220,229 C220,230.104569 219.104569,231 218,231 L153,231 C151.895431,231 151,230.104569 151,229 L151,217 C151,215.895431 151.895431,215 153,215 Z M153,248 L218,248 C219.104569,248 220,248.895431 220,250 L220,262 C220,263.104569 219.104569,264 218,264 L153,264 C151.895431,264 151,263.104569 151,262 L151,250 C151,248.895431 151.895431,248 153,248 Z" id="Shape" fill="url(#linearGradient-9)" opacity="0.965587798"></path>
        <path d="M153,117 L218,117 C219.104569,117 220,117.895431 220,119 L220,133 L151,133 L151,119 C151,117.895431 151.895431,117 153,117 Z" id="Shape" fill="#47A5F9" fill-rule="nonzero"></path>
        <path d="M170,101 L202,101 C203.104569,101 204,101.895431 204,103 L204,117 L168,117 L168,103 C168,101.895431 168.895431,101 170,101 Z" id="Shape" fill="#6F86F9" fill-rule="nonzero"></path>
        <path d="M185,85 L188,85 C189.104569,85 190,85.8954305 190,87 L190,101 L183,101 L183,87 C183,85.8954305 183.895431,85 185,85 Z" id="Shape" fill="#9567F7" fill-rule="nonzero"></path>
        <path d="M237,168 L318,168 C320.209139,168 322,169.790861 322,172 L322,304 L237,304 L237,168 Z" id="Shape" fill="url(#linearGradient-10)"></path>
        <path d="M255,199 L267,199 C268.104569,199 269,199.895431 269,201 L269,286 C269,287.104569 268.104569,288 267,288 L255,288 C253.895431,288 253,287.104569 253,286 L253,201 C253,199.895431 253.895431,199 255,199 Z M288,199 L300,199 C301.104569,199 302,199.895431 302,201 L302,286 C302,287.104569 301.104569,288 300,288 L288,288 C286.895431,288 286,287.104569 286,286 L286,201 C286,199.895431 286.895431,199 288,199 Z" id="Shape" fill="url(#linearGradient-11)" opacity="0.965587798"></path>
        <path d="M255,154 L303,154 C304.104569,154 305,154.895431 305,156 L305,170 L253,170 L253,156 C253,154.895431 253.895431,154 255,154 Z" id="Shape" fill="#FC8CB2" fill-rule="nonzero"></path>
      </g>
    </g>
  </g>
</svg>
