<?xml version="1.0" encoding="UTF-8"?>
<svg width="282px" height="325px" viewBox="0 0 282 325" version="1.1" xmlns="http://www.w3.org/2000/svg" xmlns:xlink="http://www.w3.org/1999/xlink">
    <title>service, document, file, data@2x</title>
    <defs>
        <linearGradient x1="50%" y1="0%" x2="50%" y2="100%" id="linearGradient-1">
            <stop stop-color="#966AFF" offset="0%"></stop>
            <stop stop-color="#E885E0" offset="100%"></stop>
        </linearGradient>
        <linearGradient x1="50%" y1="-42.9786065%" x2="50%" y2="100%" id="linearGradient-2">
            <stop stop-color="#5174D0" offset="0%"></stop>
            <stop stop-color="#1F2480" offset="100%"></stop>
        </linearGradient>
        <linearGradient x1="50%" y1="10.2993412%" x2="79.3872917%" y2="69.3520242%" id="linearGradient-3">
            <stop stop-color="#FFFFFF" offset="0%"></stop>
            <stop stop-color="#20BDFF" offset="51.0302085%"></stop>
            <stop stop-color="#3390FF" offset="100%"></stop>
        </linearGradient>
        <linearGradient x1="50%" y1="0%" x2="50%" y2="100%" id="linearGradient-4">
            <stop stop-color="#FB65BC" offset="0%"></stop>
            <stop stop-color="#FCAFA9" offset="100%"></stop>
        </linearGradient>
        <linearGradient x1="50%" y1="0%" x2="50%" y2="100%" id="linearGradient-5">
            <stop stop-color="#FFB36D" offset="0%"></stop>
            <stop stop-color="#E73E79" offset="100%"></stop>
        </linearGradient>
        <linearGradient x1="20.9681369%" y1="58.7753334%" x2="28.9549013%" y2="34.9657844%" id="linearGradient-6">
            <stop stop-color="#A5FECB" offset="0%"></stop>
            <stop stop-color="#20BDFF" offset="100%"></stop>
        </linearGradient>
        <linearGradient x1="41.7525854%" y1="69.2471138%" x2="24.5587421%" y2="0%" id="linearGradient-7">
            <stop stop-color="#ADC3F4" offset="0%"></stop>
            <stop stop-color="#F1E4FF" offset="100%"></stop>
        </linearGradient>
        <linearGradient x1="20.9681369%" y1="66.6659276%" x2="28.9549013%" y2="21.4473355%" id="linearGradient-8">
            <stop stop-color="#A5FECB" offset="0%"></stop>
            <stop stop-color="#20BDFF" offset="100%"></stop>
        </linearGradient>
        <linearGradient x1="50%" y1="0%" x2="50%" y2="100%" id="linearGradient-9">
            <stop stop-color="#CFDEFF" offset="0%"></stop>
            <stop stop-color="#F1E4FF" offset="100%"></stop>
        </linearGradient>
        <linearGradient x1="50%" y1="0%" x2="50%" y2="100%" id="linearGradient-10">
            <stop stop-color="#FFB36D" offset="0%"></stop>
            <stop stop-color="#E73E79" offset="100%"></stop>
        </linearGradient>
    </defs>
    <g id="Page-1" stroke="none" stroke-width="1" fill="none" fill-rule="evenodd">
        <g id="Business---Icon-Illustration" transform="translate(-572.000000, -1045.000000)">
            <g id="service,-document,-file,-data" transform="translate(572.000000, 1045.000000)">
                <path d="M197,134.597545 C192.878395,133.36503 188.951003,131.682665 185.274814,129.607437 L177.041631,137.84062 C176.260582,138.621669 174.994252,138.621669 174.213203,137.84062 L154.414214,118.041631 C153.633165,117.260582 153.633165,115.994252 154.414214,115.213203 L162.862514,106.764903 C160.867754,103.067938 159.266036,99.1276469 158.113331,95 L146,95 C144.895431,95 144,94.1045695 144,93 L144,65 C144,63.8954305 144.895431,63 146,63 L158.402455,63 C159.581683,59.0565885 161.172706,55.2909598 163.125609,51.7530265 L154.414214,43.0416306 C153.633165,42.260582 153.633165,40.994252 154.414214,40.2132034 L174.213203,20.4142136 C174.994252,19.633165 176.260582,19.633165 177.041631,20.4142136 L185.753026,29.1256095 C189.29096,27.1727056 193.056589,25.5816833 197,24.4024553 L197,12 C197,10.8954305 197.895431,10 199,10 L227,10 C228.104569,10 229,10.8954305 229,12 L229,24.1133306 C233.127647,25.2660359 237.067938,26.8677539 240.764903,28.8625136 L249.213203,20.4142136 C249.994252,19.633165 251.260582,19.633165 252.041631,20.4142136 L271.84062,40.2132034 C272.621669,40.994252 272.621669,42.260582 271.84062,43.0416306 L263.607437,51.2748138 C265.682665,54.9510034 267.36503,58.8783952 268.597545,63 L280,63 C281.104569,63 282,63.8954305 282,65 L282,93 C282,94.1045695 281.104569,95 280,95 L268.886669,95 C267.751174,99.0660206 266.179974,102.950238 264.226569,106.599152 L271.84062,114.213203 C272.621669,114.994252 272.621669,116.260582 271.84062,117.041631 L252.041631,136.84062 C251.260582,137.621669 249.994252,137.621669 249.213203,136.84062 L241.887848,129.515265 C237.869326,131.801027 233.548413,133.616459 229,134.886669 L229,146 C229,147.104569 228.104569,148 227,148 L199,148 C197.895431,148 197,147.104569 197,146 L197,134.597545 L197,134.597545 Z M213,114 C231.777681,114 247,98.7776815 247,80 C247,61.2223185 231.777681,46 213,46 C194.222319,46 179,61.2223185 179,80 C179,98.7776815 194.222319,114 213,114 Z" id="Shape" fill="url(#linearGradient-1)"></path>
                <path d="M118.454377,64.3828757 C116.304004,64.4336032 114.176478,64.2404062 112.107706,63.8215795 L109.464691,69.0087875 C109.213959,69.5008768 108.611783,69.6965355 108.119694,69.4458035 L95.6456028,63.0899365 C95.1535135,62.8392045 94.9578548,62.2370288 95.2085868,61.7449395 L97.920658,56.4221999 C96.4008809,54.9723959 95.0304102,53.346155 93.8445098,51.561445 L88.0842788,53.4330576 C87.5590248,53.6037229 86.9948706,53.316272 86.8242053,52.791018 L82.4979673,39.4762268 C82.327302,38.9509728 82.6147529,38.3868187 83.1400069,38.2161533 L89.0377248,36.2998686 C88.9891905,34.2424642 89.1639449,32.2059749 89.5459651,30.2218474 L84.0574655,27.4253172 C83.5653762,27.1745851 83.3697175,26.5724094 83.6204495,26.0803201 L89.9763165,13.6062288 C90.2270485,13.1141395 90.8292242,12.9184807 91.3213135,13.1692128 L96.8098131,15.965743 C98.1904601,14.4904413 99.7352965,13.1520436 101.428299,11.9819967 L99.5120147,6.08427878 C99.3413493,5.55902477 99.6288002,4.99487064 100.154054,4.82420527 L113.468845,0.497967345 C113.994099,0.327301972 114.558254,0.614752857 114.728919,1.14000687 L116.600531,6.90023788 C118.764792,6.80964814 120.908903,6.96684126 122.996436,7.35325525 L126.694163,1.65925491 C126.994959,1.19606995 127.614288,1.06442755 128.077473,1.36522338 L139.818861,8.99016987 C140.282046,9.2909657 140.413688,9.91029451 140.112892,10.3734795 L137.378487,14.5840943 C138.883994,15.9827673 140.2484,17.5516213 141.438604,19.2737909 L146.860793,17.5120147 C147.386047,17.3413493 147.950202,17.6288002 148.120867,18.1540542 L152.447105,31.4688454 C152.61777,31.9940994 152.330319,32.5582536 151.805065,32.7289189 L146.520363,34.446023 C146.608637,36.5549743 146.461632,38.6447935 146.096521,40.6817727 L150.893653,43.1260336 C151.385742,43.3767656 151.581401,43.9789413 151.330669,44.4710306 L144.974802,56.9451219 C144.72407,57.4372113 144.121894,57.63287 143.629805,57.382138 L139.014562,55.030554 C137.456811,56.7383942 135.682594,58.2693014 133.715954,59.5760907 L135.433058,64.8607935 C135.603723,65.3860475 135.316272,65.9502016 134.791018,66.120867 L121.476227,70.4471049 C120.950973,70.6177703 120.386819,70.3303194 120.216153,69.8050654 L118.454377,64.3828757 Z M122.880334,52.1160252 C131.809652,49.2147138 136.696317,39.6240936 133.795005,30.6947755 C130.893694,21.7654573 121.303074,16.8787923 112.373756,19.7801036 C103.444438,22.6814149 98.5577725,32.2720351 101.459084,41.2013533 C104.360395,50.1306715 113.951015,55.0173365 122.880334,52.1160252 Z" id="Shape" fill="url(#linearGradient-2)"></path>
                <path d="M56,220 C57.1045695,220 58,220.895431 58,222 C58,223.104569 57.1045695,224 56,224 L50,224 C48.8954305,224 48,223.104569 48,222 C48,220.895431 48.8954305,220 50,220 L56,220 Z M40,220 C41.1045695,220 42,220.895431 42,222 C42,223.104569 41.1045695,224 40,224 L34,224 C32.8954305,224 32,223.104569 32,222 C32,220.895431 32.8954305,220 34,220 L40,220 Z M24.2235946,219.876883 C25.3215056,219.997983 26.1133674,220.986187 25.9922674,222.084098 C25.8711673,223.182009 24.8829637,223.97387 23.7850527,223.85277 C21.6062819,223.612451 19.4805385,223.080128 17.4456599,222.272624 C16.418975,221.865203 15.9169623,220.70263 16.3243832,219.675945 C16.7318042,218.64926 17.8943767,218.147248 18.9210616,218.554669 C20.6253348,219.230978 22.4025297,219.676019 24.2235946,219.876883 Z M11.3146206,213.458058 C12.0891924,214.245531 12.0787346,215.511817 11.2912624,216.286389 C10.5037903,217.060961 9.23750352,217.050503 8.46293176,216.263031 C6.9652282,214.740383 5.63225563,213.033347 4.49245867,211.177824 C3.91431603,210.236641 4.20861815,209.004985 5.14980084,208.426842 C6.09098354,207.8487 7.32264008,208.143002 7.90078272,209.084184 C8.88320129,210.683505 10.0296989,212.151737 11.3146206,213.458058 Z M4.52194382,200.392669 C4.73580817,201.476337 4.03069319,202.528194 2.94702543,202.742059 C1.86335767,202.955923 0.811500061,202.250808 0.597635707,201.16714 C0.201491081,199.159844 0,197.100547 0,195.013889 L0,194.879364 C0,193.774795 0.8954305,192.879364 2,192.879364 C3.1045695,192.879364 4,193.774795 4,194.879364 L4,195.013889 C4,196.840396 4.17611204,198.640312 4.52194382,200.392669 Z M4,184.879364 C4,185.983934 3.1045695,186.879364 2,186.879364 C0.8954305,186.879364 0,185.983934 0,184.879364 L0,178.879364 C0,177.774795 0.8954305,176.879364 2,176.879364 C3.1045695,176.879364 4,177.774795 4,178.879364 L4,184.879364 Z M4,168.879364 C4,169.983934 3.1045695,170.879364 2,170.879364 C0.8954305,170.879364 0,169.983934 0,168.879364 L0,162.879364 C0,161.774795 0.8954305,160.879364 2,160.879364 C3.1045695,160.879364 4,161.774795 4,162.879364 L4,168.879364 Z M4,152.879364 C4,153.983934 3.1045695,154.879364 2,154.879364 C0.8954305,154.879364 0,153.983934 0,152.879364 L0,146.879364 C0,145.774795 0.8954305,144.879364 2,144.879364 C3.1045695,144.879364 4,145.774795 4,146.879364 L4,152.879364 Z M4,136.879364 C4,137.983934 3.1045695,138.879364 2,138.879364 C0.8954305,138.879364 0,137.983934 0,136.879364 L0,130.879364 C0,129.774795 0.8954305,128.879364 2,128.879364 C3.1045695,128.879364 4,129.774795 4,130.879364 L4,136.879364 Z M4,120.879364 C4,121.983934 3.1045695,122.879364 2,122.879364 C0.8954305,122.879364 0,121.983934 0,120.879364 L0,114.986111 C0,114.928677 0,114.928677 0.000203467923,114.871276 C0.00411822304,113.766714 0.902716636,112.874462 2.0072792,112.878364 C3.11184176,112.882292 4.0040931,113.78089 4.00019118,114.885453 C4.00002974,114.935766 4.00002974,114.935766 4,114.986111 L4,120.879364 Z M5.60163492,105.705374 C5.22730578,106.744581 4.08140822,107.283571 3.04220108,106.909242 C2.00299394,106.534913 1.46400383,105.389015 1.83833298,104.349808 C2.57286119,102.310621 3.51707388,100.371325 4.65080717,98.5673255 C5.23854983,97.6321077 6.47315323,97.3504234 7.40837103,97.9381661 C8.34358883,98.5259087 8.62527309,99.7605121 8.03753043,100.69573 C7.05694443,102.256041 6.23890583,103.936191 5.60163492,105.705374 Z M14.2903126,93.9876172 C13.3935135,94.6324622 12.143764,94.4282131 11.4989189,93.5314139 C10.8540739,92.6346148 11.0583231,91.3848653 11.9551222,90.7400203 C13.7384695,89.4577012 15.658929,88.4143616 17.6779648,87.6365385 C18.7086923,87.2394561 19.8661611,87.7531269 20.2632435,88.7838545 C20.660326,89.814582 20.1466552,90.9720507 19.1159276,91.3691332 C17.418122,92.023204 15.7987648,92.9029619 14.2903126,93.9876172 Z M28.2412713,90 C27.1367018,90 26.2412713,89.1045695 26.2412713,88 C26.2412713,86.8954305 27.1367018,86 28.2412713,86 L34.2412713,86 C35.3458408,86 36.2412713,86.8954305 36.2412713,88 C36.2412713,89.1045695 35.3458408,90 34.2412713,90 L28.2412713,90 Z M44.2412713,90 C43.1367018,90 42.2412713,89.1045695 42.2412713,88 C42.2412713,86.8954305 43.1367018,86 44.2412713,86 L50.2412713,86 C51.3458408,86 52.2412713,86.8954305 52.2412713,88 C52.2412713,89.1045695 51.3458408,90 50.2412713,90 L44.2412713,90 Z M60.2412713,90 C59.1367018,90 58.2412713,89.1045695 58.2412713,88 C58.2412713,86.8954305 59.1367018,86 60.2412713,86 L66,86 C67.1045695,86 68,86.8954305 68,88 C68,89.1045695 67.1045695,90 66,90 L60.2412713,90 Z M79.5,92 C77.0147186,92 75,89.9852814 75,87.5 C75,85.0147186 77.0147186,83 79.5,83 C81.9852814,83 84,85.0147186 84,87.5 C84,89.9852814 81.9852814,92 79.5,92 Z M79.5,95 C83.6421356,95 87,91.6421356 87,87.5 C87,83.3578644 83.6421356,80 79.5,80 C75.3578644,80 72,83.3578644 72,87.5 C72,91.6421356 75.3578644,95 79.5,95 Z M79.5,98 C73.7010101,98 69,93.2989899 69,87.5 C69,81.7010101 73.7010101,77 79.5,77 C85.2989899,77 90,81.7010101 90,87.5 C90,93.2989899 85.2989899,98 79.5,98 Z" id="Shape" fill="#D4DFFF" fill-rule="nonzero"></path>
                <path d="M235,194 L248,194 C249.104569,194 250,194.895431 250,196 L250,197.305556 C250,198.410125 249.104569,199.305556 248,199.305556 L235,199.305556 C233.895431,199.305556 233,198.410125 233,197.305556 L233,196 C233,194.895431 233.895431,194 235,194 Z M235,204 L268,204 C269.104569,204 270,204.895431 270,206 L270,207.305556 C270,208.410125 269.104569,209.305556 268,209.305556 L235,209.305556 C233.895431,209.305556 233,208.410125 233,207.305556 L233,206 C233,204.895431 233.895431,204 235,204 Z M235,214 L268,214 C269.104569,214 270,214.895431 270,216 L270,217.305556 C270,218.410125 269.104569,219.305556 268,219.305556 L235,219.305556 C233.895431,219.305556 233,218.410125 233,217.305556 L233,216 C233,214.895431 233.895431,214 235,214 Z" id="Shape" fill="url(#linearGradient-3)" fill-rule="nonzero"></path>
                <path d="M51,35 L64,35 C65.1045695,35 66,35.8954305 66,37 L66,38.3055556 C66,39.4101251 65.1045695,40.3055556 64,40.3055556 L51,40.3055556 C49.8954305,40.3055556 49,39.4101251 49,38.3055556 L49,37 C49,35.8954305 49.8954305,35 51,35 Z M31,45 L64,45 C65.1045695,45 66,45.8954305 66,47 L66,48.3055556 C66,49.4101251 65.1045695,50.3055556 64,50.3055556 L31,50.3055556 C29.8954305,50.3055556 29,49.4101251 29,48.3055556 L29,47 C29,45.8954305 29.8954305,45 31,45 Z" id="Shape" fill="url(#linearGradient-4)"></path>
                <path d="M85.8461538,170.757576 L166.096074,170.757576 C172.279616,170.757576 177.450758,175.456388 178.041236,181.611674 L185.738911,261.854098 C186.371775,268.451229 181.536781,274.312298 174.93965,274.945163 C174.558776,274.9817 174.176371,275 173.793748,275 L39.9039264,275 C33.7203836,275 28.5492418,270.301188 27.9587639,264.145902 L19.4519632,167.435836 C19.2112578,160.812791 24.3851659,155.248623 31.0082103,155.007917 C31.1050227,155.004399 44.6141532,155.00176 71.5356017,155 C76.4969086,155 80.9466796,158.053147 82.7318599,162.682153 L85.8461538,170.757576 Z" id="Shape" fill="url(#linearGradient-5)"></path>
                <path d="M110.311379,118.156839 L160.855387,131.703794 L143.472641,141.739728 C135.376557,146.414004 125.023614,143.639177 120.348695,135.541979 L110.311379,118.156839 Z" id="Shape" fill="url(#linearGradient-6)" fill-rule="nonzero"></path>
                <path d="M86.8219566,106.794032 L144.04644,91.4607775 L189.075309,118.580734 L214.572669,213.738176 C216.859738,222.273634 211.794418,231.047025 203.258961,233.334094 L126.256772,253.966768 C117.721315,256.253837 108.947924,251.188517 106.660855,242.653059 L75.5082481,126.38995 C73.2211791,117.854492 78.286499,109.081101 86.8219566,106.794032 Z" id="Shape" fill="url(#linearGradient-7)"></path>
                <path d="M144.168798,99.5997168 L189.48435,125.766823 L170.096416,130.961804 C161.066408,133.381387 151.784411,128.021572 149.364495,118.990321 L144.168798,99.5997168 Z" id="Shape" fill="url(#linearGradient-8)" fill-rule="nonzero"></path>
                <path d="M123.328767,91.3975904 L182.643,91.3975904 L219.152848,129.317879 L219.152848,228.044177 C219.152848,236.880733 211.989404,244.044177 203.152848,244.044177 L123.328767,244.044177 C114.492211,244.044177 107.328767,236.880733 107.328767,228.044177 L107.328767,107.39759 C107.328767,98.5610344 114.492211,91.3975904 123.328767,91.3975904 Z" id="Shape" fill="url(#linearGradient-9)"></path>
                <path d="M121.286373,122.774944 L178.086373,122.774944 C178.970029,122.774944 179.686373,123.491289 179.686373,124.374944 L179.686373,125.415127 C179.686373,126.298783 178.970029,127.015127 178.086373,127.015127 L121.286373,127.015127 C120.402718,127.015127 119.686373,126.298783 119.686373,125.415127 L119.686373,124.374944 C119.686373,123.491289 120.402718,122.774944 121.286373,122.774944 Z M121.286373,130.407274 L200.609805,130.407274 C201.493461,130.407274 202.209805,131.123618 202.209805,132.007274 L202.209805,133.047456 C202.209805,133.931112 201.493461,134.647456 200.609805,134.647456 L121.286373,134.647456 C120.402718,134.647456 119.686373,133.931112 119.686373,133.047456 L119.686373,132.007274 C119.686373,131.123618 120.402718,130.407274 121.286373,130.407274 Z M121.286373,138.039603 L183.666763,138.039603 C184.550418,138.039603 185.266763,138.755947 185.266763,139.639603 L185.266763,140.679786 C185.266763,141.563441 184.550418,142.279786 183.666763,142.279786 L121.286373,142.279786 C120.402718,142.279786 119.686373,141.563441 119.686373,140.679786 L119.686373,139.639603 C119.686373,138.755947 120.402718,138.039603 121.286373,138.039603 Z M190.255371,138.039603 L200.609805,138.039603 C201.493461,138.039603 202.209805,138.755947 202.209805,139.639603 L202.209805,140.679786 C202.209805,141.563441 201.493461,142.279786 200.609805,142.279786 L190.255371,142.279786 C189.371716,142.279786 188.655371,141.563441 188.655371,140.679786 L188.655371,139.639603 C188.655371,138.755947 189.371716,138.039603 190.255371,138.039603 Z M121.286373,151.608188 L155.195242,151.608188 C156.078897,151.608188 156.795242,152.324533 156.795242,153.208188 L156.795242,154.248371 C156.795242,155.132027 156.078897,155.848371 155.195242,155.848371 L121.286373,155.848371 C120.402718,155.848371 119.686373,155.132027 119.686373,154.248371 L119.686373,153.208188 C119.686373,152.324533 120.402718,151.608188 121.286373,151.608188 Z M121.286373,159.240518 L200.609805,159.240518 C201.493461,159.240518 202.209805,159.956862 202.209805,160.840518 L202.209805,161.880701 C202.209805,162.764356 201.493461,163.480701 200.609805,163.480701 L121.286373,163.480701 C120.402718,163.480701 119.686373,162.764356 119.686373,161.880701 L119.686373,160.840518 C119.686373,159.956862 120.402718,159.240518 121.286373,159.240518 Z M121.286373,166.872847 L150.609805,166.872847 C151.493461,166.872847 152.209805,167.589191 152.209805,168.472847 L152.209805,169.51303 C152.209805,170.396685 151.493461,171.11303 150.609805,171.11303 L121.286373,171.11303 C120.402718,171.11303 119.686373,170.396685 119.686373,169.51303 L119.686373,168.472847 C119.686373,167.589191 120.402718,166.872847 121.286373,166.872847 Z M161.286373,166.872847 L200.609805,166.872847 C201.493461,166.872847 202.209805,167.589191 202.209805,168.472847 L202.209805,169.51303 C202.209805,170.396685 201.493461,171.11303 200.609805,171.11303 L161.286373,171.11303 C160.402718,171.11303 159.686373,170.396685 159.686373,169.51303 L159.686373,168.472847 C159.686373,167.589191 160.402718,166.872847 161.286373,166.872847 Z M121.286373,173.65714 L200.609805,173.65714 C201.493461,173.65714 202.209805,174.373484 202.209805,175.25714 L202.209805,176.297323 C202.209805,177.180978 201.493461,177.897323 200.609805,177.897323 L121.286373,177.897323 C120.402718,177.897323 119.686373,177.180978 119.686373,176.297323 L119.686373,175.25714 C119.686373,174.373484 120.402718,173.65714 121.286373,173.65714 Z M131.896179,210.97075 C127.685356,210.97075 124.27181,207.553639 124.27181,203.33842 C124.27181,199.123201 127.685356,195.706091 131.896179,195.706091 C136.107002,195.706091 139.520548,199.123201 139.520548,203.33842 C139.520548,207.553639 136.107002,210.97075 131.896179,210.97075 Z M151.286373,193.161981 L175.195242,193.161981 C176.078897,193.161981 176.795242,193.878326 176.795242,194.761981 L176.795242,195.802164 C176.795242,196.68582 176.078897,197.402164 175.195242,197.402164 L151.286373,197.402164 C150.402718,197.402164 149.686373,196.68582 149.686373,195.802164 L149.686373,194.761981 C149.686373,193.878326 150.402718,193.161981 151.286373,193.161981 Z M151.286373,200.794311 L200.609805,200.794311 C201.493461,200.794311 202.209805,201.510655 202.209805,202.394311 L202.209805,203.434494 C202.209805,204.318149 201.493461,205.034494 200.609805,205.034494 L151.286373,205.034494 C150.402718,205.034494 149.686373,204.318149 149.686373,203.434494 L149.686373,202.394311 C149.686373,201.510655 150.402718,200.794311 151.286373,200.794311 Z M151.286373,208.42664 L183.666763,208.42664 C184.550418,208.42664 185.266763,209.142984 185.266763,210.02664 L185.266763,211.066823 C185.266763,211.950478 184.550418,212.666823 183.666763,212.666823 L151.286373,212.666823 C150.402718,212.666823 149.686373,211.950478 149.686373,211.066823 L149.686373,210.02664 C149.686373,209.142984 150.402718,208.42664 151.286373,208.42664 Z M190.255371,208.42664 L200.609805,208.42664 C201.493461,208.42664 202.209805,209.142984 202.209805,210.02664 L202.209805,211.066823 C202.209805,211.950478 201.493461,212.666823 200.609805,212.666823 L190.255371,212.666823 C189.371716,212.666823 188.655371,211.950478 188.655371,211.066823 L188.655371,210.02664 C188.655371,209.142984 189.371716,208.42664 190.255371,208.42664 Z" id="Shape" fill="#FFFFFF"></path>
                <path d="M182.725306,91.5637712 L219.759179,128.636309 L199.668349,128.636309 C190.310965,128.636309 182.725306,121.04273 182.725306,111.675577 L182.725306,91.5637712 Z" id="Shape" fill="#AABDEE" fill-rule="nonzero"></path>
                <path d="M55.3232042,183 L189.677066,183 C196.304483,183 201.677066,188.372583 201.677066,195 C201.677066,195.263601 201.668381,195.527131 201.651023,195.790159 L187.163714,263.790159 C186.747519,270.097124 181.51044,275 175.189757,275 L39.8105131,275 C33.4898307,275 28.2527516,270.097124 27.836556,263.790159 L43.3492471,195.790159 C42.9128541,189.177126 47.9200109,183.462436 54.5330448,183.026043 C54.7960737,183.008686 55.0596032,183 55.3232042,183 Z" id="Shape" fill="url(#linearGradient-10)" opacity="0.800000012"></path>
                <path d="M58.9522452,244 L70.6238774,244 C72.8330164,244 74.6238774,245.790861 74.6238774,248 C74.6238774,248.389298 74.5670466,248.776511 74.4551825,249.149392 L71.7103651,258.298783 C70.6952036,261.682655 67.5806206,264 64.0477548,264 L52.3761226,264 C50.1669836,264 48.3761226,262.209139 48.3761226,260 C48.3761226,259.610702 48.4329534,259.223489 48.5448175,258.850608 L51.2896349,249.701217 C52.3047964,246.317345 55.4193794,244 58.9522452,244 Z M127.466354,248 L175.773363,248 C176.996446,248 177.98795,248.991504 177.98795,250.214587 C177.98795,250.482951 177.939173,250.74908 177.843997,251 C177.159033,252.805813 175.428857,254 173.497501,254 L125.190492,254 C123.96741,254 122.975905,253.008496 122.975905,251.785413 C122.975905,251.517049 123.024682,251.25092 123.119859,251 C123.804822,249.194187 125.534998,248 127.466354,248 Z M124.466354,258 L172.773363,258 C173.996446,258 174.98795,258.991504 174.98795,260.214587 C174.98795,260.482951 174.939173,260.74908 174.843997,261 C174.159033,262.805813 172.428857,264 170.497501,264 L122.190492,264 C120.96741,264 119.975905,263.008496 119.975905,261.785413 C119.975905,261.517049 120.024682,261.25092 120.119859,261 C120.804822,259.194187 122.534998,258 124.466354,258 Z" id="Shape" fill="#FFFFFF" opacity="0.800000012"></path>
                <ellipse id="Shape" fill="#B6A0D1" fill-rule="nonzero" opacity="0.200000003" cx="142.5" cy="315" rx="102.5" ry="10"></ellipse>
            </g>
        </g>
    </g>
</svg>