<?xml version="1.0" encoding="UTF-8"?>
<svg width="275px" height="337px" viewBox="0 0 275 337" version="1.1" xmlns="http://www.w3.org/2000/svg" xmlns:xlink="http://www.w3.org/1999/xlink">
    <title>time, data, clock@2x</title>
    <defs>
        <linearGradient x1="39.1740101%" y1="69.2471138%" x2="16.6044676%" y2="0%" id="linearGradient-1">
            <stop stop-color="#ADC3F4" offset="0%"></stop>
            <stop stop-color="#F1E4FF" offset="100%"></stop>
        </linearGradient>
        <linearGradient x1="20.9681369%" y1="58.7734055%" x2="28.9549013%" y2="34.9690873%" id="linearGradient-2">
            <stop stop-color="#A5FECB" offset="0%"></stop>
            <stop stop-color="#20BDFF" offset="100%"></stop>
        </linearGradient>
        <linearGradient x1="53.2609584%" y1="50%" x2="39.5445449%" y2="12.1986336%" id="linearGradient-3">
            <stop stop-color="#C9DAFF" offset="0%"></stop>
            <stop stop-color="#F1E4FF" offset="100%"></stop>
        </linearGradient>
        <linearGradient x1="20.9681369%" y1="66.6618426%" x2="28.9549013%" y2="21.4543341%" id="linearGradient-4">
            <stop stop-color="#A5FECB" offset="0%"></stop>
            <stop stop-color="#20BDFF" offset="100%"></stop>
        </linearGradient>
        <linearGradient x1="50%" y1="0%" x2="50%" y2="100%" id="linearGradient-5">
            <stop stop-color="#9D61F7" offset="0%"></stop>
            <stop stop-color="#00DEFC" offset="100%"></stop>
        </linearGradient>
        <linearGradient x1="50%" y1="-30.9601329%" x2="50%" y2="127.882425%" id="linearGradient-6">
            <stop stop-color="#FFF2F2" stop-opacity="0.139407835" offset="0%"></stop>
            <stop stop-color="#FEFAF9" offset="100%"></stop>
        </linearGradient>
        <linearGradient x1="78.2129257%" y1="41.4441187%" x2="43.177023%" y2="58.5558813%" id="linearGradient-7">
            <stop stop-color="#17B7BD" offset="0%"></stop>
            <stop stop-color="#9DEB93" offset="100%"></stop>
        </linearGradient>
        <linearGradient x1="50%" y1="0%" x2="50%" y2="100%" id="linearGradient-8">
            <stop stop-color="#FB65BC" offset="0%"></stop>
            <stop stop-color="#FCAFA9" offset="100%"></stop>
        </linearGradient>
        <linearGradient x1="50%" y1="0%" x2="50%" y2="184.707022%" id="linearGradient-9">
            <stop stop-color="#FFF2F2" stop-opacity="0.139407835" offset="0%"></stop>
            <stop stop-color="#FEFAF9" offset="100%"></stop>
        </linearGradient>
        <linearGradient x1="50%" y1="-42.9786065%" x2="50%" y2="100%" id="linearGradient-10">
            <stop stop-color="#5174D0" offset="0%"></stop>
            <stop stop-color="#1F2480" offset="100%"></stop>
        </linearGradient>
    </defs>
    <g id="Page-1" stroke="none" stroke-width="1" fill="none" fill-rule="evenodd">
        <g id="Business---Icon-Illustration" transform="translate(-125.000000, -1449.000000)">
            <g id="time,-data,-clock" transform="translate(125.000000, 1449.000000)">
                <ellipse id="Shape" fill="#B6A0D1" fill-rule="nonzero" opacity="0.200000003" cx="133.5" cy="327" rx="107.5" ry="10"></ellipse>
                <path d="M33.46875,204 C34.5733195,204 35.46875,204.895431 35.46875,206 C35.46875,207.104569 34.5733195,208 33.46875,208 C31.279211,208 29.1229782,207.738783 27.034734,207.227083 C25.9619035,206.964198 25.3053128,205.881387 25.5681977,204.808556 C25.8310826,203.735726 26.9138939,203.079135 27.9867244,203.34202 C29.7639227,203.777502 31.6005485,204 33.46875,204 Z M19.7041558,199.397048 C20.5840521,200.064773 20.7560513,201.319368 20.0883267,202.199264 C19.4206021,203.07916 18.1660074,203.25116 17.286111,202.583435 C15.5521102,201.267558 13.9890769,199.744956 12.6353626,198.052824 C11.9453408,197.190302 12.0851796,195.931717 12.9477014,195.241695 C13.8102231,194.551674 15.0688083,194.691512 15.75883,195.554034 C16.9063746,196.988456 18.2324014,198.280182 19.7041558,199.397048 Z M11.6693084,187.379273 C11.9428967,188.449424 11.2971551,189.53874 10.227004,189.812328 C9.156853,190.085916 8.06753704,189.440175 7.79394873,188.370024 C7.26836285,186.314175 7,184.190894 7,182.034722 L7,181.933523 C7,180.828954 7.8954305,179.933523 9,179.933523 C10.1045695,179.933523 11,180.828954 11,181.933523 L11,182.034722 C11,183.855954 11.2262985,185.646423 11.6693084,187.379273 Z M11,171.933523 C11,173.038093 10.1045695,173.933523 9,173.933523 C7.8954305,173.933523 7,173.038093 7,171.933523 L7,165.933523 C7,164.828954 7.8954305,163.933523 9,163.933523 C10.1045695,163.933523 11,164.828954 11,165.933523 L11,171.933523 Z M11,155.933523 C11,157.038093 10.1045695,157.933523 9,157.933523 C7.8954305,157.933523 7,157.038093 7,155.933523 L7,149.933523 C7,148.828954 7.8954305,147.933523 9,147.933523 C10.1045695,147.933523 11,148.828954 11,149.933523 L11,155.933523 Z M11,139.933523 C11,141.038093 10.1045695,141.933523 9,141.933523 C7.8954305,141.933523 7,141.038093 7,139.933523 L7,133.933523 C7,132.828954 7.8954305,131.933523 9,131.933523 C10.1045695,131.933523 11,132.828954 11,133.933523 L11,139.933523 Z M11,123.933523 C11,125.038093 10.1045695,125.933523 9,125.933523 C7.8954305,125.933523 7,125.038093 7,123.933523 L7,117.933523 C7,116.828954 7.8954305,115.933523 9,115.933523 C10.1045695,115.933523 11,116.828954 11,117.933523 L11,123.933523 Z M11.1767691,108.195046 C11.0358689,109.290592 10.0335313,110.064485 8.93798533,109.923585 C7.84243939,109.782685 7.06854609,108.780347 7.20944628,107.684801 C7.48876085,105.513037 8.04473267,103.400047 8.86015589,101.385777 C9.27463619,100.361921 10.4406377,99.8679252 11.464493,100.282405 C12.4883484,100.696886 12.9823445,101.862887 12.5678642,102.886743 C11.8805709,104.584505 11.4121818,106.364634 11.1767691,108.195046 Z M17.705953,95.3123829 C16.9101302,96.0783723 15.6440312,96.0541875 14.8780418,95.2583647 C14.1120524,94.4625418 14.1362372,93.1964428 14.93206,92.4304534 C16.4926581,90.9283583 18.2368726,89.6196556 20.1239033,88.537035 C21.0819925,87.9873634 22.3042741,88.3184513 22.8539457,89.2765406 C23.4036173,90.2346298 23.0725294,91.4569114 22.1144401,92.006583 C20.5117447,92.9260758 19.0305968,94.0373968 17.705953,95.3123829 Z M30.8783043,89.1442288 C29.7806124,89.2672986 28.7909895,88.4772112 28.6679197,87.3795192 C28.54485,86.2818273 29.3349373,85.2922044 30.4326293,85.1691346 C31.4357306,85.05667 32.4488899,85 33.46875,85 L36.6017031,85 C37.7062726,85 38.6017031,85.8954305 38.6017031,87 C38.6017031,88.1045695 37.7062726,89 36.6017031,89 L33.46875,89 C32.5978635,89 31.7334936,89.0483477 30.8783043,89.1442288 Z M46.6017031,89 C45.4971336,89 44.6017031,88.1045695 44.6017031,87 C44.6017031,85.8954305 45.4971336,85 46.6017031,85 L52.6017031,85 C53.7062726,85 54.6017031,85.8954305 54.6017031,87 C54.6017031,88.1045695 53.7062726,89 52.6017031,89 L46.6017031,89 Z M62.6017031,89 C61.4971336,89 60.6017031,88.1045695 60.6017031,87 C60.6017031,85.8954305 61.4971336,85 62.6017031,85 L68.6017031,85 C69.7062726,85 70.6017031,85.8954305 70.6017031,87 C70.6017031,88.1045695 69.7062726,89 68.6017031,89 L62.6017031,89 Z M48.5,211 C46.0147186,211 44,208.985281 44,206.5 C44,204.014719 46.0147186,202 48.5,202 C50.9852814,202 53,204.014719 53,206.5 C53,208.985281 50.9852814,211 48.5,211 Z M48.5,214 C52.6421356,214 56,210.642136 56,206.5 C56,202.357864 52.6421356,199 48.5,199 C44.3578644,199 41,202.357864 41,206.5 C41,210.642136 44.3578644,214 48.5,214 Z M48.5,217 C42.7010101,217 38,212.29899 38,206.5 C38,200.70101 42.7010101,196 48.5,196 C54.2989899,196 59,200.70101 59,206.5 C59,212.29899 54.2989899,217 48.5,217 Z M224,71 C222.895431,71 222,70.1045695 222,69 C222,67.8954305 222.895431,67 224,67 C226.117484,67 228.217381,67.162588 230.28926,67.4845003 C231.380734,67.6540848 232.128073,68.6763745 231.958488,69.7678482 C231.788904,70.8593219 230.766614,71.6066608 229.67514,71.4370762 C227.806177,71.1466915 225.911591,71 224,71 Z M238.785308,74.0830253 C237.772116,73.6431206 237.307375,72.4651532 237.74728,71.4519614 C238.187184,70.4387695 239.365152,69.9740285 240.378344,70.4139332 C242.295204,71.2461902 244.156052,72.2236709 245.94895,73.338381 C246.886997,73.9215986 247.174643,75.1548267 246.591425,76.0928731 C246.008207,77.0309195 244.774979,77.3185652 243.836933,76.7353476 C242.209312,75.7233963 240.521838,74.8369871 238.785308,74.0830253 Z M251.294801,82.6788762 C250.514464,81.8971164 250.515618,80.6307869 251.297378,79.8504503 C252.079138,79.0701136 253.345467,79.0712673 254.125804,79.8530271 C255.591388,81.3212846 256.969085,82.8946791 258.249427,84.5622799 C258.922093,85.4384045 258.757157,86.6939473 257.881033,87.3666133 C257.004908,88.0392794 255.749365,87.8743437 255.076699,86.9982192 C253.901349,85.4673656 252.637735,84.0242599 251.294801,82.6788762 Z M260.131197,95.2427093 C259.653555,94.2467515 260.073733,93.0521628 261.069691,92.5745208 C262.065649,92.0968788 263.260237,92.5170567 263.737879,93.5130145 C264.632766,95.3789916 265.420366,97.3071694 266.095263,99.2869242 C266.451669,100.332414 265.893057,101.468875 264.847567,101.825281 C263.802077,102.181687 262.665616,101.623075 262.30921,100.577585 C261.685335,98.7474982 260.957619,96.9659269 260.131197,95.2427093 Z M264.507881,109.851589 C264.355713,108.757552 265.119249,107.747302 266.213287,107.595134 C267.307324,107.442965 268.317574,108.206501 268.469742,109.300539 C268.754044,111.344568 268.924939,113.414796 268.980212,115.503015 C269.009439,116.607198 268.138015,117.526008 267.033833,117.555235 C265.92965,117.584462 265.01084,116.713038 264.981613,115.608855 C264.930283,113.669647 264.771658,111.748054 264.507881,109.851589 Z M264.344596,125.236297 C264.520332,124.145797 265.546819,123.404235 266.637319,123.579971 C267.727819,123.755707 268.469382,124.782194 268.293646,125.872695 C267.961151,127.935931 267.512863,129.967334 266.952256,131.957461 C266.652761,133.020653 265.548086,133.639752 264.484894,133.340257 C263.421702,133.040763 262.802603,131.936087 263.102098,130.872895 C263.621198,129.030116 264.036465,127.148348 264.344596,125.236297 Z M259.593729,139.842562 C260.096443,138.859021 261.30129,138.469234 262.284831,138.971947 C263.268372,139.474661 263.65816,140.679509 263.155446,141.663049 C262.201809,143.528804 261.140774,145.324604 259.979587,147.03932 C259.360236,147.953911 258.11673,148.193251 257.202138,147.5739 C256.287547,146.954548 256.048207,145.711042 256.667558,144.79645 C257.736784,143.217532 258.714466,141.562808 259.593729,139.842562 Z M250.497262,152.099748 C251.297553,151.338428 252.563489,151.37002 253.324809,152.170311 C254.08613,152.970601 254.054538,154.236537 253.254247,154.997857 C251.726951,156.450781 250.11365,157.789368 248.42529,159.003614 C247.528549,159.648538 246.278781,159.4444 245.633856,158.547658 C244.988932,157.650916 245.19307,156.401149 246.089812,155.756224 C247.629163,154.649143 249.101719,153.427335 250.497262,152.099748 Z M237.798748,160.328933 C238.823919,159.917717 239.988341,160.415425 240.399557,161.440595 C240.810774,162.465766 240.313066,163.630188 239.287895,164.041404 C237.330214,164.82667 235.321775,165.460508 233.274406,165.936999 C232.198588,166.187378 231.123493,165.518227 230.873114,164.442409 C230.622736,163.366591 231.291887,162.291496 232.367705,162.041117 C234.215711,161.611025 236.029486,161.03862 237.798748,160.328933 Z M222.840289,163 C223.944858,163 224.840289,163.895431 224.840289,165 C224.840289,166.104569 223.944858,167 222.840289,167 L216.840289,167 C215.735719,167 214.840289,166.104569 214.840289,165 C214.840289,163.895431 215.735719,163 216.840289,163 L222.840289,163 Z M206.840289,163 C207.944858,163 208.840289,163.895431 208.840289,165 C208.840289,166.104569 207.944858,167 206.840289,167 L200.840289,167 C199.735719,167 198.840289,166.104569 198.840289,165 C198.840289,163.895431 199.735719,163 200.840289,163 L206.840289,163 Z" id="Shape" fill="#D4DFFF" fill-rule="nonzero"></path>
                <path d="M10.3205081,70.4334558 L74.5461826,33.3527453 L137.757221,51.5447935 L199.400547,158.314167 C204.923395,167.880019 201.645892,180.111827 192.080039,185.634675 L105.643982,235.538556 C96.0781296,241.061403 83.8463215,237.7839 78.323474,228.218048 L3,97.7539639 C-2.5228475,88.1881114 0.754655606,75.9563033 10.3205081,70.4334558 Z" id="Shape" fill="url(#linearGradient-1)"></path>
                <path d="M74.7390747,33.4810376 L137.988102,50.4285634 L116.234837,62.987817 C106.103167,68.8373393 93.1478507,65.3659729 87.2983284,55.234303 L74.7390747,33.4810376 Z" id="Shape" fill="url(#linearGradient-2)" fill-rule="nonzero"></path>
                <path d="M45.3185165,29.2826586 L116.952948,10.0882705 L173.301674,44.0206602 L205.210608,163.106422 C208.069444,173.775744 201.737794,184.742484 191.068472,187.60132 L94.6615776,213.433469 C83.9922555,216.292306 73.0255164,209.960656 70.1666801,199.291334 L31.1763809,53.7775561 C28.3175447,43.108234 34.6491945,32.1414949 45.3185165,29.2826586 Z" id="Shape" fill="url(#linearGradient-3)"></path>
                <path d="M117.106063,10.2621155 L173.81359,43.0022212 L149.550975,49.5033692 C138.250566,52.5313048 126.635147,45.8251397 123.607211,34.5247304 L117.106063,10.2621155 Z" id="Shape" fill="url(#linearGradient-4)" fill-rule="nonzero"></path>
                <path d="M91,0 L165.250383,0 L210.93985,47.4479998 L210.93985,171 C210.93985,182.045695 201.985545,191 190.93985,191 L91,191 C79.954305,191 71,182.045695 71,171 L71,20 C71,8.954305 79.954305,0 91,0 Z" id="Shape" fill="url(#linearGradient-5)"></path>
                <path d="M103.334586,96.5611111 C97.1867852,96.5611111 92.2030075,91.572817 92.2030075,85.4194444 C92.2030075,79.2660719 97.1867852,74.2777778 103.334586,74.2777778 C109.482388,74.2777778 114.466165,79.2660719 114.466165,85.4194444 C114.466165,91.572817 109.482388,96.5611111 103.334586,96.5611111 Z M126.007519,39.2611111 L155.932331,39.2611111 C157.0369,39.2611111 157.932331,40.1565416 157.932331,41.2611111 L157.932331,42.5666667 C157.932331,43.6712362 157.0369,44.5666667 155.932331,44.5666667 L126.007519,44.5666667 C124.902949,44.5666667 124.007519,43.6712362 124.007519,42.5666667 L124.007519,41.2611111 C124.007519,40.1565416 124.902949,39.2611111 126.007519,39.2611111 Z M126.007519,48.8111111 L187.736842,48.8111111 C188.841412,48.8111111 189.736842,49.7065416 189.736842,50.8111111 L189.736842,52.1166667 C189.736842,53.2212362 188.841412,54.1166667 187.736842,54.1166667 L126.007519,54.1166667 C124.902949,54.1166667 124.007519,53.2212362 124.007519,52.1166667 L124.007519,50.8111111 C124.007519,49.7065416 124.902949,48.8111111 126.007519,48.8111111 Z M126.007519,58.3611111 L166.533835,58.3611111 C167.638404,58.3611111 168.533835,59.2565416 168.533835,60.3611111 L168.533835,61.6666667 C168.533835,62.7712362 167.638404,63.6666667 166.533835,63.6666667 L126.007519,63.6666667 C124.902949,63.6666667 124.007519,62.7712362 124.007519,61.6666667 L124.007519,60.3611111 C124.007519,59.2565416 124.902949,58.3611111 126.007519,58.3611111 Z M174.774436,58.3611111 L187.736842,58.3611111 C188.841412,58.3611111 189.736842,59.2565416 189.736842,60.3611111 L189.736842,61.6666667 C189.736842,62.7712362 188.841412,63.6666667 187.736842,63.6666667 L174.774436,63.6666667 C173.669867,63.6666667 172.774436,62.7712362 172.774436,61.6666667 L172.774436,60.3611111 C172.774436,59.2565416 173.669867,58.3611111 174.774436,58.3611111 Z M126.007519,75.3388889 L155.932331,75.3388889 C157.0369,75.3388889 157.932331,76.2343194 157.932331,77.3388889 L157.932331,78.6444444 C157.932331,79.7490139 157.0369,80.6444444 155.932331,80.6444444 L126.007519,80.6444444 C124.902949,80.6444444 124.007519,79.7490139 124.007519,78.6444444 L124.007519,77.3388889 C124.007519,76.2343194 124.902949,75.3388889 126.007519,75.3388889 Z M126.007519,84.8888889 L187.736842,84.8888889 C188.841412,84.8888889 189.736842,85.7843194 189.736842,86.8888889 L189.736842,88.1944444 C189.736842,89.2990139 188.841412,90.1944444 187.736842,90.1944444 L126.007519,90.1944444 C124.902949,90.1944444 124.007519,89.2990139 124.007519,88.1944444 L124.007519,86.8888889 C124.007519,85.7843194 124.902949,84.8888889 126.007519,84.8888889 Z M126.007519,94.4388889 L187.736842,94.4388889 C188.841412,94.4388889 189.736842,95.3343194 189.736842,96.4388889 L189.736842,97.7444444 C189.736842,98.8490139 188.841412,99.7444444 187.736842,99.7444444 L126.007519,99.7444444 C124.902949,99.7444444 124.007519,98.8490139 124.007519,97.7444444 L124.007519,96.4388889 C124.007519,95.3343194 124.902949,94.4388889 126.007519,94.4388889 Z M126.007519,102.927778 L187.736842,102.927778 C188.841412,102.927778 189.736842,103.823208 189.736842,104.927778 L189.736842,106.233333 C189.736842,107.337903 188.841412,108.233333 187.736842,108.233333 L126.007519,108.233333 C124.902949,108.233333 124.007519,107.337903 124.007519,106.233333 L124.007519,104.927778 C124.007519,103.823208 124.902949,102.927778 126.007519,102.927778 Z M101.744361,149.616667 C96.4748169,149.616667 92.2030075,145.340986 92.2030075,140.066667 C92.2030075,134.792347 96.4748169,130.516667 101.744361,130.516667 C107.013905,130.516667 111.285714,134.792347 111.285714,140.066667 C111.285714,145.340986 107.013905,149.616667 101.744361,149.616667 Z M126.007519,127.333333 L155.932331,127.333333 C157.0369,127.333333 157.932331,128.228764 157.932331,129.333333 L157.932331,130.638889 C157.932331,131.743458 157.0369,132.638889 155.932331,132.638889 L126.007519,132.638889 C124.902949,132.638889 124.007519,131.743458 124.007519,130.638889 L124.007519,129.333333 C124.007519,128.228764 124.902949,127.333333 126.007519,127.333333 Z M126.007519,136.883333 L187.736842,136.883333 C188.841412,136.883333 189.736842,137.778764 189.736842,138.883333 L189.736842,140.188889 C189.736842,141.293458 188.841412,142.188889 187.736842,142.188889 L126.007519,142.188889 C124.902949,142.188889 124.007519,141.293458 124.007519,140.188889 L124.007519,138.883333 C124.007519,137.778764 124.902949,136.883333 126.007519,136.883333 Z M126.007519,146.433333 L166.533835,146.433333 C167.638404,146.433333 168.533835,147.328764 168.533835,148.433333 L168.533835,149.738889 C168.533835,150.843458 167.638404,151.738889 166.533835,151.738889 L126.007519,151.738889 C124.902949,151.738889 124.007519,150.843458 124.007519,149.738889 L124.007519,148.433333 C124.007519,147.328764 124.902949,146.433333 126.007519,146.433333 Z M174.774436,146.433333 L187.736842,146.433333 C188.841412,146.433333 189.736842,147.328764 189.736842,148.433333 L189.736842,149.738889 C189.736842,150.843458 188.841412,151.738889 187.736842,151.738889 L174.774436,151.738889 C173.669867,151.738889 172.774436,150.843458 172.774436,149.738889 L172.774436,148.433333 C172.774436,147.328764 173.669867,146.433333 174.774436,146.433333 Z M103.334586,62.6055556 C97.1867852,62.6055556 92.2030075,57.6172615 92.2030075,51.4638889 C92.2030075,45.3105163 97.1867852,40.3222222 103.334586,40.3222222 C109.482388,40.3222222 114.466165,45.3105163 114.466165,51.4638889 C114.466165,57.6172615 109.482388,62.6055556 103.334586,62.6055556 Z" id="Shape" fill="url(#linearGradient-6)" opacity="0.965587798"></path>
                <path d="M103.334586,93.3777778 C98.9432998,93.3777778 95.3834586,89.8147106 95.3834586,85.4194444 C95.3834586,81.0241783 98.9432998,77.4611111 103.334586,77.4611111 C107.725873,77.4611111 111.285714,81.0241783 111.285714,85.4194444 C111.285714,89.8147106 107.725873,93.3777778 103.334586,93.3777778 Z M103.334586,59.4222222 C98.9432998,59.4222222 95.3834586,55.859155 95.3834586,51.4638889 C95.3834586,47.0686228 98.9432998,43.5055556 103.334586,43.5055556 C107.725873,43.5055556 111.285714,47.0686228 111.285714,51.4638889 C111.285714,55.859155 107.725873,59.4222222 103.334586,59.4222222 Z" id="Shape" fill="#FFFFFF" fill-rule="nonzero"></path>
                <path d="M165.353383,0.207934795 L211.69863,46.5951803 L186.556391,46.5951803 C174.846293,46.5951803 165.353383,37.0936678 165.353383,25.3729581 L165.353383,0.207934795 Z" id="Shape" fill="#2FB9FB" fill-rule="nonzero"></path>
                <path d="M223,41 L236,41 C237.104569,41 238,41.8954305 238,43 L238,44.3055556 C238,45.4101251 237.104569,46.3055556 236,46.3055556 L223,46.3055556 C221.895431,46.3055556 221,45.4101251 221,44.3055556 L221,43 C221,41.8954305 221.895431,41 223,41 Z M223,51 L256,51 C257.104569,51 258,51.8954305 258,53 L258,54.3055556 C258,55.4101251 257.104569,56.3055556 256,56.3055556 L223,56.3055556 C221.895431,56.3055556 221,55.4101251 221,54.3055556 L221,53 C221,51.8954305 221.895431,51 223,51 Z" id="Shape" fill="url(#linearGradient-7)"></path>
                <path d="M109,165 L122,165 C123.104569,165 124,165.895431 124,167 L124,168.305556 C124,169.410125 123.104569,170.305556 122,170.305556 L109,170.305556 C107.895431,170.305556 107,169.410125 107,168.305556 L107,167 C107,165.895431 107.895431,165 109,165 Z" id="Shape" fill="#FFE988" fill-rule="nonzero"></path>
                <path d="M109,175 L142,175 C143.104569,175 144,175.895431 144,177 L144,178.305556 C144,179.410125 143.104569,180.305556 142,180.305556 L109,180.305556 C107.895431,180.305556 107,179.410125 107,178.305556 L107,177 C107,175.895431 107.895431,175 109,175 Z" id="Shape" fill="#A5FECB" fill-rule="nonzero"></path>
                <circle id="Shape" fill="#FFE77D" fill-rule="nonzero" cx="177.5" cy="165.5" r="4.5"></circle>
                <path d="M170,287 C112.010101,287 65,239.989899 65,182 C65,124.010101 112.010101,77 170,77 C227.989899,77 275,124.010101 275,182 C275,239.989899 227.989899,287 170,287 Z" id="Shape" fill="url(#linearGradient-8)"></path>
                <path d="M170,271 C219.153343,271 259,231.153343 259,182 C259,132.846657 219.153343,93 170,93 C120.846657,93 81,132.846657 81,182 C81,231.153343 120.846657,271 170,271 Z" id="Shape" fill="url(#linearGradient-9)" opacity="0.965587798"></path>
                <path d="M175.5,179 L203.5,179 C205.709139,179 207.5,180.790861 207.5,183 C207.5,185.209139 205.709139,187 203.5,187 L171.5,187 C169.290861,187 167.5,185.209139 167.5,183 L167.5,130 C167.5,127.790861 169.290861,126 171.5,126 C173.709139,126 175.5,127.790861 175.5,130 L175.5,179 L175.5,179 Z M170,111 C167.238576,111 165,108.761424 165,106 C165,103.238576 167.238576,101 170,101 C172.761424,101 175,103.238576 175,106 C175,108.761424 172.761424,111 170,111 Z M170,261 C167.238576,261 165,258.761424 165,256 C165,253.238576 167.238576,251 170,251 C172.761424,251 175,253.238576 175,256 C175,258.761424 172.761424,261 170,261 Z M240.5,181.5 C240.5,178.738576 242.738576,176.5 245.5,176.5 C248.261424,176.5 250.5,178.738576 250.5,181.5 C250.5,184.261424 248.261424,186.5 245.5,186.5 C242.738576,186.5 240.5,184.261424 240.5,181.5 Z M89.5,181.5 C89.5,178.738576 91.7385763,176.5 94.5,176.5 C97.2614237,176.5 99.5,178.738576 99.5,181.5 C99.5,184.261424 97.2614237,186.5 94.5,186.5 C91.7385763,186.5 89.5,184.261424 89.5,181.5 Z" id="Shape" fill="#FFFFFF" fill-rule="nonzero"></path>
                <circle id="Shape" fill="url(#linearGradient-10)" cx="47.5" cy="249.5" r="28.5"></circle>
                <path d="M59.6033904,236.032274 C61.4796345,234.229499 64.4558898,234.295516 66.2510425,236.179726 C68.0461953,238.063937 67.9804578,241.052828 66.1042136,242.855603 L45.172913,262.967281 C42.9879144,265.066719 39.4260648,264.578742 37.8808853,261.968265 L29.1608591,247.236363 C27.8340235,244.994763 28.5679039,242.097408 30.8000269,240.764939 C33.0321498,239.432469 35.9172557,240.169466 37.2440913,242.411066 L42.9434865,252.039813 L59.6033904,236.032274 Z" id="Shape" fill="#FFFFFF" fill-rule="nonzero"></path>
            </g>
        </g>
    </g>
</svg>